{"glyphs":{"0":{"ha":846,"x_min":81,"x_max":765,"o":"m 765 407 q 740 238 765 315 q 668 105 714 161 q 560 17 622 49 q 424 -14 497 -14 q 286 17 349 -14 q 178 105 224 49 q 106 238 132 161 q 81 407 81 315 q 106 576 81 499 q 178 709 132 653 q 286 797 224 765 q 424 829 349 829 q 560 797 497 829 q 668 709 622 765 q 740 576 714 653 q 765 407 765 499 m 718 407 q 697 560 718 490 q 636 679 675 629 q 543 756 597 729 q 424 783 489 783 q 303 756 358 783 q 210 679 249 729 q 149 560 171 629 q 128 407 128 490 q 149 254 128 324 q 210 135 171 185 q 303 59 249 86 q 424 32 358 32 q 543 59 489 32 q 636 135 597 86 q 697 254 675 185 q 718 407 718 324 z "},"1":{"ha":542,"x_min":63,"x_max":515,"o":"m 515 44 l 515 0 l 94 0 l 94 44 l 292 44 l 292 728 q 253 691 281 711 q 194 653 226 671 q 126 624 161 636 q 63 611 90 611 l 63 661 q 138 681 99 661 q 211 724 178 700 q 267 769 244 747 q 292 793 290 790 l 339 793 l 339 44 l 515 44 z "},"2":{"ha":689,"x_min":64,"x_max":621,"o":"m 64 0 q 70 79 64 32 q 101 178 76 126 q 172 280 125 231 q 300 365 218 329 q 384 401 339 382 q 467 446 429 419 q 531 508 506 472 q 557 594 557 543 q 544 655 557 625 q 504 708 531 685 q 438 747 478 732 q 344 763 399 763 q 254 747 294 763 q 185 712 214 732 q 137 672 156 692 q 111 643 118 651 l 78 675 q 99 699 79 678 q 154 744 119 719 q 238 788 189 768 q 349 807 288 807 q 460 789 411 807 q 540 742 508 771 q 589 674 572 713 q 606 597 606 636 q 578 494 606 538 q 509 421 550 451 q 422 370 468 390 q 338 335 375 350 q 228 267 271 307 q 161 185 186 228 q 126 105 136 143 q 115 44 117 67 l 621 44 l 621 0 l 64 0 z "},"3":{"ha":729,"x_min":61,"x_max":656,"o":"m 442 328 q 597 243 539 314 q 656 69 656 172 q 633 -42 656 8 q 572 -128 611 -92 q 476 -184 532 -164 q 354 -204 421 -204 q 172 -158 250 -204 q 61 -32 93 -111 l 99 -7 q 192 -118 124 -76 q 356 -160 260 -160 q 540 -97 472 -160 q 608 72 608 -35 q 539 244 608 181 q 346 307 469 307 l 314 307 l 314 350 l 347 350 q 528 401 465 350 q 590 542 590 453 q 572 630 590 590 q 523 697 554 669 q 449 740 492 725 q 354 756 406 756 q 204 715 269 756 q 111 606 139 674 l 76 629 q 183 753 106 707 q 357 800 260 800 q 469 781 418 800 q 558 729 521 763 q 617 650 596 696 q 639 550 639 604 q 586 401 639 463 q 442 328 533 339 z "},"4":{"ha":731,"x_min":28,"x_max":692,"o":"m 522 -176 l 522 92 l 28 92 l 28 132 l 538 793 l 569 793 l 569 136 l 692 136 l 692 92 l 569 92 l 569 -176 l 522 -176 m 85 136 l 525 136 l 525 714 l 85 136 z "},"5":{"ha":749,"x_min":53,"x_max":696,"o":"m 376 428 q 501 405 443 428 q 602 340 558 382 q 671 241 646 299 q 696 115 696 183 q 669 -17 696 43 q 597 -119 643 -76 q 492 -184 551 -161 q 365 -207 432 -207 q 265 -192 313 -207 q 177 -152 218 -178 q 105 -90 136 -126 q 53 -8 74 -53 l 93 6 q 203 -116 131 -69 q 365 -162 275 -162 q 476 -142 424 -162 q 566 -85 528 -122 q 626 3 604 -49 q 649 115 649 54 q 627 223 649 174 q 568 308 606 272 q 481 363 531 343 q 372 383 431 383 q 231 350 297 383 q 121 254 164 317 l 71 254 q 79 294 74 265 q 93 363 85 324 q 111 450 101 403 q 131 546 121 497 q 181 793 153 657 l 650 793 l 650 747 l 218 747 l 133 325 q 242 401 179 374 q 376 428 306 428 z "},"6":{"ha":829,"x_min":76,"x_max":769,"o":"m 769 324 q 743 192 769 253 q 670 85 717 131 q 560 13 624 39 q 425 -14 497 -14 q 287 13 350 -14 q 176 91 224 40 q 103 214 129 142 q 76 378 76 286 q 102 652 76 536 q 175 844 128 768 q 287 956 222 919 q 431 993 351 993 q 608 940 531 993 q 718 794 686 886 l 682 772 q 586 900 654 851 q 431 949 518 949 q 305 915 361 949 q 209 816 249 881 q 147 658 169 751 q 125 443 125 564 q 171 531 140 492 q 242 599 201 571 q 331 644 282 628 q 432 660 379 660 q 564 633 503 660 q 671 561 625 607 q 743 454 717 515 q 769 324 769 393 m 428 31 q 542 53 489 31 q 636 116 596 76 q 700 209 676 156 q 724 322 724 263 q 700 436 724 382 q 635 530 676 490 q 540 593 594 569 q 426 617 486 617 q 312 593 365 617 q 218 530 258 569 q 154 437 178 490 q 131 324 131 383 q 154 210 131 264 q 219 117 178 157 q 313 54 260 78 q 428 31 367 31 z "},"7":{"ha":743,"x_min":63,"x_max":714,"o":"m 639 764 l 63 764 l 63 810 l 714 810 l 211 -176 l 157 -176 l 639 764 z "},"8":{"ha":811,"x_min":72,"x_max":739,"o":"m 739 265 q 712 151 739 203 q 638 65 685 100 q 531 10 592 29 q 401 -10 469 -10 q 266 13 326 -10 q 163 74 206 36 q 96 163 119 113 q 72 268 72 213 q 91 361 72 318 q 141 438 110 404 q 212 494 172 471 q 292 529 251 517 q 221 563 254 543 q 163 611 188 583 q 123 673 138 639 q 108 747 108 707 q 135 850 108 806 q 203 924 161 894 q 299 970 246 954 q 407 986 353 986 q 515 970 461 986 q 610 924 568 954 q 678 850 651 894 q 704 747 704 806 q 689 673 704 707 q 649 612 674 639 q 590 564 624 585 q 519 529 557 543 q 606 490 565 515 q 675 431 646 465 q 722 356 704 397 q 739 265 739 314 m 692 269 q 665 371 692 326 q 597 445 639 415 q 505 491 556 475 q 404 507 454 507 q 302 490 353 507 q 211 441 251 472 q 146 365 171 410 q 121 267 121 321 q 147 167 121 211 q 215 94 174 124 q 307 48 256 64 q 408 32 358 32 q 510 49 460 32 q 601 96 561 65 q 667 171 642 126 q 692 269 692 215 m 156 743 q 178 660 156 696 q 238 599 201 624 q 318 561 274 574 q 406 549 363 549 q 493 562 449 549 q 574 600 538 575 q 634 662 611 625 q 657 746 657 699 q 635 829 657 793 q 578 890 614 865 q 497 928 543 915 q 404 942 451 942 q 311 928 356 942 q 232 890 267 915 q 176 827 197 864 q 156 743 156 790 z "},"9":{"ha":807,"x_min":51,"x_max":744,"o":"m 51 456 q 78 588 51 526 q 151 694 104 649 q 260 767 197 740 q 394 793 322 793 q 533 766 469 793 q 644 688 597 739 q 718 565 692 638 q 744 401 744 493 q 718 127 744 243 q 645 -65 692 11 q 533 -177 599 -140 q 390 -214 468 -214 q 213 -160 290 -214 q 101 -15 135 -107 l 139 7 q 234 -121 165 -72 q 389 -169 303 -169 q 514 -135 457 -169 q 611 -37 571 -101 q 674 122 651 28 q 696 336 696 215 q 650 248 681 288 q 579 180 619 208 q 490 135 539 151 q 388 119 440 119 q 257 146 318 119 q 150 218 196 172 q 78 325 104 264 q 51 456 51 386 m 393 749 q 278 726 332 749 q 185 663 225 703 q 121 570 144 624 q 97 457 97 517 q 121 342 97 396 q 185 249 144 289 q 280 186 226 210 q 393 163 333 163 q 508 186 454 163 q 603 249 563 210 q 667 342 643 289 q 690 456 690 396 q 667 569 690 515 q 602 662 643 622 q 507 725 561 701 q 393 749 453 749 z "}," ":{"ha":360,"x_min":0,"x_max":0,"o":""},"!":{"ha":326,"x_min":140,"x_max":186,"o":"m 140 289 l 140 996 l 186 996 l 186 289 l 140 289 m 140 0 l 140 128 l 186 128 l 186 0 l 140 0 z "},"\"":{"ha":331,"x_min":100,"x_max":231,"o":"m 100 772 l 100 989 l 143 989 l 143 772 l 100 772 m 188 772 l 188 989 l 231 989 l 231 772 l 188 772 z "},"#":{"ha":915,"x_min":53,"x_max":863,"o":"m 863 658 l 694 658 l 618 343 l 806 343 l 806 301 l 607 301 l 535 0 l 492 0 l 565 301 l 251 301 l 179 0 l 136 0 l 210 301 l 53 301 l 53 343 l 219 343 l 296 658 l 110 658 l 110 699 l 306 699 l 376 986 l 419 986 l 349 699 l 661 699 l 732 986 l 775 986 l 704 699 l 863 699 l 863 658 m 575 343 l 651 658 l 339 658 l 263 343 l 575 343 z "},"$":{"ha":854,"x_min":61,"x_max":797,"o":"m 715 840 q 597 923 661 899 q 447 949 533 947 l 447 514 q 592 478 528 497 q 703 428 657 458 q 773 355 749 399 q 797 246 797 311 q 773 136 797 183 q 703 57 749 89 q 592 9 657 25 q 449 -7 528 -7 l 449 -133 l 414 -133 l 414 -6 q 222 35 307 -1 q 61 143 136 72 l 90 178 q 234 76 154 111 q 415 35 314 40 l 415 475 q 278 508 338 490 q 178 554 219 526 q 117 622 138 582 q 96 722 96 663 q 118 833 96 785 q 182 916 140 882 q 283 969 224 950 q 414 992 342 989 l 414 1132 l 449 1132 l 449 993 q 612 964 540 992 q 742 876 683 936 l 715 840 m 749 240 q 731 327 749 292 q 675 389 713 363 q 581 433 638 415 q 447 468 524 451 l 447 35 q 669 85 589 35 q 749 240 749 136 m 144 729 q 160 648 144 681 q 208 592 175 615 q 293 552 242 568 q 415 521 344 536 l 415 947 q 208 883 272 942 q 144 729 144 825 z "},"S":{"ha":838,"x_min":51,"x_max":788,"o":"m 706 840 q 586 924 651 900 q 433 949 521 949 q 206 889 276 949 q 135 729 135 829 q 152 645 135 679 q 206 588 169 611 q 299 548 242 564 q 435 515 356 532 q 581 479 515 499 q 692 430 646 460 q 763 356 738 400 q 788 246 788 311 q 763 136 788 183 q 693 57 739 89 q 583 9 647 25 q 439 -7 518 -7 q 226 30 321 -7 q 51 143 132 67 l 81 178 q 239 71 150 107 q 440 35 328 35 q 659 85 579 35 q 739 240 739 136 q 719 330 739 293 q 660 392 700 367 q 560 437 621 418 q 418 472 500 456 q 276 507 338 489 q 172 553 214 525 q 108 621 129 581 q 86 722 86 661 q 111 838 86 788 q 181 923 136 889 q 290 975 226 957 q 432 993 354 993 q 600 965 528 993 q 732 876 672 938 l 706 840 z "},"%":{"ha":949,"x_min":64,"x_max":886,"o":"m 260 613 q 183 628 219 613 q 121 669 147 643 q 79 730 94 694 q 64 806 64 765 q 79 881 64 846 q 121 943 94 917 q 183 985 147 969 q 260 1000 219 1000 q 336 985 300 1000 q 399 943 372 969 q 440 881 425 917 q 456 806 456 846 q 440 730 456 765 q 399 669 425 694 q 336 628 372 643 q 260 613 300 613 m 260 647 q 322 660 293 647 q 371 695 350 674 q 403 745 392 717 q 415 806 415 774 q 403 868 415 839 q 369 918 390 897 q 319 951 347 939 q 260 964 290 964 q 198 951 226 964 q 149 916 169 938 q 116 865 128 894 q 104 806 104 836 q 117 744 104 772 q 150 694 129 715 q 199 660 171 672 q 260 647 228 647 m 690 -14 q 614 1 650 -14 q 551 43 578 17 q 508 105 524 69 q 493 181 493 140 q 508 256 493 221 q 551 317 524 292 q 614 358 578 343 q 690 374 650 374 q 767 358 731 374 q 829 317 803 343 q 871 256 856 292 q 886 181 886 221 q 871 105 886 140 q 829 43 856 69 q 767 1 803 17 q 690 -14 731 -14 m 690 22 q 751 35 722 22 q 800 69 779 47 q 833 120 821 92 q 846 181 846 149 q 833 242 846 213 q 799 292 821 271 q 749 326 778 314 q 690 339 721 339 q 628 326 657 339 q 579 291 600 313 q 546 240 558 269 q 533 181 533 211 q 546 118 533 147 q 580 68 558 89 q 630 35 601 47 q 690 22 658 22 m 74 22 l 461 504 l 846 989 l 876 965 l 486 481 l 103 -3 l 74 22 z "},"⁄":{"ha":181,"x_min":-311,"x_max":492,"o":"m -311 22 l 76 504 l 461 989 l 492 965 l 101 481 l -282 -3 l -311 22 z "},"&":{"ha":894,"x_min":71,"x_max":882,"o":"m 819 0 l 682 143 q 550 29 628 72 q 376 -14 472 -14 q 263 3 318 -14 q 165 53 207 21 q 97 133 122 86 q 71 242 71 181 q 90 335 71 293 q 140 413 108 376 q 213 481 171 449 q 300 544 254 513 q 229 624 258 589 q 182 688 200 658 q 156 742 164 717 q 149 793 149 768 q 167 872 149 835 q 217 937 185 908 q 292 982 249 965 q 385 999 335 999 q 470 985 431 999 q 538 946 510 971 q 583 888 567 921 q 599 817 599 854 q 579 737 599 774 q 527 667 560 700 q 452 601 494 633 q 364 539 410 569 l 679 210 q 731 335 713 268 q 749 472 749 401 l 792 472 q 770 318 792 393 q 708 179 749 243 l 882 0 l 819 0 m 382 26 q 537 66 468 26 q 654 172 606 106 l 328 515 q 247 456 285 486 q 180 393 208 426 q 135 322 151 360 q 118 239 118 283 q 142 145 118 185 q 203 79 165 106 q 289 40 242 53 q 382 26 336 26 m 194 793 q 200 755 194 775 q 221 708 206 735 q 263 648 236 682 q 335 568 290 614 q 425 631 385 601 q 494 690 465 661 q 539 749 524 719 q 554 814 554 779 q 506 917 554 876 q 385 957 458 957 q 310 944 344 957 q 249 908 275 931 q 209 856 224 886 q 194 793 194 826 z "},"'":{"ha":243,"x_min":100,"x_max":143,"o":"m 100 771 l 100 989 l 143 989 l 143 771 l 100 771 z "},"(":{"ha":339,"x_min":67,"x_max":292,"o":"m 67 479 q 81 618 67 550 q 122 752 96 686 q 181 883 147 818 q 254 1014 215 949 l 292 992 q 228 882 260 944 q 169 751 196 819 q 127 610 143 682 q 111 475 111 539 q 158 238 111 368 q 290 -18 206 107 l 254 -40 q 116 222 165 92 q 67 479 67 351 z "},")":{"ha":338,"x_min":47,"x_max":272,"o":"m 272 479 q 223 222 272 351 q 85 -40 174 92 l 49 -18 q 181 238 133 107 q 228 475 228 368 q 212 610 228 539 q 170 751 196 682 q 112 882 144 819 q 47 992 79 944 l 85 1014 q 158 883 124 949 q 217 752 192 818 q 258 618 243 686 q 272 479 272 550 z "},"*":{"ha":428,"x_min":92,"x_max":335,"o":"m 128 776 l 186 857 l 92 888 l 103 921 l 196 889 l 196 988 l 231 988 l 231 889 l 325 921 l 335 888 l 242 857 l 301 776 l 271 756 l 214 838 l 156 756 l 128 776 z "},"+":{"ha":574,"x_min":76,"x_max":497,"o":"m 497 514 l 497 472 l 310 472 l 310 269 l 264 269 l 264 472 l 76 472 l 76 514 l 264 514 l 264 717 l 310 717 l 310 514 l 497 514 z "},",":{"ha":347,"x_min":147,"x_max":200,"o":"m 149 -112 l 165 -8 l 147 -8 l 147 103 l 200 103 l 200 -8 l 176 -112 l 149 -112 z "},"-":{"ha":585,"x_min":94,"x_max":490,"o":"m 94 354 l 94 400 l 490 400 l 490 354 l 94 354 z "},".":{"ha":232,"x_min":94,"x_max":138,"o":"m 94 0 l 94 103 l 138 103 l 138 0 l 94 0 z "},"/":{"ha":772,"x_min":38,"x_max":733,"o":"m 733 986 l 93 0 l 38 0 l 676 986 l 733 986 z "},":":{"ha":232,"x_min":94,"x_max":138,"o":"m 94 615 l 94 718 l 138 718 l 138 615 l 94 615 m 94 0 l 94 103 l 138 103 l 138 0 l 94 0 z "},";":{"ha":249,"x_min":99,"x_max":150,"o":"m 100 615 l 100 718 l 143 718 l 143 615 l 100 615 m 100 -112 l 117 -8 l 99 -8 l 99 103 l 150 103 l 150 -8 l 128 -112 l 100 -112 z "},"<":{"ha":700,"x_min":47,"x_max":626,"o":"m 47 375 l 626 722 l 626 671 l 115 360 l 626 47 l 626 -4 l 47 343 l 47 375 z "},"=":{"ha":606,"x_min":97,"x_max":508,"o":"m 97 306 l 97 346 l 508 346 l 508 306 l 97 306 m 97 421 l 97 461 l 508 461 l 508 421 l 97 421 z "},">":{"ha":700,"x_min":72,"x_max":653,"o":"m 653 343 l 72 -4 l 72 47 l 583 360 l 72 671 l 72 722 l 653 375 l 653 343 z "},"?":{"ha":653,"x_min":49,"x_max":600,"o":"m 238 258 q 246 360 238 318 q 270 431 254 401 q 308 478 286 460 q 357 511 329 496 q 423 544 388 528 q 488 586 458 561 q 538 648 518 611 q 557 742 557 685 q 538 838 557 797 q 489 904 519 878 q 419 943 458 931 q 338 956 379 956 q 188 913 257 956 q 85 800 119 871 l 49 819 q 99 896 68 863 q 169 952 131 929 q 250 987 207 975 q 338 999 293 999 q 435 982 388 999 q 519 933 483 965 q 578 851 556 900 q 600 738 600 803 q 581 637 600 676 q 531 569 561 597 q 464 522 501 542 q 390 483 426 503 q 347 456 367 471 q 313 416 328 440 q 289 354 297 392 q 281 258 281 317 l 238 258 m 238 0 l 238 126 l 282 126 l 282 0 l 238 0 z "},"@":{"ha":1156,"x_min":68,"x_max":1072,"o":"m 575 838 q 768 797 678 838 q 926 685 858 757 q 1033 517 994 614 q 1072 308 1072 421 q 1070 256 1072 289 q 1061 187 1068 224 q 1042 113 1054 150 q 1008 45 1029 75 q 953 -3 986 15 q 876 -22 921 -22 q 823 -12 843 -22 q 792 17 803 -1 q 776 61 781 36 q 768 114 771 86 q 670 44 732 74 q 536 14 608 14 q 386 65 442 14 q 331 194 331 115 q 353 278 331 244 q 413 333 376 313 q 494 363 449 354 q 585 371 539 371 q 697 359 647 371 q 769 339 746 347 q 761 440 769 394 q 733 519 753 486 q 678 571 713 553 q 589 589 643 589 q 485 572 536 589 q 390 522 435 554 l 372 554 q 476 606 421 586 q 593 626 531 626 q 706 601 664 626 q 770 537 749 576 q 799 447 792 497 q 806 346 806 397 l 806 143 q 819 47 806 81 q 879 13 832 13 q 957 43 926 13 q 1006 119 988 74 q 1031 216 1024 164 q 1039 310 1039 268 q 1003 503 1039 413 q 903 660 967 593 q 756 765 840 726 q 575 804 671 804 q 397 768 482 804 q 246 667 311 732 q 142 514 181 603 q 103 319 103 425 q 140 128 103 217 q 240 -27 176 39 q 388 -131 303 -93 q 572 -169 474 -169 q 783 -117 682 -169 l 799 -147 q 571 -203 689 -203 q 376 -162 468 -203 q 216 -52 285 -122 q 108 113 147 18 q 68 319 68 208 q 110 529 68 433 q 223 693 153 625 q 385 799 293 761 q 575 838 476 838 m 669 82 q 722 117 703 97 q 752 157 742 136 q 765 199 763 178 q 768 240 768 219 l 768 303 q 743 308 760 303 q 702 320 726 314 q 647 331 678 326 q 578 336 615 336 q 501 329 539 336 q 435 306 464 322 q 388 262 406 289 q 369 194 369 235 q 383 134 369 161 q 419 89 396 107 q 472 61 442 71 q 536 51 503 51 q 608 60 572 51 q 669 82 643 69 z "},"A":{"ha":938,"x_min":22,"x_max":913,"o":"m 447 986 l 489 986 l 913 0 l 861 0 l 715 340 l 221 340 l 75 0 l 22 0 l 447 986 m 700 382 l 468 925 l 235 382 l 700 382 z "},"B":{"ha":914,"x_min":133,"x_max":847,"o":"m 847 256 q 827 156 847 203 q 772 75 807 110 q 691 20 738 40 q 593 0 644 0 l 133 0 l 133 986 l 581 986 q 674 964 632 986 q 744 906 715 942 q 790 826 774 871 q 806 735 806 781 q 768 597 806 660 q 664 506 731 535 q 740 469 706 493 q 798 411 774 444 q 835 338 822 378 q 847 256 847 299 m 800 260 q 785 341 800 301 q 743 410 769 381 q 681 458 717 440 q 603 476 644 476 l 182 476 l 182 44 l 593 44 q 674 63 636 44 q 740 111 711 81 q 784 181 768 142 q 800 260 800 219 m 182 942 l 182 519 l 564 519 q 642 538 607 519 q 703 585 678 556 q 744 653 729 615 q 758 731 758 690 q 744 810 758 772 q 706 878 731 849 q 648 924 682 907 q 572 942 614 942 l 182 942 z "},"C":{"ha":964,"x_min":64,"x_max":914,"o":"m 64 500 q 95 676 64 589 q 186 834 126 764 q 333 948 246 904 q 531 992 419 992 q 755 931 663 992 q 892 776 847 871 l 850 757 q 785 846 822 810 q 706 904 749 882 q 617 936 663 926 q 525 946 571 946 q 349 906 426 946 q 219 803 272 867 q 140 658 167 739 q 113 496 113 578 q 144 322 113 406 q 233 176 176 239 q 365 75 289 113 q 529 38 442 38 q 625 49 576 38 q 719 85 674 61 q 804 147 765 110 q 871 238 843 185 l 914 221 q 846 122 889 165 q 750 50 803 79 q 638 6 697 21 q 524 -8 579 -8 q 338 36 422 -8 q 193 152 254 81 q 98 315 132 224 q 64 500 64 406 z "},"D":{"ha":989,"x_min":133,"x_max":921,"o":"m 133 0 l 133 986 l 456 986 q 660 947 572 986 q 805 842 747 908 q 892 685 863 775 q 921 494 921 596 q 888 291 921 382 q 795 135 856 200 q 649 35 735 71 q 456 0 563 0 l 133 0 m 872 494 q 845 674 872 592 q 765 815 818 756 q 633 908 711 875 q 456 942 556 942 l 182 942 l 182 44 l 456 44 q 636 78 558 44 q 767 173 714 113 q 846 316 819 233 q 872 494 872 399 z "},"E":{"ha":854,"x_min":133,"x_max":785,"o":"m 785 44 l 785 0 l 133 0 l 133 986 l 772 986 l 772 942 l 182 942 l 182 526 l 699 526 l 699 482 l 182 482 l 182 44 l 785 44 z "},"F":{"ha":831,"x_min":133,"x_max":772,"o":"m 133 0 l 133 986 l 772 986 l 772 942 l 182 942 l 182 525 l 683 525 l 683 482 l 182 482 l 182 0 l 133 0 z "},"G":{"ha":999,"x_min":64,"x_max":917,"o":"m 872 161 q 528 -7 722 -7 q 341 37 426 -7 q 194 151 256 81 q 99 312 133 222 q 64 493 64 401 q 97 681 64 590 q 191 840 131 771 q 334 951 251 910 q 515 993 417 993 q 650 977 590 993 q 756 933 710 961 q 835 865 801 904 q 892 778 868 825 l 851 757 q 711 903 797 858 q 514 947 625 947 q 347 908 421 947 q 220 804 272 868 q 140 659 168 740 q 113 493 113 578 q 145 321 113 403 q 234 176 178 239 q 367 76 290 114 q 531 39 443 39 q 708 82 624 39 q 872 218 792 125 l 872 432 l 644 432 l 644 474 l 917 474 l 917 0 l 872 0 l 872 161 z "},"H":{"ha":1018,"x_min":133,"x_max":885,"o":"m 885 986 l 885 0 l 838 0 l 838 482 l 182 482 l 182 0 l 133 0 l 133 986 l 182 986 l 182 526 l 838 526 l 838 986 l 885 986 z "},"I":{"ha":315,"x_min":133,"x_max":182,"o":"m 133 0 l 133 986 l 182 986 l 182 0 l 133 0 z "},"J":{"ha":660,"x_min":25,"x_max":539,"o":"m 43 85 q 239 31 121 31 q 374 61 324 31 q 450 150 424 92 q 484 293 476 208 q 492 485 492 378 l 492 986 l 539 986 l 539 485 q 529 280 539 372 q 488 122 519 188 q 398 21 457 57 q 239 -15 339 -15 q 25 46 114 -15 l 43 85 z "},"K":{"ha":871,"x_min":133,"x_max":864,"o":"m 133 0 l 133 986 l 182 986 l 182 365 l 785 986 l 844 986 l 429 554 l 864 0 l 807 0 l 396 525 l 182 306 l 182 0 l 133 0 z "},"L":{"ha":806,"x_min":133,"x_max":786,"o":"m 133 0 l 133 986 l 182 986 l 182 44 l 786 44 l 786 0 l 133 0 z "},"M":{"ha":1225,"x_min":133,"x_max":1092,"o":"m 1043 0 l 1043 892 l 629 192 l 596 192 l 182 892 l 182 0 l 133 0 l 133 986 l 178 986 l 613 251 l 1047 986 l 1092 986 l 1092 0 l 1043 0 z "},"N":{"ha":1076,"x_min":133,"x_max":943,"o":"m 182 894 l 182 0 l 133 0 l 133 986 l 169 986 l 894 76 l 894 986 l 943 986 l 943 0 l 896 0 l 182 894 z "},"O":{"ha":1049,"x_min":64,"x_max":985,"o":"m 525 -7 q 338 36 422 -7 q 192 149 253 79 q 97 308 131 218 q 64 493 64 399 q 99 682 64 592 q 197 842 135 772 q 342 952 258 911 q 525 993 426 993 q 713 949 628 993 q 858 835 797 906 q 951 674 918 764 q 985 493 985 585 q 949 303 985 393 q 852 144 914 213 q 706 34 790 75 q 525 -7 622 -7 m 113 493 q 143 322 113 404 q 228 177 174 240 q 359 76 283 114 q 525 39 435 39 q 694 78 618 39 q 824 182 769 118 q 907 328 878 246 q 936 493 936 410 q 905 664 936 582 q 819 809 874 746 q 688 910 764 872 q 525 947 613 947 q 356 908 432 947 q 226 804 281 868 q 142 659 172 740 q 113 493 113 578 z "},"P":{"ha":861,"x_min":133,"x_max":819,"o":"m 133 0 l 133 986 l 538 986 q 650 960 599 986 q 739 891 701 933 q 798 794 776 849 q 819 685 819 740 q 799 572 819 626 q 743 474 779 517 q 657 406 707 432 q 546 381 607 381 l 182 381 l 182 0 l 133 0 m 182 425 l 544 425 q 639 447 597 425 q 710 506 681 469 q 755 590 739 543 q 771 685 771 636 q 752 781 771 735 q 701 863 733 828 q 627 920 669 899 q 536 942 585 942 l 182 942 l 182 425 z "},"Q":{"ha":1049,"x_min":64,"x_max":985,"o":"m 807 100 q 677 22 749 50 q 525 -7 606 -7 q 338 36 422 -7 q 192 149 253 79 q 97 308 131 218 q 64 493 64 399 q 99 682 64 592 q 197 842 135 772 q 342 952 258 911 q 525 993 426 993 q 713 949 628 993 q 858 835 797 906 q 951 674 918 764 q 985 493 985 585 q 945 293 985 388 q 838 128 906 199 l 942 0 l 889 0 l 807 100 m 525 39 q 664 65 600 39 q 778 136 728 92 l 669 271 l 721 271 l 807 164 q 903 317 869 231 q 936 493 936 403 q 905 664 936 582 q 819 809 874 746 q 688 910 764 872 q 525 947 613 947 q 356 908 432 947 q 226 804 281 868 q 142 659 172 740 q 113 493 113 578 q 143 322 113 404 q 228 177 174 240 q 359 76 283 114 q 525 39 435 39 z "},"R":{"ha":896,"x_min":133,"x_max":826,"o":"m 133 0 l 133 986 l 539 986 q 652 960 600 986 q 742 891 704 933 q 800 794 779 849 q 821 685 821 740 q 803 576 821 628 q 754 485 786 525 q 678 418 722 444 q 579 386 633 392 l 826 0 l 771 0 l 526 381 l 182 381 l 182 0 l 133 0 m 182 425 l 547 425 q 641 447 599 425 q 713 506 683 469 q 758 589 742 542 q 774 685 774 636 q 755 781 774 735 q 704 863 736 828 q 629 920 672 899 q 538 942 586 942 l 182 942 l 182 425 z "},"T":{"ha":838,"x_min":25,"x_max":813,"o":"m 813 942 l 443 942 l 443 0 l 394 0 l 394 942 l 25 942 l 25 986 l 813 986 l 813 942 z "},"U":{"ha":1050,"x_min":118,"x_max":932,"o":"m 525 39 q 701 78 631 39 q 811 182 771 118 q 868 327 851 246 q 885 492 885 408 l 885 986 l 932 986 l 932 492 q 911 303 932 393 q 842 144 890 213 q 717 34 794 75 q 526 -7 640 -7 q 331 36 410 -7 q 206 149 253 79 q 138 309 158 219 q 118 492 118 399 l 118 986 l 167 986 l 167 492 q 183 324 167 406 q 242 180 200 243 q 352 78 283 117 q 525 39 421 39 z "},"V":{"ha":942,"x_min":24,"x_max":918,"o":"m 74 986 l 471 60 l 867 986 l 918 986 l 494 0 l 447 0 l 24 986 l 74 986 z "},"W":{"ha":1444,"x_min":24,"x_max":1422,"o":"m 519 978 l 568 978 l 721 614 l 876 978 l 925 978 l 750 571 l 972 57 l 1369 986 l 1422 986 l 996 0 l 949 0 l 722 525 l 496 0 l 449 0 l 24 986 l 75 986 l 474 57 l 694 571 l 519 978 z "},"X":{"ha":867,"x_min":13,"x_max":854,"o":"m 71 986 l 435 522 l 799 986 l 854 986 l 461 486 l 843 0 l 788 0 l 435 450 l 82 0 l 24 0 l 406 486 l 13 986 l 71 986 z "},"Y":{"ha":894,"x_min":29,"x_max":865,"o":"m 83 986 l 446 426 l 813 986 l 865 986 l 471 378 l 471 0 l 422 0 l 422 381 l 29 986 l 83 986 z "},"Z":{"ha":868,"x_min":40,"x_max":826,"o":"m 40 42 l 769 942 l 49 942 l 49 986 l 826 986 l 826 944 l 100 44 l 822 44 l 822 0 l 40 0 l 40 42 z "},"[":{"ha":329,"x_min":131,"x_max":249,"o":"m 131 -56 l 131 1028 l 249 1028 l 249 985 l 176 985 l 176 -12 l 249 -12 l 249 -56 l 131 -56 z "},"\\":{"ha":736,"x_min":38,"x_max":699,"o":"m 94 986 l 699 0 l 643 0 l 38 986 l 94 986 z "},"]":{"ha":329,"x_min":81,"x_max":197,"o":"m 81 -56 l 81 -12 l 153 -12 l 153 985 l 81 985 l 81 1028 l 197 1028 l 197 -56 l 81 -56 z "},"^":{"ha":715,"x_min":63,"x_max":653,"o":"m 63 421 l 338 986 l 379 986 l 653 421 l 606 421 l 358 932 l 107 421 l 63 421 z "},"_":{"ha":729,"x_min":94,"x_max":635,"o":"m 94 -44 l 94 0 l 635 0 l 635 -44 l 94 -44 z "},"`":{"ha":285,"x_min":69,"x_max":218,"o":"m 69 1014 l 131 1014 l 218 904 l 185 886 l 69 1014 z "},"a":{"ha":736,"x_min":51,"x_max":657,"o":"m 288 -14 q 194 3 238 -14 q 119 51 151 21 q 69 121 88 81 q 51 208 51 161 q 74 292 51 254 q 135 358 96 331 q 230 401 175 386 q 350 417 285 417 q 473 407 411 417 q 585 378 535 397 l 585 456 q 523 628 585 564 q 357 693 461 693 q 244 670 304 693 q 125 604 185 647 l 103 639 q 360 733 242 733 q 559 658 486 733 q 632 453 632 583 l 632 75 q 657 44 632 44 l 657 0 q 649 -1 653 -1 q 643 -1 646 -1 q 603 16 619 -1 q 588 58 588 33 l 588 122 q 458 22 538 57 q 288 -14 379 -14 m 293 26 q 397 40 344 26 q 490 78 449 54 q 558 135 532 103 q 585 203 585 167 l 585 339 q 354 381 476 381 q 250 368 297 381 q 169 333 203 356 q 116 280 135 311 q 97 210 97 249 q 113 138 97 171 q 154 79 128 104 q 216 40 181 54 q 293 26 251 26 z "},"b":{"ha":843,"x_min":113,"x_max":782,"o":"m 436 -14 q 275 32 350 -14 q 157 147 200 78 l 157 0 l 113 0 l 113 1014 l 160 1014 l 160 558 q 284 685 213 636 q 449 733 356 733 q 590 700 528 733 q 694 614 651 667 q 759 494 736 561 q 782 358 782 426 q 756 217 782 285 q 682 99 729 150 q 572 17 635 47 q 436 -14 508 -14 m 429 31 q 552 59 496 31 q 649 133 608 88 q 712 238 689 179 q 735 358 735 297 q 713 482 735 422 q 653 588 692 542 q 561 661 615 633 q 442 689 507 689 q 350 672 393 689 q 272 628 307 656 q 208 564 236 600 q 160 488 179 528 l 160 236 q 191 157 164 194 q 258 91 218 119 q 343 47 297 63 q 429 31 389 31 z "},"c":{"ha":751,"x_min":61,"x_max":700,"o":"m 61 364 q 88 509 61 442 q 161 626 114 576 q 273 705 208 676 q 413 733 338 733 q 581 690 507 733 q 690 569 654 646 l 644 553 q 547 653 610 617 q 408 689 485 689 q 291 664 346 689 q 195 595 236 639 q 131 492 154 551 q 108 364 108 432 q 133 235 108 296 q 198 129 157 175 q 294 57 239 83 q 410 31 349 31 q 490 42 450 31 q 563 74 529 54 q 620 119 596 93 q 653 174 644 144 l 700 160 q 659 90 688 122 q 592 35 631 58 q 508 -1 554 13 q 414 -14 463 -14 q 276 16 340 -14 q 165 97 213 46 q 89 217 117 149 q 61 364 61 286 z "},"d":{"ha":846,"x_min":61,"x_max":756,"o":"m 408 -14 q 269 18 333 -14 q 159 102 206 50 q 87 221 113 154 q 61 358 61 288 q 86 501 61 433 q 156 621 111 569 q 261 703 200 672 q 394 733 322 733 q 486 719 443 733 q 566 681 529 706 q 633 625 603 657 q 683 558 663 593 l 683 1014 l 731 1014 l 731 75 q 756 44 731 44 l 756 0 q 744 -1 751 -1 q 703 17 719 -1 q 686 60 686 36 l 686 147 q 633 81 664 111 q 565 31 601 51 q 489 -2 529 10 q 408 -14 449 -14 m 414 31 q 500 47 454 31 q 585 92 546 64 q 652 159 625 121 q 683 239 679 197 l 683 488 q 638 566 668 529 q 569 630 608 603 q 487 673 531 657 q 401 689 443 689 q 281 660 335 689 q 189 585 226 632 q 131 480 151 539 q 110 358 110 421 q 133 234 110 293 q 198 130 157 175 q 294 58 239 85 q 414 31 350 31 z "},"e":{"ha":804,"x_min":61,"x_max":758,"o":"m 413 -14 q 275 16 339 -14 q 163 98 211 46 q 88 219 115 150 q 61 365 61 288 q 88 508 61 442 q 161 625 114 575 q 271 704 208 675 q 407 733 333 733 q 546 704 482 733 q 657 624 610 675 q 731 506 704 574 q 758 361 758 438 q 758 350 758 358 q 757 340 758 342 l 110 340 q 141 216 115 274 q 208 117 167 158 q 302 51 249 75 q 415 26 356 26 q 492 37 454 26 q 564 67 531 47 q 622 113 597 86 q 663 172 647 140 l 706 161 q 661 91 690 124 q 592 35 632 58 q 507 -1 553 13 q 413 -14 461 -14 m 711 381 q 682 506 707 449 q 616 604 657 563 q 522 669 575 646 q 408 692 469 692 q 294 668 347 692 q 202 603 242 644 q 138 504 163 561 q 110 381 114 447 l 711 381 z "},"f":{"ha":428,"x_min":39,"x_max":476,"o":"m 142 0 l 142 681 l 39 681 l 39 722 l 142 722 l 142 749 q 194 954 142 881 q 339 1028 246 1028 q 417 1015 379 1028 q 476 981 454 1001 l 453 950 q 406 975 435 965 q 344 985 376 985 q 229 924 269 985 q 189 749 189 864 l 189 722 l 400 722 l 400 681 l 189 681 l 189 0 l 142 0 z "},"g":{"ha":843,"x_min":61,"x_max":731,"o":"m 407 -12 q 268 19 332 -12 q 158 103 204 51 q 87 222 113 156 q 61 358 61 289 q 85 499 61 432 q 154 619 110 567 q 260 702 199 671 q 397 733 322 733 q 486 719 444 733 q 564 682 528 706 q 631 626 600 658 q 686 558 661 594 l 686 722 l 731 722 l 731 -22 q 703 -149 731 -96 q 631 -239 676 -203 q 526 -292 586 -275 q 401 -310 467 -310 q 288 -297 338 -310 q 201 -262 239 -285 q 135 -209 164 -240 q 86 -140 107 -178 l 121 -121 q 240 -233 165 -199 q 401 -268 315 -268 q 510 -253 460 -268 q 600 -206 561 -237 q 661 -129 639 -175 q 683 -22 683 -83 l 683 147 q 630 82 661 111 q 563 32 599 53 q 487 -1 526 11 q 407 -12 447 -12 m 414 31 q 509 49 463 31 q 593 98 556 68 q 655 165 631 128 q 683 239 679 201 l 683 488 q 637 568 667 531 q 569 632 607 606 q 489 674 532 658 q 401 689 446 689 q 278 660 332 689 q 186 583 224 631 q 129 477 149 536 q 110 358 110 418 q 133 234 110 293 q 198 130 157 175 q 294 58 239 85 q 414 31 350 31 z "},"h":{"ha":792,"x_min":113,"x_max":688,"o":"m 688 0 l 640 0 l 640 403 q 450 689 640 689 q 356 671 401 689 q 271 621 310 653 q 203 545 232 589 q 160 451 174 501 l 160 0 l 113 0 l 113 1014 l 160 1014 l 160 542 q 215 620 182 585 q 286 681 247 656 q 369 719 325 706 q 458 733 413 733 q 631 649 575 733 q 688 408 688 564 l 688 0 z "},"i":{"ha":274,"x_min":113,"x_max":160,"o":"m 113 0 l 113 722 l 160 722 l 160 0 l 113 0 m 113 897 l 113 1014 l 160 1014 l 160 897 l 113 897 z "},"j":{"ha":283,"x_min":-167,"x_max":171,"o":"m -22 -240 q -101 -230 -64 -240 q -167 -192 -139 -219 l -137 -161 q -84 -189 -114 -182 q -26 -196 -54 -196 q 28 -184 1 -196 q 76 -152 56 -172 q 110 -105 97 -132 q 124 -46 124 -78 l 124 722 l 171 722 l 171 -44 q 153 -124 171 -87 q 109 -185 136 -160 q 47 -226 82 -211 q -22 -240 13 -240 m 124 897 l 124 1014 l 171 1014 l 171 897 l 124 897 z "},"k":{"ha":714,"x_min":113,"x_max":693,"o":"m 639 0 l 344 400 l 160 232 l 160 0 l 113 0 l 113 1014 l 160 1014 l 160 288 l 628 719 l 685 719 l 378 431 l 693 0 l 639 0 z "},"l":{"ha":344,"x_min":121,"x_max":344,"o":"m 121 1014 l 167 1014 l 167 124 q 192 60 167 83 q 257 36 217 36 q 294 40 272 36 q 333 50 315 43 l 344 11 q 292 -1 324 4 q 239 -7 261 -7 q 153 26 186 -7 q 121 114 121 58 l 121 1014 z "},"m":{"ha":1265,"x_min":113,"x_max":1161,"o":"m 1161 0 l 1114 0 l 1114 403 q 1069 619 1114 550 q 931 689 1024 689 q 839 671 882 689 q 761 622 796 653 q 700 546 726 590 q 660 450 674 501 l 660 0 l 613 0 l 613 403 q 569 620 613 551 q 431 689 525 689 q 263 624 335 689 q 160 451 190 558 l 160 0 l 113 0 l 113 722 l 158 722 l 158 542 q 276 683 204 633 q 436 733 349 733 q 585 678 528 733 q 654 531 643 622 q 940 733 761 733 q 1108 651 1056 733 q 1161 408 1161 568 l 1161 0 z "},"n":{"ha":792,"x_min":113,"x_max":688,"o":"m 688 0 l 640 0 l 640 403 q 598 620 640 551 q 464 689 556 689 q 367 671 415 689 q 277 621 318 653 q 205 546 236 589 q 160 451 174 503 l 160 0 l 113 0 l 113 722 l 158 722 l 158 542 q 214 620 181 585 q 289 681 247 656 q 377 719 331 706 q 472 733 424 733 q 637 652 586 733 q 688 408 688 571 l 688 0 z "},"o":{"ha":818,"x_min":61,"x_max":757,"o":"m 408 -14 q 272 16 335 -14 q 161 97 208 46 q 88 215 114 147 q 61 358 61 283 q 88 503 61 435 q 163 622 115 571 q 273 703 210 674 q 408 733 336 733 q 544 703 481 733 q 656 622 608 674 q 730 503 703 571 q 757 358 757 435 q 730 215 757 283 q 656 97 703 147 q 546 16 610 46 q 408 -14 482 -14 m 108 357 q 132 231 108 290 q 196 126 156 171 q 291 56 236 82 q 407 31 346 31 q 524 57 469 31 q 620 128 579 83 q 685 233 661 172 q 708 360 708 293 q 685 487 708 426 q 620 592 661 547 q 524 663 579 636 q 408 689 469 689 q 293 663 347 689 q 198 591 239 636 q 133 485 157 546 q 108 357 108 425 z "},"p":{"ha":843,"x_min":113,"x_max":782,"o":"m 449 -14 q 359 0 401 -14 q 280 38 317 14 q 213 93 243 61 q 160 161 182 125 l 160 -296 l 113 -296 l 113 722 l 157 722 l 157 572 q 210 637 179 607 q 278 688 242 667 q 355 722 315 710 q 436 733 394 733 q 575 701 511 733 q 685 617 639 669 q 756 497 731 564 q 782 360 782 429 q 758 217 782 285 q 690 98 733 149 q 585 17 646 47 q 449 -14 524 -14 m 442 31 q 563 59 508 31 q 655 134 617 88 q 714 240 693 181 q 735 360 735 299 q 711 483 735 424 q 646 589 688 543 q 549 662 604 635 q 429 689 493 689 q 344 672 389 689 q 259 626 299 654 q 192 560 219 597 q 160 481 164 522 l 160 232 q 208 153 178 190 q 274 90 238 117 q 353 47 310 63 q 442 31 396 31 z "},"q":{"ha":843,"x_min":61,"x_max":756,"o":"m 394 -14 q 258 18 319 -14 q 152 102 196 50 q 85 222 108 154 q 61 360 61 289 q 88 501 61 433 q 163 621 115 569 q 273 703 210 672 q 408 733 336 733 q 491 721 450 733 q 568 687 532 708 q 635 635 604 665 q 686 572 665 606 l 686 722 l 731 722 l 731 -219 q 756 -251 731 -250 l 756 -294 q 743 -296 751 -296 q 701 -277 718 -296 q 683 -232 683 -258 l 683 161 q 551 31 625 75 q 394 -14 478 -14 m 403 31 q 494 47 451 31 q 572 90 536 63 q 635 153 607 117 q 683 228 663 189 l 683 478 q 651 558 678 519 q 587 625 625 596 q 503 672 549 654 q 413 689 457 689 q 290 660 346 689 q 194 585 235 632 q 132 479 154 539 q 110 358 110 419 q 131 234 110 293 q 192 130 153 175 q 285 58 231 85 q 403 31 339 31 z "},"r":{"ha":460,"x_min":113,"x_max":436,"o":"m 436 678 q 263 615 336 674 q 160 454 189 556 l 160 0 l 113 0 l 113 722 l 158 722 l 158 539 q 258 664 196 615 q 392 721 321 713 q 417 722 406 722 q 436 722 429 722 l 436 678 z "},"s":{"ha":661,"x_min":49,"x_max":604,"o":"m 332 -14 q 176 14 249 -14 q 49 100 104 42 l 75 132 q 194 53 133 79 q 331 26 256 26 q 494 69 432 26 q 557 190 557 113 q 541 251 557 226 q 494 292 525 275 q 419 323 464 310 q 315 350 374 336 q 212 377 256 364 q 139 408 168 390 q 96 454 110 426 q 82 525 82 482 q 103 618 82 579 q 159 683 124 657 q 241 721 194 708 q 340 733 288 733 q 491 704 428 733 q 583 631 554 675 l 551 607 q 462 671 521 649 q 336 693 403 693 q 256 684 293 693 q 190 655 218 675 q 144 604 161 635 q 128 532 128 574 q 139 476 128 499 q 174 440 150 454 q 235 415 199 425 q 325 392 272 404 q 443 361 392 376 q 531 325 494 346 q 585 274 567 304 q 604 196 604 243 q 585 109 604 147 q 530 43 565 71 q 444 1 494 15 q 332 -14 393 -14 z "},"t":{"ha":426,"x_min":36,"x_max":413,"o":"m 413 33 q 399 26 410 32 q 369 12 388 19 q 326 -1 350 4 q 272 -7 301 -7 q 178 24 218 -7 q 139 113 139 56 l 139 681 l 36 681 l 36 722 l 139 722 l 139 971 l 186 971 l 186 722 l 357 722 l 357 681 l 186 681 l 186 119 q 217 58 189 79 q 281 38 244 38 q 323 42 303 38 q 358 53 343 47 q 383 65 374 60 q 394 72 393 71 l 413 33 z "},"u":{"ha":807,"x_min":106,"x_max":717,"o":"m 336 -14 q 164 68 222 -14 q 106 311 106 150 l 106 722 l 153 722 l 153 317 q 346 31 153 31 q 442 48 394 31 q 528 96 489 65 q 598 169 568 126 q 644 264 628 213 l 644 722 l 692 722 l 692 75 q 717 44 692 44 l 717 0 q 703 -1 711 -1 q 664 16 681 -1 q 647 58 647 33 l 647 178 q 517 38 600 89 q 336 -14 433 -14 z "},"v":{"ha":728,"x_min":32,"x_max":696,"o":"m 340 0 l 32 722 l 82 722 l 364 54 l 647 722 l 696 722 l 388 0 l 340 0 z "},"w":{"ha":1111,"x_min":31,"x_max":1079,"o":"m 1031 722 l 1079 722 l 765 0 l 725 0 l 556 394 l 385 0 l 344 0 l 31 722 l 79 722 l 367 57 l 529 436 l 408 721 l 451 721 l 556 478 l 658 721 l 703 721 l 581 436 l 744 57 l 1031 722 z "},"x":{"ha":678,"x_min":26,"x_max":653,"o":"m 81 722 l 328 408 l 339 390 l 350 408 l 597 722 l 653 722 l 367 358 l 650 0 l 596 0 l 350 311 l 339 328 l 328 311 l 83 0 l 28 0 l 311 358 l 26 722 l 81 722 z "},"y":{"ha":747,"x_min":26,"x_max":714,"o":"m 168 -264 q 233 -254 215 -264 q 248 -240 240 -250 q 268 -202 256 -229 q 301 -127 281 -175 q 356 0 322 -79 l 26 722 l 76 722 l 381 50 l 667 722 l 714 722 l 301 -244 q 225 -304 282 -292 q 197 -308 211 -307 q 168 -308 183 -308 l 168 -264 z "},"z":{"ha":679,"x_min":44,"x_max":632,"o":"m 44 39 l 578 682 l 53 682 l 53 722 l 632 722 l 632 683 l 101 40 l 628 40 l 628 0 l 44 0 l 44 39 z "},"{":{"ha":331,"x_min":89,"x_max":254,"o":"m 178 985 l 178 581 q 177 566 178 575 q 174 545 176 557 q 165 522 171 533 q 147 500 158 510 q 174 455 169 481 q 178 419 178 429 l 178 0 l 254 0 l 254 -43 l 165 -43 q 144 -34 154 -43 q 133 -1 133 -25 l 133 413 q 124 457 133 436 q 89 481 114 478 l 89 522 q 112 531 103 522 q 126 549 121 539 q 132 571 131 560 q 133 588 133 582 l 133 986 q 147 1021 133 1014 q 165 1028 160 1028 l 254 1028 l 254 985 l 178 985 z "},"|":{"ha":300,"x_min":128,"x_max":172,"o":"m 128 -181 l 128 1076 l 172 1076 l 172 -181 l 128 -181 z "},"}":{"ha":331,"x_min":75,"x_max":242,"o":"m 75 985 l 75 1028 l 164 1028 q 183 1021 171 1028 q 196 986 196 1014 l 196 588 q 197 571 196 582 q 204 549 199 560 q 218 531 210 539 q 242 522 226 522 l 242 481 q 206 457 217 478 q 196 413 196 436 l 196 -1 q 185 -34 196 -25 q 164 -43 175 -43 l 75 -43 l 75 0 l 151 0 l 151 419 q 156 455 151 429 q 183 500 161 481 q 166 522 172 510 q 156 545 160 533 q 152 566 153 557 q 151 581 151 575 l 151 985 l 75 985 z "},"~":{"ha":661,"x_min":96,"x_max":567,"o":"m 96 344 q 103 367 96 349 q 125 408 110 386 q 164 448 140 431 q 222 465 188 465 q 278 452 251 465 q 329 424 304 439 q 380 395 354 408 q 433 382 406 382 q 477 392 458 382 q 508 417 496 403 q 525 442 519 431 q 531 457 531 454 l 567 456 q 560 437 567 454 q 538 399 554 419 q 497 361 522 378 q 433 344 471 344 q 372 358 400 344 q 317 386 343 371 q 268 415 292 401 q 222 428 244 428 q 183 415 200 428 q 156 388 167 403 q 139 359 144 372 q 133 344 133 346 l 96 344 l 96 344 z "}," ":{"ha":360,"x_min":0,"x_max":0,"o":""},"¡":{"ha":326,"x_min":139,"x_max":186,"o":"m 186 706 l 186 -1 l 139 -1 l 139 706 l 186 706 m 186 994 l 186 867 l 139 867 l 139 994 l 186 994 z "},"¢":{"ha":760,"x_min":63,"x_max":701,"o":"m 383 -167 l 383 -12 q 254 27 313 -7 q 153 113 196 61 q 86 228 110 164 q 63 358 63 292 q 85 494 63 429 q 151 611 108 560 q 252 696 193 663 q 383 733 311 729 l 383 896 l 418 896 l 418 733 q 590 685 525 731 q 692 569 656 640 l 646 553 q 549 653 608 621 q 418 689 490 686 l 418 31 q 488 41 450 31 q 560 70 525 51 q 620 115 594 89 q 654 174 646 142 l 701 160 q 655 84 686 117 q 584 30 624 51 q 501 -3 544 8 q 418 -14 457 -14 l 418 -167 l 383 -167 m 111 358 q 132 242 111 297 q 189 142 153 186 q 275 68 225 97 q 383 33 325 39 l 383 688 q 267 653 318 683 q 182 576 217 622 q 129 472 147 529 q 111 358 111 415 z "},"£":{"ha":661,"x_min":68,"x_max":597,"o":"m 68 511 l 214 511 q 179 573 197 543 q 145 633 161 603 q 119 694 129 663 q 110 761 110 725 q 128 851 110 808 q 178 925 147 893 q 252 975 210 957 q 343 993 294 993 q 476 953 414 993 q 575 847 539 914 l 543 818 q 456 915 510 881 q 340 950 401 950 q 269 935 303 950 q 211 895 236 921 q 172 835 186 869 q 157 763 157 801 q 167 698 157 729 q 194 636 178 667 q 228 575 210 606 q 263 511 246 544 l 506 511 l 506 469 l 282 469 q 299 410 293 442 q 306 343 306 379 q 297 273 306 307 q 271 203 289 239 q 222 126 253 167 q 149 39 192 86 q 247 50 197 50 q 304 46 278 50 q 354 37 331 42 q 401 28 378 32 q 450 24 424 24 q 511 30 479 24 q 585 51 543 36 l 597 11 q 449 -21 521 -21 q 392 -16 418 -21 q 340 -6 365 -11 q 288 3 315 -1 q 231 8 261 8 q 162 3 199 8 q 94 -10 125 -1 l 76 26 q 166 125 131 82 q 223 204 201 168 q 253 273 244 240 q 261 340 261 306 q 253 408 261 376 q 233 469 246 440 l 68 469 l 68 511 z "},"¤":{"ha":742,"x_min":85,"x_max":661,"o":"m 207 654 q 280 700 239 683 q 369 717 321 717 q 460 699 418 717 q 535 651 503 682 l 632 749 l 661 721 l 561 624 q 602 550 588 590 q 617 465 617 510 q 560 307 617 376 l 661 208 l 633 182 l 533 281 q 460 234 501 251 q 369 217 418 217 q 281 233 321 217 q 208 278 240 250 l 111 182 l 85 208 l 182 304 q 139 378 154 338 q 124 465 124 419 q 138 552 124 511 q 179 626 153 593 l 85 721 l 113 749 l 207 654 m 168 464 q 184 383 168 421 q 228 316 200 344 q 292 271 256 288 q 369 254 328 254 q 448 271 411 254 q 513 317 485 288 q 556 385 540 346 q 572 467 572 424 q 556 549 572 511 q 513 616 540 588 q 448 661 485 644 q 369 678 411 678 q 292 661 328 678 q 228 615 256 644 q 184 547 200 586 q 168 464 168 508 z "},"¥":{"ha":914,"x_min":39,"x_max":875,"o":"m 547 483 l 674 483 l 674 444 l 524 444 l 481 378 l 481 343 l 674 343 l 674 304 l 481 304 l 481 0 l 432 0 l 432 304 l 240 304 l 240 343 l 432 343 l 432 381 l 392 444 l 240 444 l 240 483 l 368 483 l 39 986 l 93 986 l 456 426 l 822 986 l 875 986 l 547 483 z "},"¦":{"ha":306,"x_min":131,"x_max":175,"o":"m 175 393 l 175 -181 l 131 -181 l 131 393 l 175 393 m 175 1076 l 175 503 l 131 503 l 131 1076 l 175 1076 z "},"§":{"ha":678,"x_min":64,"x_max":619,"o":"m 547 257 q 619 110 619 217 q 594 9 619 53 q 531 -64 569 -35 q 446 -108 493 -93 q 354 -122 399 -122 q 199 -87 263 -122 q 90 -4 136 -51 l 124 25 q 233 -51 178 -26 q 354 -76 288 -76 q 432 -64 393 -76 q 501 -27 471 -51 q 551 31 532 -3 q 571 108 571 65 q 552 185 571 156 q 503 231 533 214 q 437 253 474 247 q 363 260 400 258 q 261 274 308 261 q 178 314 214 288 q 122 380 143 340 q 101 474 101 419 q 113 545 101 510 q 143 601 124 581 q 85 667 107 624 q 64 768 64 711 q 88 863 64 821 q 149 933 111 904 q 232 978 186 963 q 324 993 278 993 q 473 962 419 993 q 561 881 526 931 l 522 863 q 487 906 510 889 q 437 932 464 922 q 381 945 410 942 q 326 949 353 949 q 249 936 288 949 q 179 901 210 924 q 130 844 149 878 q 111 768 111 810 q 127 689 111 721 q 172 637 143 657 q 241 608 201 617 q 328 599 281 599 q 426 588 378 599 q 511 551 474 576 q 572 487 549 526 q 596 392 596 447 q 583 315 596 351 q 547 257 571 279 m 147 471 q 166 388 147 419 q 215 338 185 356 q 283 311 244 319 q 362 298 322 303 q 438 289 401 293 q 503 274 475 285 q 538 325 525 293 q 550 392 550 357 q 529 471 550 439 q 476 522 508 503 q 404 548 443 540 q 329 556 365 556 q 254 562 290 556 q 188 581 218 568 q 158 533 169 563 q 147 471 147 503 z "},"¨":{"ha":365,"x_min":74,"x_max":292,"o":"m 74 899 l 74 1013 l 117 1013 l 117 899 l 74 899 m 249 899 l 249 1013 l 292 1013 l 292 899 l 249 899 z "},"©":{"ha":1147,"x_min":69,"x_max":1078,"o":"m 574 -10 q 373 28 465 -10 q 213 134 281 67 q 108 293 146 201 q 69 493 69 385 q 108 692 69 600 q 213 850 146 783 q 373 955 281 917 q 574 993 465 993 q 774 955 682 993 q 934 850 867 917 q 1040 692 1001 783 q 1078 493 1078 600 q 1040 293 1078 385 q 934 134 1001 201 q 774 28 867 67 q 574 -10 682 -10 m 575 24 q 759 58 674 24 q 908 153 844 92 q 1007 299 971 214 q 1043 489 1043 385 q 1008 677 1043 590 q 910 826 972 764 q 762 924 847 889 q 575 960 676 960 q 388 924 474 960 q 238 826 301 889 q 140 678 175 764 q 104 492 104 593 q 140 306 104 392 q 238 157 175 219 q 386 59 300 94 q 575 24 472 24 m 583 175 q 472 197 528 175 q 373 259 417 218 q 301 359 329 300 q 274 493 274 418 q 291 606 274 549 q 345 710 308 664 q 439 786 382 757 q 574 815 496 815 q 652 806 614 815 q 722 780 690 797 q 779 735 754 763 q 818 672 804 708 l 772 657 q 733 715 757 693 q 680 750 708 738 q 624 767 651 763 q 574 771 596 771 q 461 746 508 771 q 383 681 414 721 q 336 591 351 640 q 321 493 321 542 q 345 376 321 428 q 407 290 369 325 q 490 236 444 254 q 578 218 536 218 q 638 226 607 218 q 699 250 669 235 q 751 288 728 265 q 786 339 774 311 l 831 326 q 803 280 824 306 q 750 231 782 254 q 676 191 718 207 q 583 175 633 175 z "},"ª":{"ha":594,"x_min":71,"x_max":508,"o":"m 235 486 q 170 498 200 486 q 118 529 140 510 q 83 576 96 549 q 71 635 71 603 q 128 740 71 700 q 278 779 186 779 q 359 773 318 779 q 432 754 400 767 l 432 800 q 392 904 432 865 q 283 943 353 943 q 124 886 210 943 l 103 921 q 288 985 200 985 q 433 935 379 985 q 486 794 486 885 l 486 568 q 508 543 486 544 l 508 494 q 492 493 501 493 q 440 538 443 493 l 439 576 q 351 509 404 532 q 235 486 297 486 m 247 529 q 314 538 281 529 q 373 562 347 547 q 415 596 399 576 q 432 636 432 615 l 432 717 q 361 737 399 732 q 285 742 324 742 q 167 714 213 742 q 122 638 122 686 q 158 560 122 592 q 247 529 194 529 z "},"«":{"ha":742,"x_min":58,"x_max":649,"o":"m 58 375 l 392 614 l 392 568 l 99 360 l 392 151 l 392 106 l 58 343 l 58 375 m 314 375 l 649 614 l 649 568 l 356 360 l 649 151 l 649 106 l 314 343 l 314 375 z "},"¬":{"ha":788,"x_min":115,"x_max":689,"o":"m 689 481 l 689 189 l 646 189 l 646 435 l 115 435 l 115 481 l 689 481 z "},"­":{"ha":763,"x_min":94,"x_max":668,"o":"m 94 354 l 94 400 l 668 400 l 668 354 l 94 354 z "},"®":{"ha":1147,"x_min":69,"x_max":1078,"o":"m 574 -10 q 373 28 465 -10 q 213 134 281 67 q 108 293 146 201 q 69 493 69 385 q 108 692 69 600 q 213 850 146 783 q 373 955 281 917 q 574 993 465 993 q 774 955 682 993 q 934 850 867 917 q 1040 692 1001 783 q 1078 493 1078 600 q 1040 293 1078 385 q 934 134 1001 201 q 774 28 867 67 q 574 -10 682 -10 m 574 22 q 759 56 674 22 q 908 152 844 90 q 1007 301 971 214 q 1043 493 1043 388 q 1008 678 1043 593 q 910 826 972 764 q 761 924 847 889 q 574 960 675 960 q 386 924 472 960 q 238 826 300 889 q 140 678 175 764 q 104 493 104 593 q 140 306 104 392 q 238 156 175 219 q 386 58 300 93 q 574 22 472 22 m 369 808 l 632 808 q 705 792 671 808 q 763 747 739 775 q 800 684 786 719 q 814 613 814 649 q 803 543 814 576 q 771 484 792 510 q 721 442 750 458 q 657 421 692 425 l 817 171 l 769 171 l 613 418 l 411 418 l 411 171 l 369 171 l 369 808 m 636 456 q 739 502 704 456 q 774 613 774 549 q 763 673 774 644 q 733 722 753 701 q 688 756 714 743 q 631 768 661 768 l 411 768 l 411 456 l 636 456 z "},"¯":{"ha":535,"x_min":71,"x_max":464,"o":"m 71 943 l 71 982 l 464 982 l 464 943 l 71 943 z "},"°":{"ha":356,"x_min":76,"x_max":279,"o":"m 76 904 q 106 976 76 947 q 178 1006 136 1006 q 250 976 221 1006 q 279 904 279 947 q 250 832 279 861 q 178 803 221 803 q 106 832 136 803 q 76 904 76 861 m 131 951 q 111 904 111 932 q 131 858 111 875 q 178 838 151 838 q 225 858 204 838 q 244 904 244 878 q 239 930 244 918 q 225 951 233 942 q 178 969 207 969 q 131 951 149 969 z "},"±":{"ha":651,"x_min":113,"x_max":539,"o":"m 113 108 l 113 151 l 539 151 l 539 108 l 113 108 m 539 518 l 539 475 l 349 475 l 349 271 l 303 271 l 303 475 l 113 475 l 113 518 l 303 518 l 303 722 l 349 722 l 349 518 l 539 518 z "},"²":{"ha":521,"x_min":54,"x_max":460,"o":"m 54 581 q 66 672 54 633 q 99 740 78 711 q 153 789 121 768 q 226 825 185 810 q 292 848 257 836 q 354 876 326 860 q 401 915 382 892 q 419 972 419 938 q 382 1055 419 1019 q 267 1090 344 1090 q 200 1082 229 1090 q 149 1061 171 1074 q 113 1034 128 1049 q 88 1008 97 1019 l 61 1033 q 78 1052 64 1038 q 118 1083 92 1067 q 183 1113 144 1100 q 271 1126 221 1126 q 413 1080 367 1126 q 460 971 460 1033 q 439 902 460 931 q 388 854 418 874 q 324 822 358 835 q 260 801 289 810 q 177 762 207 785 q 131 713 147 739 q 111 663 115 688 q 107 617 107 638 l 460 617 l 460 581 l 54 581 z "},"³":{"ha":532,"x_min":54,"x_max":474,"o":"m 264 574 q 119 610 176 574 q 54 704 61 646 l 81 722 q 97 681 82 701 q 137 645 113 661 q 194 620 161 629 q 264 611 226 611 q 332 619 300 611 q 387 642 364 628 q 423 678 410 657 q 436 724 436 699 q 379 808 436 776 q 229 839 322 839 l 199 839 l 199 872 l 229 872 q 369 899 319 872 q 418 975 418 925 q 371 1060 418 1028 q 254 1092 324 1092 q 153 1069 196 1092 q 90 1010 110 1046 l 63 1036 q 138 1102 86 1078 q 254 1126 189 1126 q 335 1115 297 1126 q 399 1084 372 1104 q 442 1037 426 1064 q 457 978 457 1010 q 333 857 457 882 q 435 808 397 846 q 474 718 474 771 q 457 659 474 686 q 412 613 440 632 q 345 584 383 594 q 264 574 307 574 z "},"´":{"ha":285,"x_min":69,"x_max":218,"o":"m 103 886 l 69 904 l 156 1014 l 218 1014 l 103 886 z "},"µ":{"ha":843,"x_min":122,"x_max":735,"o":"m 122 722 l 169 722 l 169 317 q 364 31 169 31 q 460 48 413 31 q 547 96 507 65 q 616 169 586 126 q 663 264 646 213 l 663 722 l 710 722 l 710 75 q 735 44 710 44 l 735 0 q 721 -1 729 -1 q 681 17 697 -1 q 665 60 665 36 l 665 178 q 610 99 643 135 q 538 39 578 64 q 454 0 499 14 q 363 -14 410 -14 q 240 21 289 -14 q 168 122 192 56 l 168 -294 l 122 -294 l 122 722 z "},"¶":{"ha":800,"x_min":46,"x_max":732,"o":"m 46 661 q 149 899 46 813 q 438 986 251 986 l 732 986 l 732 944 l 635 944 l 635 -111 l 592 -111 l 592 338 l 472 338 l 472 -111 l 428 -111 l 428 338 q 268 362 339 339 q 148 426 197 385 q 72 527 99 468 q 46 661 46 586 m 89 663 q 116 537 89 589 q 190 451 143 485 q 297 399 236 417 q 428 379 358 382 l 428 944 q 176 870 263 944 q 89 663 89 796 m 592 944 l 472 944 l 472 379 l 592 379 l 592 944 z "},"·":{"ha":232,"x_min":94,"x_max":138,"o":"m 94 346 l 94 472 l 138 472 l 138 346 l 94 346 z "},"¸":{"ha":363,"x_min":32,"x_max":285,"o":"m 49 -174 q 101 -191 68 -183 q 169 -199 133 -199 q 230 -187 210 -199 q 250 -147 250 -175 q 231 -107 250 -118 q 182 -96 213 -96 q 121 -103 153 -96 q 69 -117 89 -110 l 146 18 l 178 1 l 131 -76 q 160 -69 144 -71 q 188 -68 176 -68 q 285 -146 285 -68 q 253 -210 285 -190 q 164 -231 222 -231 q 92 -223 126 -231 q 32 -204 58 -215 l 49 -174 z "},"¹":{"ha":358,"x_min":49,"x_max":328,"o":"m 328 617 l 328 579 l 68 579 l 68 617 l 182 617 l 182 1081 q 160 1060 175 1072 q 126 1038 144 1049 q 86 1021 107 1028 q 49 1014 65 1014 l 49 1051 q 94 1063 71 1051 q 138 1088 118 1074 q 169 1113 157 1101 q 182 1126 182 1125 l 221 1126 l 221 617 l 328 617 z "},"º":{"ha":625,"x_min":67,"x_max":558,"o":"m 311 486 q 214 506 258 486 q 137 560 169 526 q 85 640 104 594 q 67 735 67 685 q 85 831 67 786 q 137 910 104 876 q 214 965 169 944 q 311 985 258 985 q 409 965 364 985 q 488 910 454 944 q 540 831 521 876 q 558 735 558 786 q 540 640 558 685 q 488 560 521 594 q 409 506 454 526 q 311 486 364 486 m 111 733 q 127 651 111 689 q 170 585 143 613 q 233 540 197 557 q 311 524 269 524 q 390 540 353 524 q 454 586 426 557 q 498 653 482 615 q 514 736 514 692 q 498 818 514 779 q 454 885 482 857 q 390 929 426 913 q 311 946 353 946 q 234 929 271 946 q 170 884 197 913 q 127 817 143 856 q 111 733 111 778 z "},"»":{"ha":742,"x_min":93,"x_max":683,"o":"m 683 343 l 350 106 l 350 151 l 643 360 l 350 568 l 350 614 l 683 375 l 683 343 m 428 343 l 93 106 l 93 151 l 386 360 l 93 568 l 93 614 l 428 375 l 428 343 z "},"¼":{"ha":1067,"x_min":64,"x_max":1017,"o":"m 901 0 l 901 150 l 579 150 l 579 183 l 913 539 l 939 539 l 939 186 l 1017 186 l 1017 150 l 939 150 l 939 0 l 901 0 m 626 186 l 901 186 l 901 479 l 626 186 m 150 22 l 538 504 l 922 989 l 953 965 l 563 481 l 179 -3 l 150 22 m 343 506 l 343 468 l 83 468 l 83 506 l 197 506 l 197 969 q 175 949 190 961 q 141 927 160 938 q 101 910 122 917 q 64 903 81 903 l 64 940 q 110 951 86 940 q 153 976 133 963 q 185 1002 172 990 q 197 1015 197 1014 l 236 1015 l 236 506 l 343 506 z "},"½":{"ha":1133,"x_min":68,"x_max":1074,"o":"m 669 0 q 713 159 669 104 q 840 244 757 214 q 905 267 871 256 q 967 295 939 279 q 1013 334 994 311 q 1032 392 1032 357 q 994 474 1032 438 q 881 510 957 510 q 814 501 843 510 q 763 481 785 493 q 726 453 742 468 q 703 428 711 439 l 676 453 q 693 472 679 457 q 733 503 707 486 q 797 533 758 519 q 885 546 835 546 q 1026 499 979 546 q 1072 390 1072 453 q 1052 320 1072 349 q 1003 272 1032 292 q 940 241 974 253 q 876 221 906 229 q 793 181 824 204 q 747 133 763 158 q 726 82 731 107 q 721 36 721 57 l 1074 36 l 1074 0 l 669 0 m 110 22 l 497 504 l 882 989 l 913 965 l 522 481 l 139 -3 l 110 22 m 347 506 l 347 468 l 88 468 l 88 506 l 201 506 l 201 969 q 179 949 194 961 q 145 927 164 938 q 106 910 126 917 q 68 903 85 903 l 68 940 q 114 951 90 940 q 157 976 138 963 q 189 1002 176 990 q 201 1015 201 1014 l 240 1015 l 240 506 l 347 506 z "},"¾":{"ha":1093,"x_min":61,"x_max":1036,"o":"m 271 463 q 126 499 183 463 q 61 593 68 535 l 88 611 q 104 570 89 590 q 144 534 119 550 q 201 509 168 518 q 271 500 233 500 q 339 508 307 500 q 394 531 371 517 q 430 567 417 546 q 443 613 443 588 q 386 697 443 665 q 236 728 329 728 l 206 728 l 206 761 l 236 761 q 376 788 326 761 q 425 864 425 814 q 378 949 425 917 q 261 981 331 981 q 160 958 203 981 q 97 899 117 935 l 69 925 q 144 991 93 967 q 261 1015 196 1015 q 342 1004 304 1015 q 406 973 379 993 q 449 926 433 953 q 464 867 464 899 q 340 746 464 771 q 442 697 404 735 q 481 607 481 660 q 464 548 481 575 q 419 502 447 521 q 352 473 390 483 q 271 463 314 463 m 921 0 l 921 150 l 599 150 l 599 183 l 932 539 l 958 539 l 958 186 l 1036 186 l 1036 150 l 958 150 l 958 0 l 921 0 m 646 186 l 921 186 l 921 479 l 646 186 m 201 22 l 589 504 l 974 989 l 1004 965 l 614 481 l 231 -3 l 201 22 z "},"¿":{"ha":643,"x_min":47,"x_max":599,"o":"m 410 444 q 401 342 410 383 q 377 272 393 301 q 339 224 361 243 q 290 192 317 206 q 224 158 258 175 q 159 117 189 142 q 110 55 129 92 q 90 -39 90 18 q 109 -135 90 -94 q 158 -201 128 -175 q 228 -240 189 -228 q 310 -253 268 -253 q 459 -210 390 -253 q 563 -97 528 -168 l 599 -117 q 548 -193 579 -160 q 478 -249 517 -226 q 397 -284 440 -272 q 310 -296 353 -296 q 212 -279 260 -296 q 128 -230 164 -262 q 69 -149 92 -197 q 47 -35 47 -100 q 66 66 47 26 q 115 133 85 106 q 183 181 146 161 q 257 219 221 200 q 299 247 279 232 q 335 287 319 263 q 358 349 350 311 q 367 444 367 386 l 410 444 m 410 703 l 410 576 l 365 576 l 365 703 l 410 703 z "},"À":{"ha":938,"x_min":22,"x_max":913,"o":"m 447 986 l 489 986 l 913 0 l 861 0 l 715 340 l 221 340 l 75 0 l 22 0 l 447 986 m 700 382 l 468 925 l 235 382 l 700 382 m 364 1275 l 425 1275 l 513 1165 l 479 1147 l 364 1275 z "},"Á":{"ha":938,"x_min":22,"x_max":913,"o":"m 447 986 l 489 986 l 913 0 l 861 0 l 715 340 l 221 340 l 75 0 l 22 0 l 447 986 m 700 382 l 468 925 l 235 382 l 700 382 m 457 1147 l 424 1165 l 510 1275 l 572 1275 l 457 1147 z "},"Â":{"ha":938,"x_min":22,"x_max":913,"o":"m 447 986 l 489 986 l 913 0 l 861 0 l 715 340 l 221 340 l 75 0 l 22 0 l 447 986 m 700 382 l 468 925 l 235 382 l 700 382 m 319 1168 l 450 1275 l 486 1275 l 618 1168 l 586 1147 l 468 1235 l 350 1147 l 319 1168 z "},"ˆ":{"ha":431,"x_min":67,"x_max":365,"o":"m 67 907 l 197 1014 l 233 1014 l 365 907 l 333 886 l 215 974 l 97 886 l 67 907 z "},"Ã":{"ha":938,"x_min":22,"x_max":913,"o":"m 447 986 l 489 986 l 913 0 l 861 0 l 715 340 l 221 340 l 75 0 l 22 0 l 447 986 m 700 382 l 468 925 l 235 382 l 700 382 m 553 1172 q 499 1181 522 1172 q 456 1199 476 1189 q 418 1217 436 1208 q 378 1225 400 1225 q 342 1216 356 1225 q 321 1195 328 1207 q 311 1172 314 1183 q 308 1158 308 1161 l 271 1158 q 274 1180 271 1163 q 290 1215 278 1197 q 323 1248 301 1233 q 381 1263 344 1263 q 429 1254 408 1263 q 469 1235 450 1246 q 508 1217 488 1225 q 554 1208 528 1208 q 599 1218 583 1208 q 624 1240 615 1228 q 634 1262 632 1251 q 636 1275 636 1272 l 672 1275 q 668 1253 672 1269 q 651 1218 664 1236 q 615 1186 639 1200 q 553 1172 592 1172 z "},"˜":{"ha":542,"x_min":69,"x_max":471,"o":"m 351 911 q 298 919 321 911 q 255 938 275 928 q 217 956 235 947 q 176 964 199 964 q 140 955 154 964 q 119 934 126 946 q 110 911 113 922 q 107 897 107 900 l 69 897 q 73 919 69 901 q 88 954 76 936 q 122 987 100 972 q 179 1001 143 1001 q 228 993 207 1001 q 267 974 249 985 q 306 956 286 964 q 353 947 326 947 q 398 957 382 947 q 422 978 414 967 q 433 1001 431 990 q 435 1014 435 1011 l 471 1014 q 467 992 471 1008 q 450 957 463 975 q 414 925 438 939 q 351 911 390 911 z "},"Ä":{"ha":938,"x_min":22,"x_max":913,"o":"m 447 986 l 489 986 l 913 0 l 861 0 l 715 340 l 221 340 l 75 0 l 22 0 l 447 986 m 700 382 l 468 925 l 235 382 l 700 382 m 360 1160 l 360 1274 l 403 1274 l 403 1160 l 360 1160 m 535 1160 l 535 1274 l 578 1274 l 578 1160 l 535 1160 z "},"Å":{"ha":938,"x_min":22,"x_max":913,"o":"m 447 986 l 489 986 l 913 0 l 861 0 l 715 340 l 221 340 l 75 0 l 22 0 l 447 986 m 700 382 l 468 925 l 235 382 l 700 382 m 383 1193 q 408 1252 383 1229 q 468 1275 432 1275 q 530 1252 506 1275 q 554 1193 554 1229 q 530 1133 554 1157 q 468 1110 506 1110 q 408 1133 432 1110 q 383 1193 383 1157 m 468 1249 q 428 1233 444 1249 q 413 1193 413 1218 q 428 1153 413 1169 q 468 1136 444 1136 q 508 1152 490 1136 q 525 1193 525 1168 q 508 1233 525 1218 q 468 1249 492 1249 z "},"˚":{"ha":335,"x_min":82,"x_max":253,"o":"m 82 932 q 106 991 82 968 q 167 1014 131 1014 q 228 991 204 1014 q 253 932 253 968 q 228 872 253 896 q 167 849 204 849 q 106 872 131 849 q 82 932 82 896 m 167 988 q 127 972 143 988 q 111 932 111 957 q 127 892 111 908 q 167 875 143 875 q 206 891 189 875 q 224 932 224 907 q 207 972 224 957 q 167 988 190 988 z "},"Æ":{"ha":1336,"x_min":-39,"x_max":1268,"o":"m 607 986 l 1256 986 l 1256 942 l 667 942 l 667 526 l 1181 526 l 1181 482 l 667 482 l 667 44 l 1268 44 l 1268 0 l 619 0 l 619 340 l 238 340 l 17 0 l -39 0 l 607 986 m 617 385 l 617 921 l 263 385 l 617 385 z "},"Ç":{"ha":958,"x_min":58,"x_max":908,"o":"m 415 -174 q 467 -191 435 -183 q 536 -199 500 -199 q 597 -187 576 -199 q 617 -147 617 -175 q 598 -107 617 -118 q 549 -96 579 -96 q 488 -103 519 -96 q 436 -117 456 -110 l 497 -7 q 319 42 400 -3 q 181 159 239 88 q 90 319 122 231 q 58 500 58 408 q 90 676 58 589 q 181 834 121 764 q 327 948 240 904 q 525 992 414 992 q 749 931 657 992 q 886 776 842 871 l 844 757 q 780 846 817 810 q 700 904 743 882 q 611 936 657 926 q 519 946 565 946 q 344 906 421 946 q 214 803 267 867 q 134 658 161 739 q 107 496 107 578 q 139 322 107 406 q 227 176 171 239 q 360 75 283 113 q 524 38 436 38 q 619 49 571 38 q 714 85 668 61 q 799 147 760 110 q 865 238 838 185 l 908 221 q 844 126 885 168 q 754 56 804 85 q 649 12 704 28 q 539 -7 593 -4 l 497 -76 q 527 -69 511 -71 q 554 -68 543 -68 q 651 -146 651 -68 q 620 -210 651 -190 q 531 -231 589 -231 q 459 -223 493 -231 q 399 -204 425 -215 l 415 -174 z "},"È":{"ha":854,"x_min":133,"x_max":785,"o":"m 785 44 l 785 0 l 133 0 l 133 986 l 772 986 l 772 942 l 182 942 l 182 526 l 699 526 l 699 482 l 182 482 l 182 44 l 785 44 m 371 1275 l 432 1275 l 519 1165 l 486 1147 l 371 1275 z "},"É":{"ha":854,"x_min":133,"x_max":785,"o":"m 464 1147 l 431 1165 l 517 1275 l 579 1275 l 464 1147 m 785 44 l 785 0 l 133 0 l 133 986 l 772 986 l 772 942 l 182 942 l 182 526 l 699 526 l 699 482 l 182 482 l 182 44 l 785 44 z "},"Ê":{"ha":854,"x_min":133,"x_max":785,"o":"m 326 1168 l 457 1275 l 493 1275 l 625 1168 l 593 1147 l 475 1235 l 357 1147 l 326 1168 m 785 44 l 785 0 l 133 0 l 133 986 l 772 986 l 772 942 l 182 942 l 182 526 l 699 526 l 699 482 l 182 482 l 182 44 l 785 44 z "},"Ë":{"ha":854,"x_min":133,"x_max":785,"o":"m 365 1160 l 365 1274 l 408 1274 l 408 1160 l 365 1160 m 540 1160 l 540 1274 l 583 1274 l 583 1160 l 540 1160 m 785 44 l 785 0 l 133 0 l 133 986 l 772 986 l 772 942 l 182 942 l 182 526 l 699 526 l 699 482 l 182 482 l 182 44 l 785 44 z "},"Ì":{"ha":315,"x_min":53,"x_max":201,"o":"m 133 0 l 133 986 l 182 986 l 182 0 l 133 0 m 53 1275 l 114 1275 l 201 1165 l 168 1147 l 53 1275 z "},"Í":{"ha":315,"x_min":113,"x_max":261,"o":"m 133 0 l 133 986 l 182 986 l 182 0 l 133 0 m 146 1147 l 113 1165 l 199 1275 l 261 1275 l 146 1147 z "},"Î":{"ha":315,"x_min":8,"x_max":307,"o":"m 133 0 l 133 986 l 182 986 l 182 0 l 133 0 m 8 1168 l 139 1275 l 175 1275 l 307 1168 l 275 1147 l 157 1235 l 39 1147 l 8 1168 z "},"Ï":{"ha":315,"x_min":49,"x_max":267,"o":"m 133 0 l 133 986 l 182 986 l 182 0 l 133 0 m 49 1160 l 49 1274 l 92 1274 l 92 1160 l 49 1160 m 224 1160 l 224 1274 l 267 1274 l 267 1160 l 224 1160 z "},"Ð":{"ha":999,"x_min":49,"x_max":931,"o":"m 143 0 l 143 475 l 49 475 l 49 517 l 143 517 l 143 986 l 465 986 q 669 947 582 986 q 815 842 757 908 q 901 685 872 775 q 931 494 931 596 q 898 291 931 382 q 805 135 865 200 q 658 35 744 71 q 465 0 572 0 l 143 0 m 882 494 q 855 674 882 592 q 774 815 828 756 q 643 908 721 875 q 465 942 565 942 l 192 942 l 192 517 l 449 517 l 449 475 l 192 475 l 192 44 l 465 44 q 646 78 568 44 q 776 173 724 113 q 856 316 829 233 q 882 494 882 399 z "},"Ñ":{"ha":1076,"x_min":133,"x_max":943,"o":"m 182 894 l 182 0 l 133 0 l 133 986 l 169 986 l 894 76 l 894 986 l 943 986 l 943 0 l 896 0 l 182 894 m 629 1172 q 576 1181 599 1172 q 533 1199 553 1189 q 494 1217 513 1208 q 454 1225 476 1225 q 418 1216 432 1225 q 397 1195 404 1207 q 388 1172 390 1183 q 385 1158 385 1161 l 347 1158 q 351 1180 347 1163 q 366 1215 354 1197 q 399 1248 378 1233 q 457 1263 421 1263 q 506 1254 485 1263 q 545 1235 526 1246 q 584 1217 564 1225 q 631 1208 604 1208 q 676 1218 660 1208 q 700 1240 692 1228 q 710 1262 708 1251 q 713 1275 713 1272 l 749 1275 q 744 1253 749 1269 q 728 1218 740 1236 q 692 1186 715 1200 q 629 1172 668 1172 z "},"Ò":{"ha":1049,"x_min":64,"x_max":985,"o":"m 525 -7 q 338 36 422 -7 q 192 149 253 79 q 97 308 131 218 q 64 493 64 399 q 99 682 64 592 q 197 842 135 772 q 342 952 258 911 q 525 993 426 993 q 713 949 628 993 q 858 835 797 906 q 951 674 918 764 q 985 493 985 585 q 949 303 985 393 q 852 144 914 213 q 706 34 790 75 q 525 -7 622 -7 m 113 493 q 143 322 113 404 q 228 177 174 240 q 359 76 283 114 q 525 39 435 39 q 694 78 618 39 q 824 182 769 118 q 907 328 878 246 q 936 493 936 410 q 905 664 936 582 q 819 809 874 746 q 688 910 764 872 q 525 947 613 947 q 356 908 432 947 q 226 804 281 868 q 142 659 172 740 q 113 493 113 578 m 421 1275 l 482 1275 l 569 1165 l 536 1147 l 421 1275 z "},"Ó":{"ha":1049,"x_min":64,"x_max":985,"o":"m 514 1147 l 481 1165 l 567 1275 l 629 1275 l 514 1147 m 525 -7 q 338 36 422 -7 q 192 149 253 79 q 97 308 131 218 q 64 493 64 399 q 99 682 64 592 q 197 842 135 772 q 342 952 258 911 q 525 993 426 993 q 713 949 628 993 q 858 835 797 906 q 951 674 918 764 q 985 493 985 585 q 949 303 985 393 q 852 144 914 213 q 706 34 790 75 q 525 -7 622 -7 m 113 493 q 143 322 113 404 q 228 177 174 240 q 359 76 283 114 q 525 39 435 39 q 694 78 618 39 q 824 182 769 118 q 907 328 878 246 q 936 493 936 410 q 905 664 936 582 q 819 809 874 746 q 688 910 764 872 q 525 947 613 947 q 356 908 432 947 q 226 804 281 868 q 142 659 172 740 q 113 493 113 578 z "},"Ô":{"ha":1049,"x_min":64,"x_max":985,"o":"m 376 1168 l 507 1275 l 543 1275 l 675 1168 l 643 1147 l 525 1235 l 407 1147 l 376 1168 m 525 -7 q 338 36 422 -7 q 192 149 253 79 q 97 308 131 218 q 64 493 64 399 q 99 682 64 592 q 197 842 135 772 q 342 952 258 911 q 525 993 426 993 q 713 949 628 993 q 858 835 797 906 q 951 674 918 764 q 985 493 985 585 q 949 303 985 393 q 852 144 914 213 q 706 34 790 75 q 525 -7 622 -7 m 113 493 q 143 322 113 404 q 228 177 174 240 q 359 76 283 114 q 525 39 435 39 q 694 78 618 39 q 824 182 769 118 q 907 328 878 246 q 936 493 936 410 q 905 664 936 582 q 819 809 874 746 q 688 910 764 872 q 525 947 613 947 q 356 908 432 947 q 226 804 281 868 q 142 659 172 740 q 113 493 113 578 z "},"Õ":{"ha":1049,"x_min":64,"x_max":985,"o":"m 525 -7 q 338 36 422 -7 q 192 149 253 79 q 97 308 131 218 q 64 493 64 399 q 99 682 64 592 q 197 842 135 772 q 342 952 258 911 q 525 993 426 993 q 713 949 628 993 q 858 835 797 906 q 951 674 918 764 q 985 493 985 585 q 949 303 985 393 q 852 144 914 213 q 706 34 790 75 q 525 -7 622 -7 m 113 493 q 143 322 113 404 q 228 177 174 240 q 359 76 283 114 q 525 39 435 39 q 694 78 618 39 q 824 182 769 118 q 907 328 878 246 q 936 493 936 410 q 905 664 936 582 q 819 809 874 746 q 688 910 764 872 q 525 947 613 947 q 356 908 432 947 q 226 804 281 868 q 142 659 172 740 q 113 493 113 578 m 610 1172 q 556 1181 579 1172 q 513 1199 533 1189 q 475 1217 493 1208 q 435 1225 457 1225 q 399 1216 413 1225 q 378 1195 385 1207 q 368 1172 371 1183 q 365 1158 365 1161 l 328 1158 q 331 1180 328 1163 q 347 1215 335 1197 q 380 1248 358 1233 q 438 1263 401 1263 q 486 1254 465 1263 q 526 1235 507 1246 q 565 1217 544 1225 q 611 1208 585 1208 q 656 1218 640 1208 q 681 1240 672 1228 q 691 1262 689 1251 q 693 1275 693 1272 l 729 1275 q 725 1253 729 1269 q 708 1218 721 1236 q 672 1186 696 1200 q 610 1172 649 1172 z "},"Ö":{"ha":1049,"x_min":64,"x_max":985,"o":"m 417 1160 l 417 1274 l 460 1274 l 460 1160 l 417 1160 m 592 1160 l 592 1274 l 635 1274 l 635 1160 l 592 1160 m 525 -7 q 338 36 422 -7 q 192 149 253 79 q 97 308 131 218 q 64 493 64 399 q 99 682 64 592 q 197 842 135 772 q 342 952 258 911 q 525 993 426 993 q 713 949 628 993 q 858 835 797 906 q 951 674 918 764 q 985 493 985 585 q 949 303 985 393 q 852 144 914 213 q 706 34 790 75 q 525 -7 622 -7 m 113 493 q 143 322 113 404 q 228 177 174 240 q 359 76 283 114 q 525 39 435 39 q 694 78 618 39 q 824 182 769 118 q 907 328 878 246 q 936 493 936 410 q 905 664 936 582 q 819 809 874 746 q 688 910 764 872 q 525 947 613 947 q 356 908 432 947 q 226 804 281 868 q 142 659 172 740 q 113 493 113 578 z "},"×":{"ha":618,"x_min":96,"x_max":524,"o":"m 524 194 l 492 163 l 308 344 l 126 163 l 96 196 l 276 376 l 96 558 l 128 590 l 308 408 l 492 592 l 522 558 l 340 376 l 524 194 z "},"Ø":{"ha":1049,"x_min":64,"x_max":985,"o":"m 872 986 l 807 886 q 938 708 890 813 q 985 493 985 603 q 949 303 985 393 q 852 144 914 213 q 706 34 790 75 q 525 -7 622 -7 q 392 14 454 -7 q 278 71 329 35 l 232 0 l 176 0 l 240 100 q 110 276 157 171 q 64 493 64 381 q 99 682 64 592 q 197 842 135 772 q 342 952 258 911 q 525 993 426 993 q 656 972 596 993 q 769 915 717 951 l 815 986 l 872 986 m 936 493 q 894 688 936 596 q 781 846 853 781 l 303 110 q 406 58 350 76 q 525 39 463 39 q 694 78 618 39 q 824 182 769 118 q 907 328 878 246 q 936 493 936 410 m 113 493 q 153 297 113 389 q 265 139 193 204 l 744 876 q 642 928 697 910 q 525 947 588 947 q 356 908 432 947 q 226 804 281 868 q 142 659 172 740 q 113 493 113 578 z "},"Ù":{"ha":1050,"x_min":118,"x_max":932,"o":"m 525 39 q 701 78 631 39 q 811 182 771 118 q 868 327 851 246 q 885 492 885 408 l 885 986 l 932 986 l 932 492 q 911 303 932 393 q 842 144 890 213 q 717 34 794 75 q 526 -7 640 -7 q 331 36 410 -7 q 206 149 253 79 q 138 309 158 219 q 118 492 118 399 l 118 986 l 167 986 l 167 492 q 183 324 167 406 q 242 180 200 243 q 352 78 283 117 q 525 39 421 39 m 422 1275 l 483 1275 l 571 1165 l 538 1147 l 422 1275 z "},"Ú":{"ha":1050,"x_min":118,"x_max":932,"o":"m 515 1147 l 482 1165 l 568 1275 l 631 1275 l 515 1147 m 525 39 q 701 78 631 39 q 811 182 771 118 q 868 327 851 246 q 885 492 885 408 l 885 986 l 932 986 l 932 492 q 911 303 932 393 q 842 144 890 213 q 717 34 794 75 q 526 -7 640 -7 q 331 36 410 -7 q 206 149 253 79 q 138 309 158 219 q 118 492 118 399 l 118 986 l 167 986 l 167 492 q 183 324 167 406 q 242 180 200 243 q 352 78 283 117 q 525 39 421 39 z "},"Û":{"ha":1050,"x_min":118,"x_max":932,"o":"m 378 1168 l 508 1275 l 544 1275 l 676 1168 l 644 1147 l 526 1235 l 408 1147 l 378 1168 m 525 39 q 701 78 631 39 q 811 182 771 118 q 868 327 851 246 q 885 492 885 408 l 885 986 l 932 986 l 932 492 q 911 303 932 393 q 842 144 890 213 q 717 34 794 75 q 526 -7 640 -7 q 331 36 410 -7 q 206 149 253 79 q 138 309 158 219 q 118 492 118 399 l 118 986 l 167 986 l 167 492 q 183 324 167 406 q 242 180 200 243 q 352 78 283 117 q 525 39 421 39 z "},"Ü":{"ha":1050,"x_min":118,"x_max":932,"o":"m 417 1160 l 417 1274 l 460 1274 l 460 1160 l 417 1160 m 592 1160 l 592 1274 l 635 1274 l 635 1160 l 592 1160 m 525 39 q 701 78 631 39 q 811 182 771 118 q 868 327 851 246 q 885 492 885 408 l 885 986 l 932 986 l 932 492 q 911 303 932 393 q 842 144 890 213 q 717 34 794 75 q 526 -7 640 -7 q 331 36 410 -7 q 206 149 253 79 q 138 309 158 219 q 118 492 118 399 l 118 986 l 167 986 l 167 492 q 183 324 167 406 q 242 180 200 243 q 352 78 283 117 q 525 39 421 39 z "},"Ý":{"ha":894,"x_min":29,"x_max":865,"o":"m 83 986 l 446 426 l 813 986 l 865 986 l 471 378 l 471 0 l 422 0 l 422 381 l 29 986 l 83 986 m 435 1147 l 401 1165 l 488 1275 l 550 1275 l 435 1147 z "},"Þ":{"ha":833,"x_min":133,"x_max":792,"o":"m 510 782 q 623 756 571 782 q 713 686 675 729 q 771 589 750 643 q 792 479 792 535 q 772 366 792 421 q 717 269 753 311 q 631 202 681 228 q 519 176 581 176 l 182 176 l 182 0 l 133 0 l 133 986 l 182 986 l 182 782 l 510 782 m 518 221 q 613 243 571 221 q 683 302 654 265 q 728 385 713 339 q 744 479 744 431 q 726 576 744 529 q 675 658 707 622 q 600 715 643 693 q 508 736 557 736 l 182 736 l 182 221 l 518 221 z "},"ß":{"ha":760,"x_min":113,"x_max":700,"o":"m 322 36 q 565 102 479 39 q 651 285 651 165 q 632 387 651 340 q 577 467 613 433 q 492 518 542 500 q 382 536 442 536 l 358 536 l 358 581 l 381 581 q 460 594 424 581 q 524 633 497 608 q 567 690 551 657 q 582 764 582 724 q 566 838 582 804 q 522 897 550 872 q 455 934 493 921 q 374 947 417 947 q 284 930 324 947 q 216 881 244 913 q 173 804 188 849 q 158 706 158 760 l 158 0 l 113 0 l 113 710 q 132 824 113 772 q 186 914 151 876 q 269 972 221 951 q 375 992 317 992 q 475 975 429 992 q 555 929 521 958 q 608 860 589 900 q 628 772 628 819 q 615 699 628 735 q 581 635 603 664 q 530 588 560 607 q 467 561 500 568 q 640 465 579 538 q 700 283 700 392 q 601 72 700 146 q 322 -8 503 -1 l 322 36 z "},"à":{"ha":736,"x_min":51,"x_max":657,"o":"m 288 -14 q 194 3 238 -14 q 119 51 151 21 q 69 121 88 81 q 51 208 51 161 q 74 292 51 254 q 135 358 96 331 q 230 401 175 386 q 350 417 285 417 q 473 407 411 417 q 585 378 535 397 l 585 456 q 523 628 585 564 q 357 693 461 693 q 244 670 304 693 q 125 604 185 647 l 103 639 q 360 733 242 733 q 559 658 486 733 q 632 453 632 583 l 632 75 q 657 44 632 44 l 657 0 q 649 -1 653 -1 q 643 -1 646 -1 q 603 16 619 -1 q 588 58 588 33 l 588 122 q 458 22 538 57 q 288 -14 379 -14 m 293 26 q 397 40 344 26 q 490 78 449 54 q 558 135 532 103 q 585 203 585 167 l 585 339 q 354 381 476 381 q 250 368 297 381 q 169 333 203 356 q 116 280 135 311 q 97 210 97 249 q 113 138 97 171 q 154 79 128 104 q 216 40 181 54 q 293 26 251 26 m 256 1014 l 317 1014 l 404 904 l 371 886 l 256 1014 z "},"á":{"ha":736,"x_min":51,"x_max":657,"o":"m 288 -14 q 194 3 238 -14 q 119 51 151 21 q 69 121 88 81 q 51 208 51 161 q 74 292 51 254 q 135 358 96 331 q 230 401 175 386 q 350 417 285 417 q 473 407 411 417 q 585 378 535 397 l 585 456 q 523 628 585 564 q 357 693 461 693 q 244 670 304 693 q 125 604 185 647 l 103 639 q 360 733 242 733 q 559 658 486 733 q 632 453 632 583 l 632 75 q 657 44 632 44 l 657 0 q 649 -1 653 -1 q 643 -1 646 -1 q 603 16 619 -1 q 588 58 588 33 l 588 122 q 458 22 538 57 q 288 -14 379 -14 m 293 26 q 397 40 344 26 q 490 78 449 54 q 558 135 532 103 q 585 203 585 167 l 585 339 q 354 381 476 381 q 250 368 297 381 q 169 333 203 356 q 116 280 135 311 q 97 210 97 249 q 113 138 97 171 q 154 79 128 104 q 216 40 181 54 q 293 26 251 26 m 349 886 l 315 904 l 401 1014 l 464 1014 l 349 886 z "},"â":{"ha":736,"x_min":51,"x_max":657,"o":"m 288 -14 q 194 3 238 -14 q 119 51 151 21 q 69 121 88 81 q 51 208 51 161 q 74 292 51 254 q 135 358 96 331 q 230 401 175 386 q 350 417 285 417 q 473 407 411 417 q 585 378 535 397 l 585 456 q 523 628 585 564 q 357 693 461 693 q 244 670 304 693 q 125 604 185 647 l 103 639 q 360 733 242 733 q 559 658 486 733 q 632 453 632 583 l 632 75 q 657 44 632 44 l 657 0 q 649 -1 653 -1 q 643 -1 646 -1 q 603 16 619 -1 q 588 58 588 33 l 588 122 q 458 22 538 57 q 288 -14 379 -14 m 293 26 q 397 40 344 26 q 490 78 449 54 q 558 135 532 103 q 585 203 585 167 l 585 339 q 354 381 476 381 q 250 368 297 381 q 169 333 203 356 q 116 280 135 311 q 97 210 97 249 q 113 138 97 171 q 154 79 128 104 q 216 40 181 54 q 293 26 251 26 m 211 907 l 342 1014 l 378 1014 l 510 907 l 478 886 l 360 974 l 242 886 l 211 907 z "},"ã":{"ha":736,"x_min":51,"x_max":657,"o":"m 288 -14 q 194 3 238 -14 q 119 51 151 21 q 69 121 88 81 q 51 208 51 161 q 74 292 51 254 q 135 358 96 331 q 230 401 175 386 q 350 417 285 417 q 473 407 411 417 q 585 378 535 397 l 585 456 q 523 628 585 564 q 357 693 461 693 q 244 670 304 693 q 125 604 185 647 l 103 639 q 360 733 242 733 q 559 658 486 733 q 632 453 632 583 l 632 75 q 657 44 632 44 l 657 0 q 649 -1 653 -1 q 643 -1 646 -1 q 603 16 619 -1 q 588 58 588 33 l 588 122 q 458 22 538 57 q 288 -14 379 -14 m 293 26 q 397 40 344 26 q 490 78 449 54 q 558 135 532 103 q 585 203 585 167 l 585 339 q 354 381 476 381 q 250 368 297 381 q 169 333 203 356 q 116 280 135 311 q 97 210 97 249 q 113 138 97 171 q 154 79 128 104 q 216 40 181 54 q 293 26 251 26 m 444 911 q 391 919 414 911 q 348 938 368 928 q 310 956 328 947 q 269 964 292 964 q 233 955 247 964 q 213 934 219 946 q 203 911 206 922 q 200 897 200 900 l 163 897 q 166 919 163 901 q 181 954 169 936 q 215 987 193 972 q 272 1001 236 1001 q 321 993 300 1001 q 360 974 342 985 q 399 956 379 964 q 446 947 419 947 q 491 957 475 947 q 515 978 507 967 q 526 1001 524 990 q 528 1014 528 1011 l 564 1014 q 560 992 564 1008 q 543 957 556 975 q 507 925 531 939 q 444 911 483 911 z "},"ä":{"ha":736,"x_min":51,"x_max":657,"o":"m 288 -14 q 194 3 238 -14 q 119 51 151 21 q 69 121 88 81 q 51 208 51 161 q 74 292 51 254 q 135 358 96 331 q 230 401 175 386 q 350 417 285 417 q 473 407 411 417 q 585 378 535 397 l 585 456 q 523 628 585 564 q 357 693 461 693 q 244 670 304 693 q 125 604 185 647 l 103 639 q 360 733 242 733 q 559 658 486 733 q 632 453 632 583 l 632 75 q 657 44 632 44 l 657 0 q 649 -1 653 -1 q 643 -1 646 -1 q 603 16 619 -1 q 588 58 588 33 l 588 122 q 458 22 538 57 q 288 -14 379 -14 m 293 26 q 397 40 344 26 q 490 78 449 54 q 558 135 532 103 q 585 203 585 167 l 585 339 q 354 381 476 381 q 250 368 297 381 q 169 333 203 356 q 116 280 135 311 q 97 210 97 249 q 113 138 97 171 q 154 79 128 104 q 216 40 181 54 q 293 26 251 26 m 250 899 l 250 1013 l 293 1013 l 293 899 l 250 899 m 425 899 l 425 1013 l 468 1013 l 468 899 l 425 899 z "},"å":{"ha":736,"x_min":51,"x_max":657,"o":"m 288 -14 q 194 3 238 -14 q 119 51 151 21 q 69 121 88 81 q 51 208 51 161 q 74 292 51 254 q 135 358 96 331 q 230 401 175 386 q 350 417 285 417 q 473 407 411 417 q 585 378 535 397 l 585 456 q 523 628 585 564 q 357 693 461 693 q 244 670 304 693 q 125 604 185 647 l 103 639 q 360 733 242 733 q 559 658 486 733 q 632 453 632 583 l 632 75 q 657 44 632 44 l 657 0 q 649 -1 653 -1 q 643 -1 646 -1 q 603 16 619 -1 q 588 58 588 33 l 588 122 q 458 22 538 57 q 288 -14 379 -14 m 293 26 q 397 40 344 26 q 490 78 449 54 q 558 135 532 103 q 585 203 585 167 l 585 339 q 354 381 476 381 q 250 368 297 381 q 169 333 203 356 q 116 280 135 311 q 97 210 97 249 q 113 138 97 171 q 154 79 128 104 q 216 40 181 54 q 293 26 251 26 m 274 932 q 298 991 274 968 q 358 1014 322 1014 q 420 991 396 1014 q 444 932 444 968 q 420 872 444 896 q 358 849 396 849 q 298 872 322 849 q 274 932 274 896 m 358 988 q 319 972 335 988 q 303 932 303 957 q 319 892 303 908 q 358 875 335 875 q 398 891 381 875 q 415 932 415 907 q 399 972 415 957 q 358 988 382 988 z "},"æ":{"ha":1290,"x_min":51,"x_max":1244,"o":"m 286 -14 q 194 3 238 -14 q 119 51 151 21 q 69 121 88 81 q 51 208 51 161 q 74 292 51 254 q 135 358 96 331 q 230 401 175 386 q 350 417 285 417 q 451 409 400 417 q 547 389 503 401 q 576 518 551 457 q 502 646 560 599 q 357 693 444 693 q 244 670 304 693 q 124 604 185 647 l 103 639 q 360 733 242 733 q 515 690 451 733 q 607 569 579 647 q 726 688 651 643 q 893 733 801 733 q 1031 704 967 733 q 1142 624 1094 675 q 1217 506 1189 574 q 1244 360 1244 438 q 1244 350 1244 358 q 1243 340 1243 342 l 593 340 q 624 216 597 274 q 692 117 650 158 q 787 51 733 75 q 901 26 840 26 q 978 37 940 26 q 1050 67 1017 47 q 1108 113 1083 86 q 1149 172 1133 140 l 1192 161 q 1147 91 1176 124 q 1078 35 1117 58 q 993 -1 1039 13 q 899 -14 947 -14 q 731 31 807 -14 q 608 151 656 76 q 549 76 586 107 q 469 25 513 44 q 377 -4 425 6 q 286 -14 329 -14 m 293 26 q 453 59 381 26 q 563 147 526 92 q 585 196 581 172 q 558 271 567 231 q 547 351 549 311 q 354 381 456 381 q 250 368 297 381 q 169 333 203 356 q 116 280 135 311 q 97 210 97 249 q 113 138 97 171 q 154 79 128 104 q 216 40 181 54 q 293 26 251 26 m 1197 378 q 1168 503 1193 446 q 1102 603 1143 561 q 1008 668 1061 644 q 893 692 954 692 q 778 668 832 692 q 685 603 725 644 q 620 503 644 561 q 593 378 596 446 l 1197 378 z "},"ç":{"ha":751,"x_min":61,"x_max":700,"o":"m 308 -174 q 360 -191 328 -183 q 429 -199 393 -199 q 490 -187 469 -199 q 510 -147 510 -175 q 491 -107 510 -118 q 442 -96 472 -96 q 381 -103 413 -96 q 329 -117 349 -110 l 388 -12 q 259 24 318 -7 q 156 106 200 56 q 86 223 111 157 q 61 364 61 289 q 88 509 61 442 q 161 626 114 576 q 273 705 208 676 q 413 733 338 733 q 581 690 507 733 q 690 569 654 646 l 644 553 q 547 653 610 617 q 408 689 485 689 q 291 664 346 689 q 195 595 236 639 q 131 492 154 551 q 108 364 108 432 q 133 235 108 296 q 198 129 157 175 q 294 57 239 83 q 410 31 349 31 q 490 42 450 31 q 563 74 529 54 q 620 119 596 93 q 653 174 644 144 l 700 160 q 661 92 688 124 q 598 38 635 61 q 517 1 561 15 q 428 -14 474 -12 l 390 -76 q 420 -69 404 -71 q 447 -68 436 -68 q 544 -146 544 -68 q 513 -210 544 -190 q 424 -231 482 -231 q 352 -223 386 -231 q 292 -204 318 -215 l 308 -174 z "},"è":{"ha":804,"x_min":61,"x_max":758,"o":"m 413 -14 q 275 16 339 -14 q 163 98 211 46 q 88 219 115 150 q 61 365 61 288 q 88 508 61 442 q 161 625 114 575 q 271 704 208 675 q 407 733 333 733 q 546 704 482 733 q 657 624 610 675 q 731 506 704 574 q 758 361 758 438 q 758 350 758 358 q 757 340 758 342 l 110 340 q 141 216 115 274 q 208 117 167 158 q 302 51 249 75 q 415 26 356 26 q 492 37 454 26 q 564 67 531 47 q 622 113 597 86 q 663 172 647 140 l 706 161 q 661 91 690 124 q 592 35 632 58 q 507 -1 553 13 q 413 -14 461 -14 m 711 381 q 682 506 707 449 q 616 604 657 563 q 522 669 575 646 q 408 692 469 692 q 294 668 347 692 q 202 603 242 644 q 138 504 163 561 q 110 381 114 447 l 711 381 m 303 1014 l 364 1014 l 451 904 l 418 886 l 303 1014 z "},"é":{"ha":804,"x_min":61,"x_max":758,"o":"m 396 886 l 363 904 l 449 1014 l 511 1014 l 396 886 m 413 -14 q 275 16 339 -14 q 163 98 211 46 q 88 219 115 150 q 61 365 61 288 q 88 508 61 442 q 161 625 114 575 q 271 704 208 675 q 407 733 333 733 q 546 704 482 733 q 657 624 610 675 q 731 506 704 574 q 758 361 758 438 q 758 350 758 358 q 757 340 758 342 l 110 340 q 141 216 115 274 q 208 117 167 158 q 302 51 249 75 q 415 26 356 26 q 492 37 454 26 q 564 67 531 47 q 622 113 597 86 q 663 172 647 140 l 706 161 q 661 91 690 124 q 592 35 632 58 q 507 -1 553 13 q 413 -14 461 -14 m 711 381 q 682 506 707 449 q 616 604 657 563 q 522 669 575 646 q 408 692 469 692 q 294 668 347 692 q 202 603 242 644 q 138 504 163 561 q 110 381 114 447 l 711 381 z "},"ê":{"ha":804,"x_min":61,"x_max":758,"o":"m 258 907 l 389 1014 l 425 1014 l 557 907 l 525 886 l 407 974 l 289 886 l 258 907 m 413 -14 q 275 16 339 -14 q 163 98 211 46 q 88 219 115 150 q 61 365 61 288 q 88 508 61 442 q 161 625 114 575 q 271 704 208 675 q 407 733 333 733 q 546 704 482 733 q 657 624 610 675 q 731 506 704 574 q 758 361 758 438 q 758 350 758 358 q 757 340 758 342 l 110 340 q 141 216 115 274 q 208 117 167 158 q 302 51 249 75 q 415 26 356 26 q 492 37 454 26 q 564 67 531 47 q 622 113 597 86 q 663 172 647 140 l 706 161 q 661 91 690 124 q 592 35 632 58 q 507 -1 553 13 q 413 -14 461 -14 m 711 381 q 682 506 707 449 q 616 604 657 563 q 522 669 575 646 q 408 692 469 692 q 294 668 347 692 q 202 603 242 644 q 138 504 163 561 q 110 381 114 447 l 711 381 z "},"ë":{"ha":804,"x_min":61,"x_max":758,"o":"m 299 899 l 299 1013 l 342 1013 l 342 899 l 299 899 m 474 899 l 474 1013 l 517 1013 l 517 899 l 474 899 m 413 -14 q 275 16 339 -14 q 163 98 211 46 q 88 219 115 150 q 61 365 61 288 q 88 508 61 442 q 161 625 114 575 q 271 704 208 675 q 407 733 333 733 q 546 704 482 733 q 657 624 610 675 q 731 506 704 574 q 758 361 758 438 q 758 350 758 358 q 757 340 758 342 l 110 340 q 141 216 115 274 q 208 117 167 158 q 302 51 249 75 q 415 26 356 26 q 492 37 454 26 q 564 67 531 47 q 622 113 597 86 q 663 172 647 140 l 706 161 q 661 91 690 124 q 592 35 632 58 q 507 -1 553 13 q 413 -14 461 -14 m 711 381 q 682 506 707 449 q 616 604 657 563 q 522 669 575 646 q 408 692 469 692 q 294 668 347 692 q 202 603 242 644 q 138 504 163 561 q 110 381 114 447 l 711 381 z "},"ì":{"ha":274,"x_min":32,"x_max":181,"o":"m 113 0 l 113 722 l 160 722 l 160 0 l 113 0 m 32 1014 l 93 1014 l 181 904 l 147 886 l 32 1014 z "},"ı":{"ha":274,"x_min":113,"x_max":160,"o":"m 113 0 l 113 722 l 160 722 l 160 0 l 113 0 z "},"í":{"ha":274,"x_min":92,"x_max":240,"o":"m 125 886 l 92 904 l 178 1014 l 240 1014 l 125 886 m 113 0 l 113 722 l 160 722 l 160 0 l 113 0 z "},"î":{"ha":274,"x_min":-12,"x_max":286,"o":"m -12 907 l 118 1014 l 154 1014 l 286 907 l 254 886 l 136 974 l 18 886 l -12 907 m 113 0 l 113 722 l 160 722 l 160 0 l 113 0 z "},"ï":{"ha":274,"x_min":28,"x_max":246,"o":"m 28 899 l 28 1013 l 71 1013 l 71 899 l 28 899 m 203 899 l 203 1013 l 246 1013 l 246 899 l 203 899 m 113 0 l 113 722 l 160 722 l 160 0 l 113 0 z "},"ð":{"ha":828,"x_min":64,"x_max":760,"o":"m 664 964 l 539 883 q 651 756 608 821 q 719 624 694 690 q 751 490 743 557 q 760 354 760 422 q 732 210 760 276 q 656 93 704 143 q 545 15 608 43 q 410 -14 482 -14 q 276 13 339 -14 q 165 85 213 39 q 91 192 118 131 q 64 322 64 253 q 91 452 64 390 q 165 560 118 514 q 274 633 213 606 q 407 660 336 660 q 506 646 458 660 q 592 606 553 632 q 663 546 632 581 q 713 469 693 511 q 694 566 707 517 q 658 664 682 615 q 598 763 635 713 q 506 863 561 813 l 338 756 l 318 782 l 481 885 q 396 949 442 917 q 293 1014 350 982 l 361 1014 q 444 960 406 986 q 515 906 482 933 l 644 990 l 664 964 m 113 321 q 136 208 113 261 q 200 116 160 156 q 294 53 240 76 q 410 31 349 31 q 527 56 472 31 q 623 123 582 81 q 688 222 664 165 q 713 340 713 278 q 688 447 713 397 q 623 535 664 497 q 528 594 582 572 q 413 617 474 617 q 297 593 351 617 q 201 529 242 569 q 136 435 160 489 q 113 321 113 381 z "},"ñ":{"ha":792,"x_min":113,"x_max":688,"o":"m 688 0 l 640 0 l 640 403 q 598 620 640 551 q 464 689 556 689 q 367 671 415 689 q 277 621 318 653 q 205 546 236 589 q 160 451 174 503 l 160 0 l 113 0 l 113 722 l 158 722 l 158 542 q 214 620 181 585 q 289 681 247 656 q 377 719 331 706 q 472 733 424 733 q 637 652 586 733 q 688 408 688 571 l 688 0 m 481 911 q 427 919 450 911 q 384 938 404 928 q 346 956 364 947 q 306 964 328 964 q 269 955 283 964 q 249 934 256 946 q 239 911 242 922 q 236 897 236 900 l 199 897 q 202 919 199 901 q 217 954 206 936 q 251 987 229 972 q 308 1001 272 1001 q 357 993 336 1001 q 397 974 378 985 q 435 956 415 964 q 482 947 456 947 q 527 957 511 947 q 551 978 543 967 q 562 1001 560 990 q 564 1014 564 1011 l 600 1014 q 596 992 600 1008 q 579 957 592 975 q 543 925 567 939 q 481 911 519 911 z "},"ò":{"ha":818,"x_min":61,"x_max":757,"o":"m 408 -14 q 272 16 335 -14 q 161 97 208 46 q 88 215 114 147 q 61 358 61 283 q 88 503 61 435 q 163 622 115 571 q 273 703 210 674 q 408 733 336 733 q 544 703 481 733 q 656 622 608 674 q 730 503 703 571 q 757 358 757 435 q 730 215 757 283 q 656 97 703 147 q 546 16 610 46 q 408 -14 482 -14 m 108 357 q 132 231 108 290 q 196 126 156 171 q 291 56 236 82 q 407 31 346 31 q 524 57 469 31 q 620 128 579 83 q 685 233 661 172 q 708 360 708 293 q 685 487 708 426 q 620 592 661 547 q 524 663 579 636 q 408 689 469 689 q 293 663 347 689 q 198 591 239 636 q 133 485 157 546 q 108 357 108 425 m 304 1014 l 365 1014 l 453 904 l 419 886 l 304 1014 z "},"ó":{"ha":818,"x_min":61,"x_max":757,"o":"m 397 886 l 364 904 l 450 1014 l 513 1014 l 397 886 m 408 -14 q 272 16 335 -14 q 161 97 208 46 q 88 215 114 147 q 61 358 61 283 q 88 503 61 435 q 163 622 115 571 q 273 703 210 674 q 408 733 336 733 q 544 703 481 733 q 656 622 608 674 q 730 503 703 571 q 757 358 757 435 q 730 215 757 283 q 656 97 703 147 q 546 16 610 46 q 408 -14 482 -14 m 108 357 q 132 231 108 290 q 196 126 156 171 q 291 56 236 82 q 407 31 346 31 q 524 57 469 31 q 620 128 579 83 q 685 233 661 172 q 708 360 708 293 q 685 487 708 426 q 620 592 661 547 q 524 663 579 636 q 408 689 469 689 q 293 663 347 689 q 198 591 239 636 q 133 485 157 546 q 108 357 108 425 z "},"ô":{"ha":818,"x_min":61,"x_max":757,"o":"m 260 907 l 390 1014 l 426 1014 l 558 907 l 526 886 l 408 974 l 290 886 l 260 907 m 408 -14 q 272 16 335 -14 q 161 97 208 46 q 88 215 114 147 q 61 358 61 283 q 88 503 61 435 q 163 622 115 571 q 273 703 210 674 q 408 733 336 733 q 544 703 481 733 q 656 622 608 674 q 730 503 703 571 q 757 358 757 435 q 730 215 757 283 q 656 97 703 147 q 546 16 610 46 q 408 -14 482 -14 m 108 357 q 132 231 108 290 q 196 126 156 171 q 291 56 236 82 q 407 31 346 31 q 524 57 469 31 q 620 128 579 83 q 685 233 661 172 q 708 360 708 293 q 685 487 708 426 q 620 592 661 547 q 524 663 579 636 q 408 689 469 689 q 293 663 347 689 q 198 591 239 636 q 133 485 157 546 q 108 357 108 425 z "},"õ":{"ha":818,"x_min":61,"x_max":757,"o":"m 408 -14 q 272 16 335 -14 q 161 97 208 46 q 88 215 114 147 q 61 358 61 283 q 88 503 61 435 q 163 622 115 571 q 273 703 210 674 q 408 733 336 733 q 544 703 481 733 q 656 622 608 674 q 730 503 703 571 q 757 358 757 435 q 730 215 757 283 q 656 97 703 147 q 546 16 610 46 q 408 -14 482 -14 m 108 357 q 132 231 108 290 q 196 126 156 171 q 291 56 236 82 q 407 31 346 31 q 524 57 469 31 q 620 128 579 83 q 685 233 661 172 q 708 360 708 293 q 685 487 708 426 q 620 592 661 547 q 524 663 579 636 q 408 689 469 689 q 293 663 347 689 q 198 591 239 636 q 133 485 157 546 q 108 357 108 425 m 493 911 q 440 919 463 911 q 397 938 417 928 q 358 956 376 947 q 318 964 340 964 q 282 955 296 964 q 261 934 268 946 q 251 911 254 922 q 249 897 249 900 l 211 897 q 215 919 211 901 q 230 954 218 936 q 263 987 242 972 q 321 1001 285 1001 q 369 993 349 1001 q 409 974 390 985 q 448 956 428 964 q 494 947 468 947 q 540 957 524 947 q 564 978 556 967 q 574 1001 572 990 q 576 1014 576 1011 l 613 1014 q 608 992 613 1008 q 592 957 604 975 q 556 925 579 939 q 493 911 532 911 z "},"ö":{"ha":818,"x_min":61,"x_max":757,"o":"m 300 899 l 300 1013 l 343 1013 l 343 899 l 300 899 m 475 899 l 475 1013 l 518 1013 l 518 899 l 475 899 m 408 -14 q 272 16 335 -14 q 161 97 208 46 q 88 215 114 147 q 61 358 61 283 q 88 503 61 435 q 163 622 115 571 q 273 703 210 674 q 408 733 336 733 q 544 703 481 733 q 656 622 608 674 q 730 503 703 571 q 757 358 757 435 q 730 215 757 283 q 656 97 703 147 q 546 16 610 46 q 408 -14 482 -14 m 108 357 q 132 231 108 290 q 196 126 156 171 q 291 56 236 82 q 407 31 346 31 q 524 57 469 31 q 620 128 579 83 q 685 233 661 172 q 708 360 708 293 q 685 487 708 426 q 620 592 661 547 q 524 663 579 636 q 408 689 469 689 q 293 663 347 689 q 198 591 239 636 q 133 485 157 546 q 108 357 108 425 z "},"÷":{"ha":754,"x_min":99,"x_max":658,"o":"m 356 540 l 356 640 l 399 640 l 399 540 l 356 540 m 356 121 l 356 219 l 399 219 l 399 121 l 356 121 m 99 360 l 99 403 l 658 403 l 658 360 l 99 360 z "},"ø":{"ha":818,"x_min":61,"x_max":757,"o":"m 158 0 l 200 60 q 99 190 136 113 q 61 358 61 267 q 88 503 61 435 q 163 622 115 571 q 273 703 210 674 q 408 733 336 733 q 503 719 457 733 q 589 678 549 704 l 617 722 l 661 722 l 618 656 q 719 526 681 603 q 757 358 757 449 q 730 215 757 283 q 656 97 703 147 q 546 16 610 46 q 408 -14 482 -14 q 228 40 310 -14 l 201 0 l 158 0 m 108 357 q 140 210 108 278 q 225 99 172 143 l 564 640 q 490 676 529 664 q 408 689 451 689 q 293 663 347 689 q 198 591 239 636 q 133 485 157 546 q 108 357 108 425 m 407 31 q 524 57 469 31 q 620 128 579 83 q 685 233 661 172 q 708 360 708 293 q 677 505 708 438 q 593 617 646 572 l 253 78 q 407 31 321 31 z "},"ù":{"ha":807,"x_min":106,"x_max":717,"o":"m 336 -14 q 164 68 222 -14 q 106 311 106 150 l 106 722 l 153 722 l 153 317 q 346 31 153 31 q 442 48 394 31 q 528 96 489 65 q 598 169 568 126 q 644 264 628 213 l 644 722 l 692 722 l 692 75 q 717 44 692 44 l 717 0 q 703 -1 711 -1 q 664 16 681 -1 q 647 58 647 33 l 647 178 q 517 38 600 89 q 336 -14 433 -14 m 292 1014 l 353 1014 l 440 904 l 407 886 l 292 1014 z "},"ú":{"ha":807,"x_min":106,"x_max":717,"o":"m 383 886 l 350 904 l 436 1014 l 499 1014 l 383 886 m 336 -14 q 164 68 222 -14 q 106 311 106 150 l 106 722 l 153 722 l 153 317 q 346 31 153 31 q 442 48 394 31 q 528 96 489 65 q 598 169 568 126 q 644 264 628 213 l 644 722 l 692 722 l 692 75 q 717 44 692 44 l 717 0 q 703 -1 711 -1 q 664 16 681 -1 q 647 58 647 33 l 647 178 q 517 38 600 89 q 336 -14 433 -14 z "},"û":{"ha":807,"x_min":106,"x_max":717,"o":"m 246 907 l 376 1014 l 413 1014 l 544 907 l 513 886 l 394 974 l 276 886 l 246 907 m 336 -14 q 164 68 222 -14 q 106 311 106 150 l 106 722 l 153 722 l 153 317 q 346 31 153 31 q 442 48 394 31 q 528 96 489 65 q 598 169 568 126 q 644 264 628 213 l 644 722 l 692 722 l 692 75 q 717 44 692 44 l 717 0 q 703 -1 711 -1 q 664 16 681 -1 q 647 58 647 33 l 647 178 q 517 38 600 89 q 336 -14 433 -14 z "},"ü":{"ha":807,"x_min":106,"x_max":717,"o":"m 286 899 l 286 1013 l 329 1013 l 329 899 l 286 899 m 461 899 l 461 1013 l 504 1013 l 504 899 l 461 899 m 336 -14 q 164 68 222 -14 q 106 311 106 150 l 106 722 l 153 722 l 153 317 q 346 31 153 31 q 442 48 394 31 q 528 96 489 65 q 598 169 568 126 q 644 264 628 213 l 644 722 l 692 722 l 692 75 q 717 44 692 44 l 717 0 q 703 -1 711 -1 q 664 16 681 -1 q 647 58 647 33 l 647 178 q 517 38 600 89 q 336 -14 433 -14 z "},"ý":{"ha":747,"x_min":26,"x_max":714,"o":"m 168 -264 q 233 -254 215 -264 q 248 -240 240 -250 q 268 -202 256 -229 q 301 -127 281 -175 q 356 0 322 -79 l 26 722 l 76 722 l 381 50 l 667 722 l 714 722 l 301 -244 q 225 -304 282 -292 q 197 -308 211 -307 q 168 -308 183 -308 l 168 -264 m 369 886 l 336 904 l 422 1014 l 485 1014 l 369 886 z "},"þ":{"ha":838,"x_min":113,"x_max":776,"o":"m 776 358 q 748 217 775 285 q 674 97 721 149 q 565 14 628 44 q 428 -17 501 -17 q 347 -5 386 -17 q 272 28 307 7 q 209 76 238 49 q 161 136 181 104 l 161 -296 l 113 -296 l 113 986 l 161 986 l 161 567 q 279 686 211 639 q 440 733 347 733 q 582 700 519 733 q 688 613 644 667 q 753 492 731 560 q 776 358 776 425 m 729 358 q 708 482 729 422 q 649 588 688 542 q 556 661 610 633 q 439 689 503 689 q 348 672 390 689 q 270 628 306 656 q 208 566 235 601 q 161 492 181 531 l 161 236 q 188 157 161 194 q 253 91 214 119 q 340 46 293 63 q 426 29 386 29 q 549 58 493 29 q 644 132 604 86 q 707 237 685 178 q 729 358 729 296 z "},"ÿ":{"ha":747,"x_min":26,"x_max":714,"o":"m 168 -264 q 233 -254 215 -264 q 248 -240 240 -250 q 268 -202 256 -229 q 301 -127 281 -175 q 356 0 322 -79 l 26 722 l 76 722 l 381 50 l 667 722 l 714 722 l 301 -244 q 225 -304 282 -292 q 197 -308 211 -307 q 168 -308 183 -308 l 168 -264 m 271 899 l 271 1013 l 314 1013 l 314 899 l 271 899 m 446 899 l 446 1013 l 489 1013 l 489 899 l 446 899 z "},"Ā":{"ha":938,"x_min":22,"x_max":913,"o":"m 447 986 l 489 986 l 913 0 l 861 0 l 715 340 l 221 340 l 75 0 l 22 0 l 447 986 m 700 382 l 468 925 l 235 382 l 700 382 m 272 1204 l 272 1243 l 665 1243 l 665 1204 l 272 1204 z "},"ā":{"ha":736,"x_min":51,"x_max":657,"o":"m 288 -14 q 194 3 238 -14 q 119 51 151 21 q 69 121 88 81 q 51 208 51 161 q 74 292 51 254 q 135 358 96 331 q 230 401 175 386 q 350 417 285 417 q 473 407 411 417 q 585 378 535 397 l 585 456 q 523 628 585 564 q 357 693 461 693 q 244 670 304 693 q 125 604 185 647 l 103 639 q 360 733 242 733 q 559 658 486 733 q 632 453 632 583 l 632 75 q 657 44 632 44 l 657 0 q 649 -1 653 -1 q 643 -1 646 -1 q 603 16 619 -1 q 588 58 588 33 l 588 122 q 458 22 538 57 q 288 -14 379 -14 m 293 26 q 397 40 344 26 q 490 78 449 54 q 558 135 532 103 q 585 203 585 167 l 585 339 q 354 381 476 381 q 250 368 297 381 q 169 333 203 356 q 116 280 135 311 q 97 210 97 249 q 113 138 97 171 q 154 79 128 104 q 216 40 181 54 q 293 26 251 26 m 163 943 l 163 982 l 556 982 l 556 943 l 163 943 z "},"Ă":{"ha":938,"x_min":22,"x_max":913,"o":"m 447 986 l 489 986 l 913 0 l 861 0 l 715 340 l 221 340 l 75 0 l 22 0 l 447 986 m 700 382 l 468 925 l 235 382 l 700 382 m 468 1189 q 519 1214 496 1189 q 546 1275 542 1239 l 581 1275 q 572 1230 581 1251 q 547 1192 563 1208 q 510 1167 531 1176 q 468 1158 490 1158 q 424 1167 444 1158 q 389 1192 404 1176 q 365 1230 374 1208 q 356 1275 356 1251 l 392 1275 q 415 1216 392 1243 q 468 1189 439 1189 z "},"˘":{"ha":358,"x_min":67,"x_max":292,"o":"m 179 928 q 230 953 207 928 q 257 1014 253 978 l 292 1014 q 283 969 292 990 q 258 931 274 947 q 222 906 242 915 q 179 897 201 897 q 135 906 156 897 q 100 931 115 915 q 76 969 85 947 q 67 1014 67 990 l 103 1014 q 126 955 103 982 q 179 928 150 928 z "},"ă":{"ha":736,"x_min":51,"x_max":657,"o":"m 288 -14 q 194 3 238 -14 q 119 51 151 21 q 69 121 88 81 q 51 208 51 161 q 74 292 51 254 q 135 358 96 331 q 230 401 175 386 q 350 417 285 417 q 473 407 411 417 q 585 378 535 397 l 585 456 q 523 628 585 564 q 357 693 461 693 q 244 670 304 693 q 125 604 185 647 l 103 639 q 360 733 242 733 q 559 658 486 733 q 632 453 632 583 l 632 75 q 657 44 632 44 l 657 0 q 649 -1 653 -1 q 643 -1 646 -1 q 603 16 619 -1 q 588 58 588 33 l 588 122 q 458 22 538 57 q 288 -14 379 -14 m 293 26 q 397 40 344 26 q 490 78 449 54 q 558 135 532 103 q 585 203 585 167 l 585 339 q 354 381 476 381 q 250 368 297 381 q 169 333 203 356 q 116 280 135 311 q 97 210 97 249 q 113 138 97 171 q 154 79 128 104 q 216 40 181 54 q 293 26 251 26 m 360 928 q 410 953 388 928 q 438 1014 433 978 l 472 1014 q 463 969 472 990 q 438 931 454 947 q 402 906 422 915 q 360 897 382 897 q 316 906 336 897 q 281 931 296 915 q 256 969 265 947 q 247 1014 247 990 l 283 1014 q 307 955 283 982 q 360 928 331 928 z "},"Ą":{"ha":936,"x_min":21,"x_max":911,"o":"m 843 -228 q 782 -194 803 -218 q 761 -137 761 -171 q 784 -72 761 -104 q 860 0 807 -39 l 714 340 l 219 340 l 74 0 l 21 0 l 446 986 l 488 986 l 911 0 q 823 -71 849 -42 q 797 -131 797 -100 q 863 -196 797 -183 l 843 -228 m 699 382 l 467 925 l 233 382 l 699 382 z "},"˛":{"ha":297,"x_min":69,"x_max":219,"o":"m 151 -228 q 90 -194 111 -218 q 69 -137 69 -171 q 99 -63 69 -100 q 199 21 129 -26 l 219 0 q 131 -71 157 -42 q 106 -131 106 -100 q 171 -196 106 -183 l 151 -228 l 151 -228 z "},"ą":{"ha":736,"x_min":51,"x_max":657,"o":"m 589 -228 q 528 -194 549 -218 q 507 -137 507 -171 q 532 -69 507 -103 q 615 6 557 -35 q 588 58 588 24 l 588 122 q 458 22 538 57 q 288 -14 379 -14 q 194 3 238 -14 q 119 51 151 21 q 69 121 88 81 q 51 208 51 161 q 74 292 51 254 q 135 358 96 331 q 230 401 175 386 q 350 417 285 417 q 473 407 411 417 q 585 378 535 397 l 585 456 q 523 628 585 564 q 357 693 461 693 q 244 670 304 693 q 125 604 185 647 l 103 639 q 360 733 242 733 q 559 658 486 733 q 632 453 632 583 l 632 75 q 657 44 632 44 l 657 0 q 569 -71 594 -42 q 543 -131 543 -100 q 608 -196 543 -183 l 589 -228 m 293 26 q 397 40 344 26 q 490 78 449 54 q 558 135 532 103 q 585 203 585 167 l 585 339 q 354 381 476 381 q 250 368 297 381 q 169 333 203 356 q 116 280 135 311 q 97 210 97 249 q 113 138 97 171 q 154 79 128 104 q 216 40 181 54 q 293 26 251 26 z "},"Ć":{"ha":964,"x_min":64,"x_max":914,"o":"m 517 1147 l 483 1165 l 569 1275 l 632 1275 l 517 1147 m 64 500 q 95 676 64 589 q 186 834 126 764 q 333 948 246 904 q 531 992 419 992 q 755 931 663 992 q 892 776 847 871 l 850 757 q 785 846 822 810 q 706 904 749 882 q 617 936 663 926 q 525 946 571 946 q 349 906 426 946 q 219 803 272 867 q 140 658 167 739 q 113 496 113 578 q 144 322 113 406 q 233 176 176 239 q 365 75 289 113 q 529 38 442 38 q 625 49 576 38 q 719 85 674 61 q 804 147 765 110 q 871 238 843 185 l 914 221 q 846 122 889 165 q 750 50 803 79 q 638 6 697 21 q 524 -8 579 -8 q 338 36 422 -8 q 193 152 254 81 q 98 315 132 224 q 64 500 64 406 z "},"ć":{"ha":751,"x_min":61,"x_max":700,"o":"m 397 886 l 364 904 l 450 1014 l 513 1014 l 397 886 m 61 364 q 88 509 61 442 q 161 626 114 576 q 273 705 208 676 q 413 733 338 733 q 581 690 507 733 q 690 569 654 646 l 644 553 q 547 653 610 617 q 408 689 485 689 q 291 664 346 689 q 195 595 236 639 q 131 492 154 551 q 108 364 108 432 q 133 235 108 296 q 198 129 157 175 q 294 57 239 83 q 410 31 349 31 q 490 42 450 31 q 563 74 529 54 q 620 119 596 93 q 653 174 644 144 l 700 160 q 659 90 688 122 q 592 35 631 58 q 508 -1 554 13 q 414 -14 463 -14 q 276 16 340 -14 q 165 97 213 46 q 89 217 117 149 q 61 364 61 286 z "},"Ĉ":{"ha":964,"x_min":64,"x_max":914,"o":"m 379 1168 l 510 1275 l 546 1275 l 678 1168 l 646 1147 l 528 1235 l 410 1147 l 379 1168 m 64 500 q 95 676 64 589 q 186 834 126 764 q 333 948 246 904 q 531 992 419 992 q 755 931 663 992 q 892 776 847 871 l 850 757 q 785 846 822 810 q 706 904 749 882 q 617 936 663 926 q 525 946 571 946 q 349 906 426 946 q 219 803 272 867 q 140 658 167 739 q 113 496 113 578 q 144 322 113 406 q 233 176 176 239 q 365 75 289 113 q 529 38 442 38 q 625 49 576 38 q 719 85 674 61 q 804 147 765 110 q 871 238 843 185 l 914 221 q 846 122 889 165 q 750 50 803 79 q 638 6 697 21 q 524 -8 579 -8 q 338 36 422 -8 q 193 152 254 81 q 98 315 132 224 q 64 500 64 406 z "},"ĉ":{"ha":751,"x_min":61,"x_max":700,"o":"m 260 907 l 390 1014 l 426 1014 l 558 907 l 526 886 l 408 974 l 290 886 l 260 907 m 61 364 q 88 509 61 442 q 161 626 114 576 q 273 705 208 676 q 413 733 338 733 q 581 690 507 733 q 690 569 654 646 l 644 553 q 547 653 610 617 q 408 689 485 689 q 291 664 346 689 q 195 595 236 639 q 131 492 154 551 q 108 364 108 432 q 133 235 108 296 q 198 129 157 175 q 294 57 239 83 q 410 31 349 31 q 490 42 450 31 q 563 74 529 54 q 620 119 596 93 q 653 174 644 144 l 700 160 q 659 90 688 122 q 592 35 631 58 q 508 -1 554 13 q 414 -14 463 -14 q 276 16 340 -14 q 165 97 213 46 q 89 217 117 149 q 61 364 61 286 z "},"Ċ":{"ha":964,"x_min":64,"x_max":914,"o":"m 64 500 q 95 676 64 589 q 186 834 126 764 q 333 948 246 904 q 531 992 419 992 q 755 931 663 992 q 892 776 847 871 l 850 757 q 785 846 822 810 q 706 904 749 882 q 617 936 663 926 q 525 946 571 946 q 349 906 426 946 q 219 803 272 867 q 140 658 167 739 q 113 496 113 578 q 144 322 113 406 q 233 176 176 239 q 365 75 289 113 q 529 38 442 38 q 625 49 576 38 q 719 85 674 61 q 804 147 765 110 q 871 238 843 185 l 914 221 q 846 122 889 165 q 750 50 803 79 q 638 6 697 21 q 524 -8 579 -8 q 338 36 422 -8 q 193 152 254 81 q 98 315 132 224 q 64 500 64 406 m 506 1160 l 506 1275 l 550 1275 l 550 1160 l 506 1160 z "},"˙":{"ha":183,"x_min":69,"x_max":114,"o":"m 69 899 l 69 1014 l 114 1014 l 114 899 l 69 899 z "},"ċ":{"ha":751,"x_min":61,"x_max":700,"o":"m 61 364 q 88 509 61 442 q 161 626 114 576 q 273 705 208 676 q 413 733 338 733 q 581 690 507 733 q 690 569 654 646 l 644 553 q 547 653 610 617 q 408 689 485 689 q 291 664 346 689 q 195 595 236 639 q 131 492 154 551 q 108 364 108 432 q 133 235 108 296 q 198 129 157 175 q 294 57 239 83 q 410 31 349 31 q 490 42 450 31 q 563 74 529 54 q 620 119 596 93 q 653 174 644 144 l 700 160 q 659 90 688 122 q 592 35 631 58 q 508 -1 554 13 q 414 -14 463 -14 q 276 16 340 -14 q 165 97 213 46 q 89 217 117 149 q 61 364 61 286 m 386 899 l 386 1014 l 431 1014 l 431 899 l 386 899 z "},"Č":{"ha":964,"x_min":64,"x_max":914,"o":"m 410 1275 l 528 1188 l 646 1275 l 678 1256 l 546 1147 l 510 1147 l 379 1256 l 410 1275 m 64 500 q 95 676 64 589 q 186 834 126 764 q 333 948 246 904 q 531 992 419 992 q 755 931 663 992 q 892 776 847 871 l 850 757 q 785 846 822 810 q 706 904 749 882 q 617 936 663 926 q 525 946 571 946 q 349 906 426 946 q 219 803 272 867 q 140 658 167 739 q 113 496 113 578 q 144 322 113 406 q 233 176 176 239 q 365 75 289 113 q 529 38 442 38 q 625 49 576 38 q 719 85 674 61 q 804 147 765 110 q 871 238 843 185 l 914 221 q 846 122 889 165 q 750 50 803 79 q 638 6 697 21 q 524 -8 579 -8 q 338 36 422 -8 q 193 152 254 81 q 98 315 132 224 q 64 500 64 406 z "},"ˇ":{"ha":431,"x_min":67,"x_max":365,"o":"m 97 1014 l 215 926 l 333 1014 l 365 994 l 233 886 l 197 886 l 67 994 l 97 1014 z "},"č":{"ha":751,"x_min":61,"x_max":700,"o":"m 290 1014 l 408 926 l 526 1014 l 558 994 l 426 886 l 390 886 l 260 994 l 290 1014 m 61 364 q 88 509 61 442 q 161 626 114 576 q 273 705 208 676 q 413 733 338 733 q 581 690 507 733 q 690 569 654 646 l 644 553 q 547 653 610 617 q 408 689 485 689 q 291 664 346 689 q 195 595 236 639 q 131 492 154 551 q 108 364 108 432 q 133 235 108 296 q 198 129 157 175 q 294 57 239 83 q 410 31 349 31 q 490 42 450 31 q 563 74 529 54 q 620 119 596 93 q 653 174 644 144 l 700 160 q 659 90 688 122 q 592 35 631 58 q 508 -1 554 13 q 414 -14 463 -14 q 276 16 340 -14 q 165 97 213 46 q 89 217 117 149 q 61 364 61 286 z "},"Ď":{"ha":989,"x_min":133,"x_max":921,"o":"m 368 1275 l 486 1188 l 604 1275 l 636 1256 l 504 1147 l 468 1147 l 338 1256 l 368 1275 m 133 0 l 133 986 l 456 986 q 660 947 572 986 q 805 842 747 908 q 892 685 863 775 q 921 494 921 596 q 888 291 921 382 q 795 135 856 200 q 649 35 735 71 q 456 0 563 0 l 133 0 m 872 494 q 845 674 872 592 q 765 815 818 756 q 633 908 711 875 q 456 942 556 942 l 182 942 l 182 44 l 456 44 q 636 78 558 44 q 767 173 714 113 q 846 316 819 233 q 872 494 872 399 z "},"ď":{"ha":846,"x_min":61,"x_max":936,"o":"m 821 886 l 788 904 l 874 1014 l 936 1014 l 821 886 m 408 -14 q 269 18 333 -14 q 159 102 206 50 q 87 221 113 154 q 61 358 61 288 q 86 501 61 433 q 156 621 111 569 q 261 703 200 672 q 394 733 322 733 q 486 719 443 733 q 566 681 529 706 q 633 625 603 657 q 683 558 663 593 l 683 1014 l 731 1014 l 731 75 q 756 44 731 44 l 756 0 q 744 -1 751 -1 q 703 17 719 -1 q 686 60 686 36 l 686 147 q 633 81 664 111 q 565 31 601 51 q 489 -2 529 10 q 408 -14 449 -14 m 414 31 q 500 47 454 31 q 585 92 546 64 q 652 159 625 121 q 683 239 679 197 l 683 488 q 638 566 668 529 q 569 630 608 603 q 487 673 531 657 q 401 689 443 689 q 281 660 335 689 q 189 585 226 632 q 131 480 151 539 q 110 358 110 421 q 133 234 110 293 q 198 130 157 175 q 294 58 239 85 q 414 31 350 31 z "},"Đ":{"ha":999,"x_min":49,"x_max":931,"o":"m 143 0 l 143 475 l 49 475 l 49 517 l 143 517 l 143 986 l 465 986 q 669 947 582 986 q 815 842 757 908 q 901 685 872 775 q 931 494 931 596 q 898 291 931 382 q 805 135 865 200 q 658 35 744 71 q 465 0 572 0 l 143 0 m 882 494 q 855 674 882 592 q 774 815 828 756 q 643 908 721 875 q 465 942 565 942 l 192 942 l 192 517 l 449 517 l 449 475 l 192 475 l 192 44 l 465 44 q 646 78 568 44 q 776 173 724 113 q 856 316 829 233 q 882 494 882 399 z "},"đ":{"ha":846,"x_min":61,"x_max":833,"o":"m 408 -14 q 269 18 333 -14 q 159 102 206 50 q 87 221 113 154 q 61 358 61 288 q 86 501 61 433 q 156 621 111 569 q 261 703 200 672 q 394 733 322 733 q 486 719 443 733 q 566 681 529 706 q 633 625 603 657 q 683 558 663 593 l 683 872 l 515 872 l 515 911 l 683 911 l 683 1014 l 731 1014 l 731 911 l 833 911 l 833 872 l 731 872 l 731 75 q 756 44 731 44 l 756 0 q 744 -1 751 -1 q 703 17 719 -1 q 686 60 686 36 l 686 147 q 633 81 664 111 q 565 31 601 51 q 489 -2 529 10 q 408 -14 449 -14 m 414 31 q 500 47 454 31 q 585 92 546 64 q 652 159 625 121 q 683 239 679 197 l 683 488 q 638 566 668 529 q 569 630 608 603 q 487 673 531 657 q 401 689 443 689 q 281 660 335 689 q 189 585 226 632 q 131 480 151 539 q 110 358 110 421 q 133 234 110 293 q 198 130 157 175 q 294 58 239 85 q 414 31 350 31 z "},"Ē":{"ha":854,"x_min":133,"x_max":785,"o":"m 785 44 l 785 0 l 133 0 l 133 986 l 772 986 l 772 942 l 182 942 l 182 526 l 699 526 l 699 482 l 182 482 l 182 44 l 785 44 m 279 1204 l 279 1243 l 672 1243 l 672 1204 l 279 1204 z "},"ē":{"ha":804,"x_min":61,"x_max":758,"o":"m 413 -14 q 275 16 339 -14 q 163 98 211 46 q 88 219 115 150 q 61 365 61 288 q 88 508 61 442 q 161 625 114 575 q 271 704 208 675 q 407 733 333 733 q 546 704 482 733 q 657 624 610 675 q 731 506 704 574 q 758 361 758 438 q 758 350 758 358 q 757 340 758 342 l 110 340 q 141 216 115 274 q 208 117 167 158 q 302 51 249 75 q 415 26 356 26 q 492 37 454 26 q 564 67 531 47 q 622 113 597 86 q 663 172 647 140 l 706 161 q 661 91 690 124 q 592 35 632 58 q 507 -1 553 13 q 413 -14 461 -14 m 711 381 q 682 506 707 449 q 616 604 657 563 q 522 669 575 646 q 408 692 469 692 q 294 668 347 692 q 202 603 242 644 q 138 504 163 561 q 110 381 114 447 l 711 381 m 211 943 l 211 982 l 604 982 l 604 943 l 211 943 z "},"Ĕ":{"ha":854,"x_min":133,"x_max":785,"o":"m 785 44 l 785 0 l 133 0 l 133 986 l 772 986 l 772 942 l 182 942 l 182 526 l 699 526 l 699 482 l 182 482 l 182 44 l 785 44 m 475 1189 q 526 1214 503 1189 q 553 1275 549 1239 l 588 1275 q 578 1230 588 1251 q 553 1192 569 1208 q 517 1167 538 1176 q 475 1158 497 1158 q 431 1167 451 1158 q 396 1192 411 1176 q 372 1230 381 1208 q 363 1275 363 1251 l 399 1275 q 422 1216 399 1243 q 475 1189 446 1189 z "},"ĕ":{"ha":804,"x_min":61,"x_max":758,"o":"m 413 -14 q 275 16 339 -14 q 163 98 211 46 q 88 219 115 150 q 61 365 61 288 q 88 508 61 442 q 161 625 114 575 q 271 704 208 675 q 407 733 333 733 q 546 704 482 733 q 657 624 610 675 q 731 506 704 574 q 758 361 758 438 q 758 350 758 358 q 757 340 758 342 l 110 340 q 141 216 115 274 q 208 117 167 158 q 302 51 249 75 q 415 26 356 26 q 492 37 454 26 q 564 67 531 47 q 622 113 597 86 q 663 172 647 140 l 706 161 q 661 91 690 124 q 592 35 632 58 q 507 -1 553 13 q 413 -14 461 -14 m 711 381 q 682 506 707 449 q 616 604 657 563 q 522 669 575 646 q 408 692 469 692 q 294 668 347 692 q 202 603 242 644 q 138 504 163 561 q 110 381 114 447 l 711 381 m 408 928 q 459 953 436 928 q 486 1014 482 978 l 521 1014 q 512 969 521 990 q 487 931 503 947 q 451 906 471 915 q 408 897 431 897 q 365 906 385 897 q 329 931 344 915 q 305 969 314 947 q 296 1014 296 990 l 332 1014 q 356 955 332 982 q 408 928 379 928 z "},"Ė":{"ha":854,"x_min":133,"x_max":785,"o":"m 785 44 l 785 0 l 133 0 l 133 986 l 772 986 l 772 942 l 182 942 l 182 526 l 699 526 l 699 482 l 182 482 l 182 44 l 785 44 m 453 1160 l 453 1275 l 497 1275 l 497 1160 l 453 1160 z "},"ė":{"ha":804,"x_min":61,"x_max":758,"o":"m 413 -14 q 275 16 339 -14 q 163 98 211 46 q 88 219 115 150 q 61 365 61 288 q 88 508 61 442 q 161 625 114 575 q 271 704 208 675 q 407 733 333 733 q 546 704 482 733 q 657 624 610 675 q 731 506 704 574 q 758 361 758 438 q 758 350 758 358 q 757 340 758 342 l 110 340 q 141 216 115 274 q 208 117 167 158 q 302 51 249 75 q 415 26 356 26 q 492 37 454 26 q 564 67 531 47 q 622 113 597 86 q 663 172 647 140 l 706 161 q 661 91 690 124 q 592 35 632 58 q 507 -1 553 13 q 413 -14 461 -14 m 711 381 q 682 506 707 449 q 616 604 657 563 q 522 669 575 646 q 408 692 469 692 q 294 668 347 692 q 202 603 242 644 q 138 504 163 561 q 110 381 114 447 l 711 381 m 385 899 l 385 1014 l 429 1014 l 429 899 l 385 899 z "},"Ę":{"ha":854,"x_min":133,"x_max":785,"o":"m 785 44 l 785 0 q 697 -71 722 -42 q 671 -131 671 -100 q 736 -196 671 -183 l 717 -228 q 656 -194 676 -218 q 635 -137 635 -171 q 658 -72 635 -104 q 735 0 682 -39 l 133 0 l 133 986 l 772 986 l 772 942 l 182 942 l 182 526 l 699 526 l 699 482 l 182 482 l 182 44 l 785 44 z "},"ę":{"ha":804,"x_min":61,"x_max":758,"o":"m 381 -239 q 319 -206 340 -229 q 299 -149 299 -182 q 322 -83 299 -115 q 394 -14 344 -51 q 263 22 324 -10 q 158 104 203 53 q 87 223 113 156 q 61 365 61 290 q 88 508 61 442 q 161 625 114 575 q 271 704 208 675 q 407 733 333 733 q 546 704 482 733 q 657 624 610 675 q 731 506 704 574 q 758 361 758 438 q 758 350 758 358 q 757 340 758 342 l 110 340 q 141 216 115 274 q 208 117 167 158 q 302 51 249 75 q 415 26 356 26 q 492 37 454 26 q 564 67 531 47 q 622 113 597 86 q 663 172 647 140 l 706 161 q 666 97 692 126 q 606 44 640 67 q 531 8 571 22 q 447 -11 490 -7 q 360 -82 385 -53 q 335 -142 335 -111 q 400 -207 335 -194 l 381 -239 m 711 381 q 682 506 707 449 q 616 604 657 563 q 522 669 575 646 q 408 692 469 692 q 294 668 347 692 q 202 603 242 644 q 138 504 163 561 q 110 381 114 447 l 711 381 z "},"Ě":{"ha":854,"x_min":133,"x_max":785,"o":"m 357 1275 l 475 1188 l 593 1275 l 625 1256 l 493 1147 l 457 1147 l 326 1256 l 357 1275 m 785 44 l 785 0 l 133 0 l 133 986 l 772 986 l 772 942 l 182 942 l 182 526 l 699 526 l 699 482 l 182 482 l 182 44 l 785 44 z "},"ě":{"ha":804,"x_min":61,"x_max":758,"o":"m 289 1014 l 407 926 l 525 1014 l 557 994 l 425 886 l 389 886 l 258 994 l 289 1014 m 413 -14 q 275 16 339 -14 q 163 98 211 46 q 88 219 115 150 q 61 365 61 288 q 88 508 61 442 q 161 625 114 575 q 271 704 208 675 q 407 733 333 733 q 546 704 482 733 q 657 624 610 675 q 731 506 704 574 q 758 361 758 438 q 758 350 758 358 q 757 340 758 342 l 110 340 q 141 216 115 274 q 208 117 167 158 q 302 51 249 75 q 415 26 356 26 q 492 37 454 26 q 564 67 531 47 q 622 113 597 86 q 663 172 647 140 l 706 161 q 661 91 690 124 q 592 35 632 58 q 507 -1 553 13 q 413 -14 461 -14 m 711 381 q 682 506 707 449 q 616 604 657 563 q 522 669 575 646 q 408 692 469 692 q 294 668 347 692 q 202 603 242 644 q 138 504 163 561 q 110 381 114 447 l 711 381 z "},"Ĝ":{"ha":999,"x_min":64,"x_max":917,"o":"m 365 1168 l 496 1275 l 532 1275 l 664 1168 l 632 1147 l 514 1235 l 396 1147 l 365 1168 m 872 161 q 528 -7 722 -7 q 341 37 426 -7 q 194 151 256 81 q 99 312 133 222 q 64 493 64 401 q 97 681 64 590 q 191 840 131 771 q 334 951 251 910 q 515 993 417 993 q 650 977 590 993 q 756 933 710 961 q 835 865 801 904 q 892 778 868 825 l 851 757 q 711 903 797 858 q 514 947 625 947 q 347 908 421 947 q 220 804 272 868 q 140 659 168 740 q 113 493 113 578 q 145 321 113 403 q 234 176 178 239 q 367 76 290 114 q 531 39 443 39 q 708 82 624 39 q 872 218 792 125 l 872 432 l 644 432 l 644 474 l 917 474 l 917 0 l 872 0 l 872 161 z "},"ĝ":{"ha":843,"x_min":61,"x_max":731,"o":"m 292 907 l 422 1014 l 458 1014 l 590 907 l 558 886 l 440 974 l 322 886 l 292 907 m 407 -12 q 268 19 332 -12 q 158 103 204 51 q 87 222 113 156 q 61 358 61 289 q 85 499 61 432 q 154 619 110 567 q 260 702 199 671 q 397 733 322 733 q 486 719 444 733 q 564 682 528 706 q 631 626 600 658 q 686 558 661 594 l 686 722 l 731 722 l 731 -22 q 703 -149 731 -96 q 631 -239 676 -203 q 526 -292 586 -275 q 401 -310 467 -310 q 288 -297 338 -310 q 201 -262 239 -285 q 135 -209 164 -240 q 86 -140 107 -178 l 121 -121 q 240 -233 165 -199 q 401 -268 315 -268 q 510 -253 460 -268 q 600 -206 561 -237 q 661 -129 639 -175 q 683 -22 683 -83 l 683 147 q 630 82 661 111 q 563 32 599 53 q 487 -1 526 11 q 407 -12 447 -12 m 414 31 q 509 49 463 31 q 593 98 556 68 q 655 165 631 128 q 683 239 679 201 l 683 488 q 637 568 667 531 q 569 632 607 606 q 489 674 532 658 q 401 689 446 689 q 278 660 332 689 q 186 583 224 631 q 129 477 149 536 q 110 358 110 418 q 133 234 110 293 q 198 130 157 175 q 294 58 239 85 q 414 31 350 31 z "},"Ğ":{"ha":999,"x_min":64,"x_max":917,"o":"m 872 161 q 528 -7 722 -7 q 341 37 426 -7 q 194 151 256 81 q 99 312 133 222 q 64 493 64 401 q 97 681 64 590 q 191 840 131 771 q 334 951 251 910 q 515 993 417 993 q 650 977 590 993 q 756 933 710 961 q 835 865 801 904 q 892 778 868 825 l 851 757 q 711 903 797 858 q 514 947 625 947 q 347 908 421 947 q 220 804 272 868 q 140 659 168 740 q 113 493 113 578 q 145 321 113 403 q 234 176 178 239 q 367 76 290 114 q 531 39 443 39 q 708 82 624 39 q 872 218 792 125 l 872 432 l 644 432 l 644 474 l 917 474 l 917 0 l 872 0 l 872 161 m 514 1189 q 565 1214 542 1189 q 592 1275 588 1239 l 626 1275 q 617 1230 626 1251 q 592 1192 608 1208 q 556 1167 576 1176 q 514 1158 536 1158 q 470 1167 490 1158 q 435 1192 450 1176 q 410 1230 419 1208 q 401 1275 401 1251 l 438 1275 q 461 1216 438 1243 q 514 1189 485 1189 z "},"ğ":{"ha":843,"x_min":61,"x_max":731,"o":"m 407 -12 q 268 19 332 -12 q 158 103 204 51 q 87 222 113 156 q 61 358 61 289 q 85 499 61 432 q 154 619 110 567 q 260 702 199 671 q 397 733 322 733 q 486 719 444 733 q 564 682 528 706 q 631 626 600 658 q 686 558 661 594 l 686 722 l 731 722 l 731 -22 q 703 -149 731 -96 q 631 -239 676 -203 q 526 -292 586 -275 q 401 -310 467 -310 q 288 -297 338 -310 q 201 -262 239 -285 q 135 -209 164 -240 q 86 -140 107 -178 l 121 -121 q 240 -233 165 -199 q 401 -268 315 -268 q 510 -253 460 -268 q 600 -206 561 -237 q 661 -129 639 -175 q 683 -22 683 -83 l 683 147 q 630 82 661 111 q 563 32 599 53 q 487 -1 526 11 q 407 -12 447 -12 m 414 31 q 509 49 463 31 q 593 98 556 68 q 655 165 631 128 q 683 239 679 201 l 683 488 q 637 568 667 531 q 569 632 607 606 q 489 674 532 658 q 401 689 446 689 q 278 660 332 689 q 186 583 224 631 q 129 477 149 536 q 110 358 110 418 q 133 234 110 293 q 198 130 157 175 q 294 58 239 85 q 414 31 350 31 m 440 928 q 491 953 468 928 q 518 1014 514 978 l 553 1014 q 544 969 553 990 q 519 931 535 947 q 483 906 503 915 q 440 897 463 897 q 397 906 417 897 q 361 931 376 915 q 337 969 346 947 q 328 1014 328 990 l 364 1014 q 388 955 364 982 q 440 928 411 928 z "},"Ġ":{"ha":999,"x_min":64,"x_max":917,"o":"m 872 161 q 528 -7 722 -7 q 341 37 426 -7 q 194 151 256 81 q 99 312 133 222 q 64 493 64 401 q 97 681 64 590 q 191 840 131 771 q 334 951 251 910 q 515 993 417 993 q 650 977 590 993 q 756 933 710 961 q 835 865 801 904 q 892 778 868 825 l 851 757 q 711 903 797 858 q 514 947 625 947 q 347 908 421 947 q 220 804 272 868 q 140 659 168 740 q 113 493 113 578 q 145 321 113 403 q 234 176 178 239 q 367 76 290 114 q 531 39 443 39 q 708 82 624 39 q 872 218 792 125 l 872 432 l 644 432 l 644 474 l 917 474 l 917 0 l 872 0 l 872 161 m 492 1160 l 492 1275 l 536 1275 l 536 1160 l 492 1160 z "},"ġ":{"ha":843,"x_min":61,"x_max":731,"o":"m 407 -12 q 268 19 332 -12 q 158 103 204 51 q 87 222 113 156 q 61 358 61 289 q 85 499 61 432 q 154 619 110 567 q 260 702 199 671 q 397 733 322 733 q 486 719 444 733 q 564 682 528 706 q 631 626 600 658 q 686 558 661 594 l 686 722 l 731 722 l 731 -22 q 703 -149 731 -96 q 631 -239 676 -203 q 526 -292 586 -275 q 401 -310 467 -310 q 288 -297 338 -310 q 201 -262 239 -285 q 135 -209 164 -240 q 86 -140 107 -178 l 121 -121 q 240 -233 165 -199 q 401 -268 315 -268 q 510 -253 460 -268 q 600 -206 561 -237 q 661 -129 639 -175 q 683 -22 683 -83 l 683 147 q 630 82 661 111 q 563 32 599 53 q 487 -1 526 11 q 407 -12 447 -12 m 414 31 q 509 49 463 31 q 593 98 556 68 q 655 165 631 128 q 683 239 679 201 l 683 488 q 637 568 667 531 q 569 632 607 606 q 489 674 532 658 q 401 689 446 689 q 278 660 332 689 q 186 583 224 631 q 129 477 149 536 q 110 358 110 418 q 133 234 110 293 q 198 130 157 175 q 294 58 239 85 q 414 31 350 31 m 418 899 l 418 1014 l 463 1014 l 463 899 l 418 899 z "},"Ģ":{"ha":999,"x_min":64,"x_max":917,"o":"m 499 -244 l 515 -158 l 499 -158 l 499 -69 l 550 -69 l 550 -158 l 526 -244 l 499 -244 m 872 161 q 528 -7 722 -7 q 341 37 426 -7 q 194 151 256 81 q 99 312 133 222 q 64 493 64 401 q 97 681 64 590 q 191 840 131 771 q 334 951 251 910 q 515 993 417 993 q 650 977 590 993 q 756 933 710 961 q 835 865 801 904 q 892 778 868 825 l 851 757 q 711 903 797 858 q 514 947 625 947 q 347 908 421 947 q 220 804 272 868 q 140 659 168 740 q 113 493 113 578 q 145 321 113 403 q 234 176 178 239 q 367 76 290 114 q 531 39 443 39 q 708 82 624 39 q 872 218 792 125 l 872 432 l 644 432 l 644 474 l 917 474 l 917 0 l 872 0 l 872 161 z "},"":{"ha":181,"x_min":76,"x_max":128,"o":"m 76 -244 l 93 -158 l 76 -158 l 76 -69 l 128 -69 l 128 -158 l 104 -244 l 76 -244 z "},"ģ":{"ha":843,"x_min":61,"x_max":731,"o":"m 433 1018 l 417 932 l 433 932 l 433 843 l 382 843 l 382 932 l 406 1018 l 433 1018 m 407 -12 q 268 19 332 -12 q 158 103 204 51 q 87 222 113 156 q 61 358 61 289 q 85 499 61 432 q 154 619 110 567 q 260 702 199 671 q 397 733 322 733 q 486 719 444 733 q 564 682 528 706 q 631 626 600 658 q 686 558 661 594 l 686 722 l 731 722 l 731 -22 q 703 -149 731 -96 q 631 -239 676 -203 q 526 -292 586 -275 q 401 -310 467 -310 q 288 -297 338 -310 q 201 -262 239 -285 q 135 -209 164 -240 q 86 -140 107 -178 l 121 -121 q 240 -233 165 -199 q 401 -268 315 -268 q 510 -253 460 -268 q 600 -206 561 -237 q 661 -129 639 -175 q 683 -22 683 -83 l 683 147 q 630 82 661 111 q 563 32 599 53 q 487 -1 526 11 q 407 -12 447 -12 m 414 31 q 509 49 463 31 q 593 98 556 68 q 655 165 631 128 q 683 239 679 201 l 683 488 q 637 568 667 531 q 569 632 607 606 q 489 674 532 658 q 401 689 446 689 q 278 660 332 689 q 186 583 224 631 q 129 477 149 536 q 110 358 110 418 q 133 234 110 293 q 198 130 157 175 q 294 58 239 85 q 414 31 350 31 z "},"Ĥ":{"ha":1018,"x_min":133,"x_max":885,"o":"m 363 1168 l 493 1275 l 529 1275 l 661 1168 l 629 1147 l 511 1235 l 393 1147 l 363 1168 m 885 986 l 885 0 l 838 0 l 838 482 l 182 482 l 182 0 l 133 0 l 133 986 l 182 986 l 182 526 l 838 526 l 838 986 l 885 986 z "},"ĥ":{"ha":792,"x_min":113,"x_max":688,"o":"m 286 906 l 415 1013 l 450 1013 l 581 906 l 549 885 l 433 972 l 317 885 l 286 906 m 688 0 l 640 0 l 640 403 q 450 689 640 689 q 356 671 401 689 q 271 621 310 653 q 203 545 232 589 q 160 451 174 501 l 160 0 l 113 0 l 113 1014 l 160 1014 l 160 542 q 215 620 182 585 q 286 681 247 656 q 369 719 325 706 q 458 733 413 733 q 631 649 575 733 q 688 408 688 564 l 688 0 z "},"Ħ":{"ha":1032,"x_min":71,"x_max":961,"o":"m 892 986 l 892 803 l 961 803 l 961 768 l 892 768 l 892 0 l 844 0 l 844 482 l 189 482 l 189 0 l 140 0 l 140 768 l 71 768 l 71 803 l 140 803 l 140 986 l 189 986 l 189 803 l 844 803 l 844 986 l 892 986 m 844 526 l 844 768 l 189 768 l 189 526 l 844 526 z "},"ħ":{"ha":792,"x_min":15,"x_max":688,"o":"m 688 0 l 640 0 l 640 403 q 450 689 640 689 q 356 671 401 689 q 271 621 310 653 q 203 545 232 589 q 160 451 174 501 l 160 0 l 113 0 l 113 872 l 15 872 l 15 911 l 113 911 l 113 1014 l 160 1014 l 160 911 l 333 911 l 333 872 l 160 872 l 160 542 q 215 620 182 585 q 286 681 247 656 q 369 719 325 706 q 458 733 413 733 q 631 649 575 733 q 688 408 688 564 l 688 0 z "},"Ĩ":{"ha":315,"x_min":-40,"x_max":361,"o":"m 133 0 l 133 986 l 182 986 l 182 0 l 133 0 m 242 1172 q 188 1181 211 1172 q 145 1199 165 1189 q 107 1217 125 1208 q 67 1225 89 1225 q 31 1216 44 1225 q 10 1195 17 1207 q 0 1172 3 1183 q -3 1158 -3 1161 l -40 1158 q -37 1180 -40 1163 q -22 1215 -33 1197 q 12 1248 -10 1233 q 69 1263 33 1263 q 118 1254 97 1263 q 158 1235 139 1246 q 197 1217 176 1225 q 243 1208 217 1208 q 288 1218 272 1208 q 313 1240 304 1228 q 323 1262 321 1251 q 325 1275 325 1272 l 361 1275 q 357 1253 361 1269 q 340 1218 353 1236 q 304 1186 328 1200 q 242 1172 281 1172 z "},"ĩ":{"ha":274,"x_min":-61,"x_max":340,"o":"m 113 0 l 113 722 l 160 722 l 160 0 l 113 0 m 221 911 q 167 919 190 911 q 124 938 144 928 q 86 956 104 947 q 46 964 68 964 q 10 955 24 964 q -11 934 -4 946 q -21 911 -18 922 q -24 897 -24 900 l -61 897 q -58 919 -61 901 q -42 954 -54 936 q -9 987 -31 972 q 49 1001 13 1001 q 97 993 76 1001 q 137 974 118 985 q 176 956 156 964 q 222 947 196 947 q 267 957 251 947 q 292 978 283 967 q 302 1001 300 990 q 304 1014 304 1011 l 340 1014 q 336 992 340 1008 q 319 957 332 975 q 283 925 307 939 q 221 911 260 911 z "},"Ī":{"ha":315,"x_min":-39,"x_max":354,"o":"m 133 0 l 133 986 l 182 986 l 182 0 l 133 0 m -39 1204 l -39 1243 l 354 1243 l 354 1204 l -39 1204 z "},"ī":{"ha":274,"x_min":-60,"x_max":333,"o":"m 113 0 l 113 722 l 160 722 l 160 0 l 113 0 m -60 943 l -60 982 l 333 982 l 333 943 l -60 943 z "},"Ĭ":{"ha":315,"x_min":44,"x_max":269,"o":"m 133 0 l 133 986 l 182 986 l 182 0 l 133 0 m 157 1189 q 208 1214 185 1189 q 235 1275 231 1239 l 269 1275 q 260 1230 269 1251 q 235 1192 251 1208 q 199 1167 219 1176 q 157 1158 179 1158 q 113 1167 133 1158 q 78 1192 93 1176 q 53 1230 63 1208 q 44 1275 44 1251 l 81 1275 q 104 1216 81 1243 q 157 1189 128 1189 z "},"ĭ":{"ha":274,"x_min":24,"x_max":249,"o":"m 113 0 l 113 722 l 160 722 l 160 0 l 113 0 m 136 928 q 187 953 164 928 q 214 1014 210 978 l 249 1014 q 240 969 249 990 q 215 931 231 947 q 178 906 199 915 q 136 897 158 897 q 92 906 113 897 q 57 931 72 915 q 33 969 42 947 q 24 1014 24 990 l 60 1014 q 83 955 60 982 q 136 928 107 928 z "},"Į":{"ha":315,"x_min":32,"x_max":182,"o":"m 114 -228 q 53 -194 74 -218 q 32 -137 32 -171 q 56 -72 32 -104 q 133 0 79 -40 l 133 986 l 182 986 l 182 0 q 94 -71 119 -42 q 68 -131 68 -100 q 133 -196 68 -183 l 114 -228 l 114 -228 z "},"į":{"ha":274,"x_min":11,"x_max":161,"o":"m 93 -228 q 32 -194 53 -218 q 11 -137 11 -171 q 35 -72 11 -103 q 114 0 60 -40 l 114 722 l 161 722 l 161 0 q 73 -71 99 -42 q 47 -131 47 -100 q 113 -196 47 -183 l 93 -228 m 114 897 l 114 1014 l 161 1014 l 161 897 l 114 897 z "},"İ":{"ha":315,"x_min":133,"x_max":182,"o":"m 133 0 l 133 986 l 182 986 l 182 0 l 133 0 m 135 1160 l 135 1275 l 179 1275 l 179 1160 l 135 1160 z "},"Ĳ":{"ha":975,"x_min":133,"x_max":854,"o":"m 133 0 l 133 986 l 182 986 l 182 0 l 133 0 m 358 85 q 554 31 436 31 q 689 61 639 31 q 765 150 739 92 q 799 293 792 208 q 807 485 807 378 l 807 986 l 854 986 l 854 485 q 844 280 854 372 q 803 122 835 188 q 713 21 772 57 q 554 -15 654 -15 q 340 46 429 -15 l 358 85 z "},"ĳ":{"ha":557,"x_min":107,"x_max":444,"o":"m 113 0 l 113 722 l 160 722 l 160 0 l 113 0 m 113 897 l 113 1014 l 160 1014 l 160 897 l 113 897 m 251 -240 q 172 -230 210 -240 q 107 -192 135 -219 l 136 -161 q 190 -189 160 -182 q 247 -196 219 -196 q 302 -184 275 -196 q 350 -152 329 -172 q 384 -105 371 -132 q 397 -46 397 -78 l 397 722 l 444 722 l 444 -44 q 427 -124 444 -87 q 383 -185 410 -160 q 321 -226 356 -211 q 251 -240 286 -240 m 397 897 l 397 1014 l 444 1014 l 444 897 l 397 897 z "},"Ĵ":{"ha":660,"x_min":25,"x_max":665,"o":"m 367 1168 l 497 1275 l 533 1275 l 665 1168 l 633 1147 l 515 1235 l 397 1147 l 367 1168 m 43 85 q 239 31 121 31 q 374 61 324 31 q 450 150 424 92 q 484 293 476 208 q 492 485 492 378 l 492 986 l 539 986 l 539 485 q 529 280 539 372 q 488 122 519 188 q 398 21 457 57 q 239 -15 339 -15 q 25 46 114 -15 l 43 85 z "},"ĵ":{"ha":274,"x_min":-178,"x_max":286,"o":"m -33 -240 q -112 -230 -75 -240 q -178 -192 -150 -219 l -149 -161 q -95 -189 -125 -182 q -37 -196 -65 -196 q 17 -184 -10 -196 q 65 -152 44 -172 q 99 -105 86 -132 q 113 -46 113 -78 l 113 722 l 160 722 l 160 -44 q 142 -124 160 -87 q 98 -185 125 -160 q 36 -226 71 -211 q -33 -240 1 -240 m -12 907 l 118 1014 l 154 1014 l 286 907 l 254 886 l 136 974 l 18 886 l -12 907 z "},"ȷ":{"ha":274,"x_min":-178,"x_max":160,"o":"m -33 -240 q -112 -230 -75 -240 q -178 -192 -150 -219 l -149 -161 q -95 -189 -125 -182 q -37 -196 -65 -196 q 17 -184 -10 -196 q 65 -152 44 -172 q 99 -105 86 -132 q 113 -46 113 -78 l 113 722 l 160 722 l 160 -44 q 142 -124 160 -87 q 98 -185 125 -160 q 36 -226 71 -211 q -33 -240 1 -240 z "},"Ķ":{"ha":871,"x_min":133,"x_max":864,"o":"m 414 -244 l 431 -158 l 414 -158 l 414 -69 l 465 -69 l 465 -158 l 442 -244 l 414 -244 m 133 0 l 133 986 l 182 986 l 182 365 l 785 986 l 844 986 l 429 554 l 864 0 l 807 0 l 396 525 l 182 306 l 182 0 l 133 0 z "},"ķ":{"ha":714,"x_min":113,"x_max":693,"o":"m 343 -244 l 360 -158 l 343 -158 l 343 -69 l 394 -69 l 394 -158 l 371 -244 l 343 -244 m 639 0 l 344 400 l 160 232 l 160 0 l 113 0 l 113 1014 l 160 1014 l 160 288 l 628 719 l 685 719 l 378 431 l 693 0 l 639 0 z "},"ĸ":{"ha":714,"x_min":113,"x_max":693,"o":"m 639 0 l 344 400 l 160 232 l 160 0 l 113 0 l 113 722 l 160 722 l 160 288 l 628 719 l 685 719 l 378 431 l 693 0 l 639 0 z "},"Ĺ":{"ha":806,"x_min":133,"x_max":786,"o":"m 453 1147 l 419 1165 l 506 1275 l 568 1275 l 453 1147 m 133 0 l 133 986 l 182 986 l 182 44 l 786 44 l 786 0 l 133 0 z "},"ĺ":{"ha":344,"x_min":86,"x_max":344,"o":"m 119 1081 l 86 1099 l 172 1208 l 235 1208 l 119 1081 m 121 1014 l 167 1014 l 167 124 q 192 60 167 83 q 257 36 217 36 q 294 40 272 36 q 333 50 315 43 l 344 11 q 292 -1 324 4 q 239 -7 261 -7 q 153 26 186 -7 q 121 114 121 58 l 121 1014 z "},"Ļ":{"ha":806,"x_min":133,"x_max":786,"o":"m 431 -244 l 447 -158 l 431 -158 l 431 -69 l 482 -69 l 482 -158 l 458 -244 l 431 -244 m 133 0 l 133 986 l 182 986 l 182 44 l 786 44 l 786 0 l 133 0 z "},"ļ":{"ha":344,"x_min":121,"x_max":344,"o":"m 200 -244 l 217 -158 l 200 -158 l 200 -69 l 251 -69 l 251 -158 l 228 -244 l 200 -244 m 121 1014 l 167 1014 l 167 124 q 192 60 167 83 q 257 36 217 36 q 294 40 272 36 q 333 50 315 43 l 344 11 q 292 -1 324 4 q 239 -7 261 -7 q 153 26 186 -7 q 121 114 121 58 l 121 1014 z "},"Ľ":{"ha":806,"x_min":133,"x_max":786,"o":"m 504 886 l 471 904 l 557 1014 l 619 1014 l 504 886 m 133 0 l 133 986 l 182 986 l 182 44 l 786 44 l 786 0 l 133 0 z "},"ľ":{"ha":344,"x_min":121,"x_max":385,"o":"m 269 886 l 236 904 l 322 1014 l 385 1014 l 269 886 m 121 1014 l 167 1014 l 167 124 q 192 60 167 83 q 257 36 217 36 q 294 40 272 36 q 333 50 315 43 l 344 11 q 292 -1 324 4 q 239 -7 261 -7 q 153 26 186 -7 q 121 114 121 58 l 121 1014 z "},"Ŀ":{"ha":806,"x_min":133,"x_max":786,"o":"m 133 0 l 133 986 l 182 986 l 182 44 l 786 44 l 786 0 l 133 0 m 508 496 l 508 622 l 551 622 l 551 496 l 508 496 z "},"ŀ":{"ha":378,"x_min":121,"x_max":353,"o":"m 121 1014 l 167 1014 l 167 124 q 192 60 167 83 q 257 36 217 36 q 294 40 272 36 q 333 50 315 43 l 344 11 q 292 -1 324 4 q 239 -7 261 -7 q 153 26 186 -7 q 121 114 121 58 l 121 1014 m 310 353 l 310 479 l 353 479 l 353 353 l 310 353 z "},"Ł":{"ha":815,"x_min":35,"x_max":796,"o":"m 143 0 l 143 390 l 58 310 l 35 342 l 143 443 l 143 986 l 192 986 l 192 489 l 439 724 l 461 693 l 192 436 l 192 44 l 796 44 l 796 0 l 143 0 z "},"ł":{"ha":367,"x_min":19,"x_max":365,"o":"m 142 507 l 44 417 l 19 446 l 142 560 l 142 1014 l 188 1014 l 188 601 l 315 721 l 340 692 l 188 549 l 188 124 q 213 60 188 83 q 278 36 238 36 q 315 40 293 36 q 354 50 336 43 l 365 11 q 313 -1 344 4 q 260 -7 282 -7 q 174 26 207 -7 q 142 114 142 58 l 142 507 z "},"Ń":{"ha":1076,"x_min":133,"x_max":943,"o":"m 533 1147 l 500 1165 l 586 1275 l 649 1275 l 533 1147 m 182 894 l 182 0 l 133 0 l 133 986 l 169 986 l 894 76 l 894 986 l 943 986 l 943 0 l 896 0 l 182 894 z "},"ń":{"ha":792,"x_min":113,"x_max":688,"o":"m 383 886 l 350 904 l 436 1014 l 499 1014 l 383 886 m 688 0 l 640 0 l 640 403 q 598 620 640 551 q 464 689 556 689 q 367 671 415 689 q 277 621 318 653 q 205 546 236 589 q 160 451 174 503 l 160 0 l 113 0 l 113 722 l 158 722 l 158 542 q 214 620 181 585 q 289 681 247 656 q 377 719 331 706 q 472 733 424 733 q 637 652 586 733 q 688 408 688 571 l 688 0 z "},"Ņ":{"ha":1076,"x_min":133,"x_max":943,"o":"m 515 -244 l 532 -158 l 515 -158 l 515 -69 l 567 -69 l 567 -158 l 543 -244 l 515 -244 m 182 894 l 182 0 l 133 0 l 133 986 l 169 986 l 894 76 l 894 986 l 943 986 l 943 0 l 896 0 l 182 894 z "},"ņ":{"ha":792,"x_min":113,"x_max":688,"o":"m 364 -244 l 381 -158 l 364 -158 l 364 -69 l 415 -69 l 415 -158 l 392 -244 l 364 -244 m 688 0 l 640 0 l 640 403 q 598 620 640 551 q 464 689 556 689 q 367 671 415 689 q 277 621 318 653 q 205 546 236 589 q 160 451 174 503 l 160 0 l 113 0 l 113 722 l 158 722 l 158 542 q 214 620 181 585 q 289 681 247 656 q 377 719 331 706 q 472 733 424 733 q 637 652 586 733 q 688 408 688 571 l 688 0 z "},"Ň":{"ha":1076,"x_min":133,"x_max":943,"o":"m 426 1275 l 544 1188 l 663 1275 l 694 1256 l 563 1147 l 526 1147 l 396 1256 l 426 1275 m 182 894 l 182 0 l 133 0 l 133 986 l 169 986 l 894 76 l 894 986 l 943 986 l 943 0 l 896 0 l 182 894 z "},"ň":{"ha":792,"x_min":113,"x_max":688,"o":"m 278 1014 l 396 926 l 514 1014 l 546 994 l 414 886 l 378 886 l 247 994 l 278 1014 m 688 0 l 640 0 l 640 403 q 598 620 640 551 q 464 689 556 689 q 367 671 415 689 q 277 621 318 653 q 205 546 236 589 q 160 451 174 503 l 160 0 l 113 0 l 113 722 l 158 722 l 158 542 q 214 620 181 585 q 289 681 247 656 q 377 719 331 706 q 472 733 424 733 q 637 652 586 733 q 688 408 688 571 l 688 0 z "},"ŉ":{"ha":792,"x_min":8,"x_max":688,"o":"m 43 886 l 8 904 l 65 975 l 67 1014 l 158 1014 l 43 886 m 688 0 l 640 0 l 640 403 q 598 620 640 551 q 464 689 556 689 q 367 671 415 689 q 277 621 318 653 q 205 546 236 589 q 160 451 174 503 l 160 0 l 113 0 l 113 722 l 158 722 l 158 542 q 214 620 181 585 q 289 681 247 656 q 377 719 331 706 q 472 733 424 733 q 637 652 586 733 q 688 408 688 571 l 688 0 z "},"ʼ":{"ha":760,"x_min":318,"x_max":468,"o":"m 353 886 l 318 904 l 375 975 l 376 1014 l 468 1014 l 353 886 z "},"Ŋ":{"ha":1074,"x_min":133,"x_max":940,"o":"m 182 894 l 182 0 l 133 0 l 133 986 l 169 986 l 893 78 l 893 985 l 940 985 l 940 -46 q 923 -124 940 -89 q 878 -185 906 -160 q 816 -226 850 -211 q 747 -240 782 -240 q 668 -230 706 -240 q 603 -192 631 -219 l 632 -161 q 685 -189 656 -182 q 743 -196 715 -196 q 798 -184 771 -196 q 846 -152 825 -172 q 880 -105 867 -132 q 893 -46 893 -78 l 893 0 l 182 894 z "},"ŋ":{"ha":792,"x_min":113,"x_max":688,"o":"m 494 -240 q 415 -230 451 -240 q 350 -192 378 -219 l 379 -161 q 433 -189 403 -182 q 490 -196 463 -196 q 544 -184 517 -196 q 592 -152 571 -172 q 627 -105 614 -132 q 640 -46 640 -78 l 640 403 q 598 620 640 551 q 464 689 556 689 q 367 671 415 689 q 277 621 318 653 q 205 546 236 589 q 160 451 174 503 l 160 0 l 113 0 l 113 722 l 158 722 l 158 542 q 214 620 181 585 q 289 681 247 656 q 377 719 331 706 q 472 733 424 733 q 637 652 586 733 q 688 408 688 571 l 688 -44 q 670 -124 688 -87 q 625 -185 653 -160 q 563 -226 597 -211 q 494 -240 529 -240 z "},"Ō":{"ha":1049,"x_min":64,"x_max":985,"o":"m 329 1204 l 329 1243 l 722 1243 l 722 1204 l 329 1204 m 525 -7 q 338 36 422 -7 q 192 149 253 79 q 97 308 131 218 q 64 493 64 399 q 99 682 64 592 q 197 842 135 772 q 342 952 258 911 q 525 993 426 993 q 713 949 628 993 q 858 835 797 906 q 951 674 918 764 q 985 493 985 585 q 949 303 985 393 q 852 144 914 213 q 706 34 790 75 q 525 -7 622 -7 m 113 493 q 143 322 113 404 q 228 177 174 240 q 359 76 283 114 q 525 39 435 39 q 694 78 618 39 q 824 182 769 118 q 907 328 878 246 q 936 493 936 410 q 905 664 936 582 q 819 809 874 746 q 688 910 764 872 q 525 947 613 947 q 356 908 432 947 q 226 804 281 868 q 142 659 172 740 q 113 493 113 578 z "},"ō":{"ha":818,"x_min":61,"x_max":757,"o":"m 213 943 l 213 982 l 606 982 l 606 943 l 213 943 m 408 -14 q 272 16 335 -14 q 161 97 208 46 q 88 215 114 147 q 61 358 61 283 q 88 503 61 435 q 163 622 115 571 q 273 703 210 674 q 408 733 336 733 q 544 703 481 733 q 656 622 608 674 q 730 503 703 571 q 757 358 757 435 q 730 215 757 283 q 656 97 703 147 q 546 16 610 46 q 408 -14 482 -14 m 108 357 q 132 231 108 290 q 196 126 156 171 q 291 56 236 82 q 407 31 346 31 q 524 57 469 31 q 620 128 579 83 q 685 233 661 172 q 708 360 708 293 q 685 487 708 426 q 620 592 661 547 q 524 663 579 636 q 408 689 469 689 q 293 663 347 689 q 198 591 239 636 q 133 485 157 546 q 108 357 108 425 z "},"Ŏ":{"ha":1049,"x_min":64,"x_max":985,"o":"m 525 -7 q 338 36 422 -7 q 192 149 253 79 q 97 308 131 218 q 64 493 64 399 q 99 682 64 592 q 197 842 135 772 q 342 952 258 911 q 525 993 426 993 q 713 949 628 993 q 858 835 797 906 q 951 674 918 764 q 985 493 985 585 q 949 303 985 393 q 852 144 914 213 q 706 34 790 75 q 525 -7 622 -7 m 113 493 q 143 322 113 404 q 228 177 174 240 q 359 76 283 114 q 525 39 435 39 q 694 78 618 39 q 824 182 769 118 q 907 328 878 246 q 936 493 936 410 q 905 664 936 582 q 819 809 874 746 q 688 910 764 872 q 525 947 613 947 q 356 908 432 947 q 226 804 281 868 q 142 659 172 740 q 113 493 113 578 m 525 1189 q 576 1214 553 1189 q 603 1275 599 1239 l 638 1275 q 628 1230 638 1251 q 603 1192 619 1208 q 567 1167 588 1176 q 525 1158 547 1158 q 481 1167 501 1158 q 446 1192 461 1176 q 422 1230 431 1208 q 413 1275 413 1251 l 449 1275 q 472 1216 449 1243 q 525 1189 496 1189 z "},"ŏ":{"ha":818,"x_min":61,"x_max":757,"o":"m 408 -14 q 272 16 335 -14 q 161 97 208 46 q 88 215 114 147 q 61 358 61 283 q 88 503 61 435 q 163 622 115 571 q 273 703 210 674 q 408 733 336 733 q 544 703 481 733 q 656 622 608 674 q 730 503 703 571 q 757 358 757 435 q 730 215 757 283 q 656 97 703 147 q 546 16 610 46 q 408 -14 482 -14 m 108 357 q 132 231 108 290 q 196 126 156 171 q 291 56 236 82 q 407 31 346 31 q 524 57 469 31 q 620 128 579 83 q 685 233 661 172 q 708 360 708 293 q 685 487 708 426 q 620 592 661 547 q 524 663 579 636 q 408 689 469 689 q 293 663 347 689 q 198 591 239 636 q 133 485 157 546 q 108 357 108 425 m 408 928 q 459 953 436 928 q 486 1014 482 978 l 521 1014 q 512 969 521 990 q 487 931 503 947 q 451 906 471 915 q 408 897 431 897 q 365 906 385 897 q 329 931 344 915 q 305 969 314 947 q 296 1014 296 990 l 332 1014 q 356 955 332 982 q 408 928 379 928 z "},"Ő":{"ha":1049,"x_min":64,"x_max":985,"o":"m 436 1147 l 406 1165 l 492 1275 l 551 1275 l 436 1147 m 586 1147 l 554 1165 l 640 1275 l 700 1275 l 586 1147 m 525 -7 q 338 36 422 -7 q 192 149 253 79 q 97 308 131 218 q 64 493 64 399 q 99 682 64 592 q 197 842 135 772 q 342 952 258 911 q 525 993 426 993 q 713 949 628 993 q 858 835 797 906 q 951 674 918 764 q 985 493 985 585 q 949 303 985 393 q 852 144 914 213 q 706 34 790 75 q 525 -7 622 -7 m 113 493 q 143 322 113 404 q 228 177 174 240 q 359 76 283 114 q 525 39 435 39 q 694 78 618 39 q 824 182 769 118 q 907 328 878 246 q 936 493 936 410 q 905 664 936 582 q 819 809 874 746 q 688 910 764 872 q 525 947 613 947 q 356 908 432 947 q 226 804 281 868 q 142 659 172 740 q 113 493 113 578 z "},"˝":{"ha":425,"x_min":67,"x_max":361,"o":"m 97 886 l 67 904 l 153 1014 l 213 1014 l 97 886 m 247 886 l 215 904 l 301 1014 l 361 1014 l 247 886 z "},"ő":{"ha":818,"x_min":61,"x_max":757,"o":"m 319 886 l 289 904 l 375 1014 l 435 1014 l 319 886 m 469 886 l 438 904 l 524 1014 l 583 1014 l 469 886 m 408 -14 q 272 16 335 -14 q 161 97 208 46 q 88 215 114 147 q 61 358 61 283 q 88 503 61 435 q 163 622 115 571 q 273 703 210 674 q 408 733 336 733 q 544 703 481 733 q 656 622 608 674 q 730 503 703 571 q 757 358 757 435 q 730 215 757 283 q 656 97 703 147 q 546 16 610 46 q 408 -14 482 -14 m 108 357 q 132 231 108 290 q 196 126 156 171 q 291 56 236 82 q 407 31 346 31 q 524 57 469 31 q 620 128 579 83 q 685 233 661 172 q 708 360 708 293 q 685 487 708 426 q 620 592 661 547 q 524 663 579 636 q 408 689 469 689 q 293 663 347 689 q 198 591 239 636 q 133 485 157 546 q 108 357 108 425 z "},"Œ":{"ha":1654,"x_min":64,"x_max":1586,"o":"m 1586 44 l 1586 0 l 938 0 l 938 303 q 873 181 914 238 q 779 83 832 125 q 663 17 726 42 q 528 -7 599 -7 q 340 35 425 -7 q 193 148 254 78 q 98 308 132 218 q 64 493 64 399 q 99 682 64 592 q 197 842 135 772 q 342 952 258 911 q 525 993 426 993 q 665 969 600 993 q 783 902 729 944 q 875 803 836 860 q 938 682 914 746 l 938 986 l 1574 986 l 1574 942 l 985 942 l 985 526 l 1499 526 l 1499 482 l 985 482 l 985 44 l 1586 44 m 525 39 q 694 78 618 39 q 824 182 769 118 q 907 328 878 246 q 936 494 936 410 q 905 664 936 582 q 819 809 874 746 q 688 910 764 872 q 525 947 613 947 q 356 908 432 947 q 226 804 281 868 q 142 659 172 740 q 113 493 113 578 q 143 322 113 404 q 228 177 174 240 q 359 76 283 114 q 525 39 435 39 z "},"œ":{"ha":1451,"x_min":61,"x_max":1406,"o":"m 406 -14 q 271 15 333 -14 q 162 94 208 44 q 88 212 115 144 q 61 357 61 279 q 88 503 61 435 q 163 623 115 572 q 274 703 211 674 q 411 733 338 733 q 517 715 467 733 q 610 663 568 696 q 683 581 653 629 q 731 475 714 533 q 849 665 763 596 q 1056 733 936 733 q 1190 707 1129 733 q 1297 632 1251 681 q 1369 515 1342 583 q 1404 360 1397 446 q 1405 350 1404 358 q 1406 340 1406 342 l 757 340 q 790 217 763 274 q 859 117 817 160 q 957 51 901 75 q 1075 26 1013 26 q 1156 37 1117 26 q 1228 67 1194 47 q 1286 113 1261 86 q 1324 172 1311 140 l 1365 161 q 1319 90 1349 122 q 1250 35 1289 58 q 1165 -1 1211 13 q 1072 -14 1119 -14 q 963 5 1015 -14 q 865 58 910 24 q 785 140 819 93 q 733 244 751 188 q 682 138 714 186 q 607 56 650 90 q 513 4 564 22 q 406 -14 461 -14 m 407 31 q 525 56 469 31 q 621 126 581 82 q 685 231 661 171 q 708 358 708 290 q 685 487 708 426 q 621 592 661 547 q 526 663 581 638 q 410 689 472 689 q 292 663 347 689 q 197 591 238 636 q 132 485 156 546 q 108 356 108 424 q 132 228 108 288 q 196 124 156 168 q 290 56 236 81 q 407 31 344 31 m 1358 378 q 1329 503 1354 446 q 1263 603 1304 561 q 1169 668 1222 644 q 1056 692 1117 692 q 942 668 994 692 q 849 603 889 644 q 785 503 810 561 q 757 378 761 446 l 1358 378 z "},"Ŕ":{"ha":896,"x_min":133,"x_max":826,"o":"m 428 1150 l 394 1168 l 481 1278 l 543 1278 l 428 1150 m 133 0 l 133 986 l 539 986 q 652 960 600 986 q 742 891 704 933 q 800 794 779 849 q 821 685 821 740 q 803 576 821 628 q 754 485 786 525 q 678 418 722 444 q 579 386 633 392 l 826 0 l 771 0 l 526 381 l 182 381 l 182 0 l 133 0 m 182 425 l 547 425 q 641 447 599 425 q 713 506 683 469 q 758 589 742 542 q 774 685 774 636 q 755 781 774 735 q 704 863 736 828 q 629 920 672 899 q 538 942 586 942 l 182 942 l 182 425 z "},"ŕ":{"ha":460,"x_min":113,"x_max":436,"o":"m 243 886 l 210 904 l 296 1014 l 358 1014 l 243 886 m 436 678 q 263 615 336 674 q 160 454 189 556 l 160 0 l 113 0 l 113 722 l 158 722 l 158 539 q 258 664 196 615 q 392 721 321 713 q 417 722 406 722 q 436 722 429 722 l 436 678 z "},"Ŗ":{"ha":896,"x_min":133,"x_max":826,"o":"m 414 -244 l 431 -158 l 414 -158 l 414 -69 l 465 -69 l 465 -158 l 442 -244 l 414 -244 m 133 0 l 133 986 l 539 986 q 652 960 600 986 q 742 891 704 933 q 800 794 779 849 q 821 685 821 740 q 803 576 821 628 q 754 485 786 525 q 678 418 722 444 q 579 386 633 392 l 826 0 l 771 0 l 526 381 l 182 381 l 182 0 l 133 0 m 182 425 l 547 425 q 641 447 599 425 q 713 506 683 469 q 758 589 742 542 q 774 685 774 636 q 755 781 774 735 q 704 863 736 828 q 629 920 672 899 q 538 942 586 942 l 182 942 l 182 425 z "},"ŗ":{"ha":460,"x_min":107,"x_max":436,"o":"m 107 -244 l 124 -158 l 107 -158 l 107 -69 l 158 -69 l 158 -158 l 135 -244 l 107 -244 m 436 678 q 263 615 336 674 q 160 454 189 556 l 160 0 l 113 0 l 113 722 l 158 722 l 158 539 q 258 664 196 615 q 392 721 321 713 q 417 722 406 722 q 436 722 429 722 l 436 678 z "},"Ř":{"ha":896,"x_min":133,"x_max":826,"o":"m 321 1278 l 439 1190 l 557 1278 l 589 1258 l 457 1150 l 421 1150 l 290 1258 l 321 1278 m 133 0 l 133 986 l 539 986 q 652 960 600 986 q 742 891 704 933 q 800 794 779 849 q 821 685 821 740 q 803 576 821 628 q 754 485 786 525 q 678 418 722 444 q 579 386 633 392 l 826 0 l 771 0 l 526 381 l 182 381 l 182 0 l 133 0 m 182 425 l 547 425 q 641 447 599 425 q 713 506 683 469 q 758 589 742 542 q 774 685 774 636 q 755 781 774 735 q 704 863 736 828 q 629 920 672 899 q 538 942 586 942 l 182 942 l 182 425 z "},"ř":{"ha":460,"x_min":106,"x_max":436,"o":"m 136 1014 l 254 926 l 372 1014 l 404 994 l 272 886 l 236 886 l 106 994 l 136 1014 m 436 678 q 263 615 336 674 q 160 454 189 556 l 160 0 l 113 0 l 113 722 l 158 722 l 158 539 q 258 664 196 615 q 392 721 321 713 q 417 722 406 722 q 436 722 429 722 l 436 678 z "},"Ś":{"ha":838,"x_min":51,"x_max":788,"o":"m 418 1175 l 385 1193 l 471 1303 l 533 1303 l 418 1175 m 706 840 q 586 924 651 900 q 433 949 521 949 q 206 889 276 949 q 135 729 135 829 q 152 645 135 679 q 206 588 169 611 q 299 548 242 564 q 435 515 356 532 q 581 479 515 499 q 692 430 646 460 q 763 356 738 400 q 788 246 788 311 q 763 136 788 183 q 693 57 739 89 q 583 9 647 25 q 439 -7 518 -7 q 226 30 321 -7 q 51 143 132 67 l 81 178 q 239 71 150 107 q 440 35 328 35 q 659 85 579 35 q 739 240 739 136 q 719 330 739 293 q 660 392 700 367 q 560 437 621 418 q 418 472 500 456 q 276 507 338 489 q 172 553 214 525 q 108 621 129 581 q 86 722 86 661 q 111 838 86 788 q 181 923 136 889 q 290 975 226 957 q 432 993 354 993 q 600 965 528 993 q 732 876 672 938 l 706 840 z "},"ś":{"ha":661,"x_min":49,"x_max":604,"o":"m 324 886 l 290 904 l 376 1014 l 439 1014 l 324 886 m 332 -14 q 176 14 249 -14 q 49 100 104 42 l 75 132 q 194 53 133 79 q 331 26 256 26 q 494 69 432 26 q 557 190 557 113 q 541 251 557 226 q 494 292 525 275 q 419 323 464 310 q 315 350 374 336 q 212 377 256 364 q 139 408 168 390 q 96 454 110 426 q 82 525 82 482 q 103 618 82 579 q 159 683 124 657 q 241 721 194 708 q 340 733 288 733 q 491 704 428 733 q 583 631 554 675 l 551 607 q 462 671 521 649 q 336 693 403 693 q 256 684 293 693 q 190 655 218 675 q 144 604 161 635 q 128 532 128 574 q 139 476 128 499 q 174 440 150 454 q 235 415 199 425 q 325 392 272 404 q 443 361 392 376 q 531 325 494 346 q 585 274 567 304 q 604 196 604 243 q 585 109 604 147 q 530 43 565 71 q 444 1 494 15 q 332 -14 393 -14 z "},"Ŝ":{"ha":838,"x_min":51,"x_max":788,"o":"m 282 1196 l 413 1303 l 449 1303 l 581 1196 l 549 1175 l 431 1263 l 313 1175 l 282 1196 m 706 840 q 586 924 651 900 q 433 949 521 949 q 206 889 276 949 q 135 729 135 829 q 152 645 135 679 q 206 588 169 611 q 299 548 242 564 q 435 515 356 532 q 581 479 515 499 q 692 430 646 460 q 763 356 738 400 q 788 246 788 311 q 763 136 788 183 q 693 57 739 89 q 583 9 647 25 q 439 -7 518 -7 q 226 30 321 -7 q 51 143 132 67 l 81 178 q 239 71 150 107 q 440 35 328 35 q 659 85 579 35 q 739 240 739 136 q 719 330 739 293 q 660 392 700 367 q 560 437 621 418 q 418 472 500 456 q 276 507 338 489 q 172 553 214 525 q 108 621 129 581 q 86 722 86 661 q 111 838 86 788 q 181 923 136 889 q 290 975 226 957 q 432 993 354 993 q 600 965 528 993 q 732 876 672 938 l 706 840 z "},"ŝ":{"ha":661,"x_min":49,"x_max":604,"o":"m 188 907 l 318 1014 l 354 1014 l 486 907 l 454 886 l 336 974 l 218 886 l 188 907 m 332 -14 q 176 14 249 -14 q 49 100 104 42 l 75 132 q 194 53 133 79 q 331 26 256 26 q 494 69 432 26 q 557 190 557 113 q 541 251 557 226 q 494 292 525 275 q 419 323 464 310 q 315 350 374 336 q 212 377 256 364 q 139 408 168 390 q 96 454 110 426 q 82 525 82 482 q 103 618 82 579 q 159 683 124 657 q 241 721 194 708 q 340 733 288 733 q 491 704 428 733 q 583 631 554 675 l 551 607 q 462 671 521 649 q 336 693 403 693 q 256 684 293 693 q 190 655 218 675 q 144 604 161 635 q 128 532 128 574 q 139 476 128 499 q 174 440 150 454 q 235 415 199 425 q 325 392 272 404 q 443 361 392 376 q 531 325 494 346 q 585 274 567 304 q 604 196 604 243 q 585 109 604 147 q 530 43 565 71 q 444 1 494 15 q 332 -14 393 -14 z "},"Ş":{"ha":840,"x_min":53,"x_max":789,"o":"m 344 -174 q 397 -191 364 -183 q 465 -199 429 -199 q 526 -187 506 -199 q 546 -147 546 -175 q 527 -107 546 -118 q 478 -96 508 -96 q 417 -103 449 -96 q 365 -117 385 -110 l 428 -7 q 223 32 314 -4 q 53 143 132 68 l 82 178 q 240 71 151 107 q 442 35 329 35 q 660 85 581 35 q 740 240 740 136 q 721 330 740 293 q 662 392 701 367 q 562 437 622 418 q 419 472 501 456 q 277 507 339 489 q 173 553 215 525 q 109 621 131 581 q 88 722 88 661 q 113 838 88 788 q 183 923 138 889 q 292 975 228 957 q 433 993 356 993 q 601 965 529 993 q 733 876 674 938 l 707 840 q 588 924 653 900 q 435 949 522 949 q 207 889 278 949 q 136 729 136 829 q 153 645 136 679 q 207 588 171 611 q 300 548 243 564 q 436 515 357 532 q 582 479 517 499 q 693 430 647 460 q 764 356 739 400 q 789 246 789 311 q 702 63 789 126 q 468 -6 615 0 l 426 -76 q 456 -69 440 -71 q 483 -68 472 -68 q 581 -146 581 -68 q 549 -210 581 -190 q 460 -231 518 -231 q 388 -223 422 -231 q 328 -204 354 -215 l 344 -174 z "},"ş":{"ha":663,"x_min":49,"x_max":604,"o":"m 226 -174 q 278 -191 246 -183 q 347 -199 311 -199 q 408 -187 388 -199 q 428 -147 428 -175 q 409 -107 428 -118 q 360 -96 390 -96 q 299 -103 331 -96 q 247 -117 267 -110 l 306 -12 q 165 19 231 -8 q 49 100 100 47 l 75 132 q 194 53 133 79 q 331 26 256 26 q 494 69 432 26 q 557 190 557 113 q 541 251 557 226 q 494 292 525 275 q 419 323 464 310 q 315 350 374 336 q 212 377 256 364 q 139 408 168 390 q 96 454 110 426 q 82 525 82 482 q 103 618 82 579 q 159 683 124 657 q 241 721 194 708 q 340 733 288 733 q 491 704 428 733 q 583 631 554 675 l 551 607 q 462 671 521 649 q 336 693 403 693 q 256 684 293 693 q 190 655 218 675 q 144 604 161 635 q 128 532 128 574 q 139 476 128 499 q 174 440 150 454 q 235 415 199 425 q 325 392 272 404 q 443 361 392 376 q 531 325 494 346 q 585 274 567 304 q 604 196 604 243 q 534 46 604 101 q 346 -14 464 -10 l 308 -76 q 338 -69 322 -71 q 365 -68 354 -68 q 463 -146 463 -68 q 431 -210 463 -190 q 342 -231 400 -231 q 270 -223 304 -231 q 210 -204 236 -215 l 226 -174 z "},"Š":{"ha":838,"x_min":51,"x_max":788,"o":"m 313 1303 l 431 1215 l 549 1303 l 581 1283 l 449 1175 l 413 1175 l 282 1283 l 313 1303 m 706 840 q 586 924 651 900 q 433 949 521 949 q 206 889 276 949 q 135 729 135 829 q 152 645 135 679 q 206 588 169 611 q 299 548 242 564 q 435 515 356 532 q 581 479 515 499 q 692 430 646 460 q 763 356 738 400 q 788 246 788 311 q 763 136 788 183 q 693 57 739 89 q 583 9 647 25 q 439 -7 518 -7 q 226 30 321 -7 q 51 143 132 67 l 81 178 q 239 71 150 107 q 440 35 328 35 q 659 85 579 35 q 739 240 739 136 q 719 330 739 293 q 660 392 700 367 q 560 437 621 418 q 418 472 500 456 q 276 507 338 489 q 172 553 214 525 q 108 621 129 581 q 86 722 86 661 q 111 838 86 788 q 181 923 136 889 q 290 975 226 957 q 432 993 354 993 q 600 965 528 993 q 732 876 672 938 l 706 840 z "},"š":{"ha":661,"x_min":49,"x_max":604,"o":"m 218 1014 l 336 926 l 454 1014 l 486 994 l 354 886 l 318 886 l 188 994 l 218 1014 m 332 -14 q 176 14 249 -14 q 49 100 104 42 l 75 132 q 194 53 133 79 q 331 26 256 26 q 494 69 432 26 q 557 190 557 113 q 541 251 557 226 q 494 292 525 275 q 419 323 464 310 q 315 350 374 336 q 212 377 256 364 q 139 408 168 390 q 96 454 110 426 q 82 525 82 482 q 103 618 82 579 q 159 683 124 657 q 241 721 194 708 q 340 733 288 733 q 491 704 428 733 q 583 631 554 675 l 551 607 q 462 671 521 649 q 336 693 403 693 q 256 684 293 693 q 190 655 218 675 q 144 604 161 635 q 128 532 128 574 q 139 476 128 499 q 174 440 150 454 q 235 415 199 425 q 325 392 272 404 q 443 361 392 376 q 531 325 494 346 q 585 274 567 304 q 604 196 604 243 q 585 109 604 147 q 530 43 565 71 q 444 1 494 15 q 332 -14 393 -14 z "},"Ţ":{"ha":836,"x_min":24,"x_max":811,"o":"m 310 -174 q 362 -191 329 -183 q 431 -199 394 -199 q 491 -187 471 -199 q 511 -147 511 -175 q 492 -107 511 -118 q 443 -96 474 -96 q 382 -103 414 -96 q 331 -117 350 -110 l 399 0 l 393 0 l 393 942 l 24 942 l 24 986 l 811 986 l 811 942 l 442 942 l 442 0 l 436 0 l 392 -76 q 422 -69 406 -71 q 449 -68 438 -68 q 546 -146 546 -68 q 515 -210 546 -190 q 425 -231 483 -231 q 353 -223 388 -231 q 293 -204 319 -215 l 310 -174 z "},"ţ":{"ha":426,"x_min":36,"x_max":413,"o":"m 165 -174 q 217 -191 185 -183 q 286 -199 250 -199 q 347 -187 326 -199 q 367 -147 367 -175 q 348 -107 367 -118 q 299 -96 329 -96 q 238 -103 269 -96 q 186 -117 206 -110 l 249 -6 q 171 32 203 1 q 139 113 139 63 l 139 681 l 36 681 l 36 722 l 139 722 l 139 971 l 186 971 l 186 722 l 357 722 l 357 681 l 186 681 l 186 119 q 217 58 189 79 q 281 38 244 38 q 323 42 303 38 q 358 53 343 47 q 383 65 374 60 q 394 72 393 71 l 413 33 q 400 26 410 32 q 374 15 390 21 q 335 2 357 8 q 289 -6 314 -4 l 247 -76 q 277 -69 261 -71 q 304 -68 293 -68 q 401 -146 401 -68 q 370 -210 401 -190 q 281 -231 339 -231 q 209 -223 243 -231 q 149 -204 175 -215 l 165 -174 z "},"Ť":{"ha":838,"x_min":25,"x_max":813,"o":"m 301 1275 l 419 1188 l 538 1275 l 569 1256 l 438 1147 l 401 1147 l 271 1256 l 301 1275 m 813 942 l 443 942 l 443 0 l 394 0 l 394 942 l 25 942 l 25 986 l 813 986 l 813 942 z "},"ť":{"ha":426,"x_min":36,"x_max":439,"o":"m 324 886 l 290 904 l 376 1014 l 439 1014 l 324 886 m 413 33 q 399 26 410 32 q 369 12 388 19 q 326 -1 350 4 q 272 -7 301 -7 q 178 24 218 -7 q 139 113 139 56 l 139 681 l 36 681 l 36 722 l 139 722 l 139 971 l 186 971 l 186 722 l 357 722 l 357 681 l 186 681 l 186 119 q 217 58 189 79 q 281 38 244 38 q 323 42 303 38 q 358 53 343 47 q 383 65 374 60 q 394 72 393 71 l 413 33 z "},"Ŧ":{"ha":889,"x_min":51,"x_max":839,"o":"m 839 942 l 469 942 l 469 581 l 796 581 l 796 546 l 469 546 l 469 0 l 421 0 l 421 546 l 93 546 l 93 581 l 421 581 l 421 942 l 51 942 l 51 986 l 839 986 l 839 942 z "},"ŧ":{"ha":429,"x_min":38,"x_max":414,"o":"m 414 33 q 400 26 411 32 q 370 12 389 19 q 327 -1 351 4 q 274 -7 303 -7 q 180 24 219 -7 q 140 113 140 56 l 140 458 l 38 458 l 38 496 l 140 496 l 140 681 l 38 681 l 38 722 l 140 722 l 140 971 l 188 971 l 188 722 l 358 722 l 358 681 l 188 681 l 188 496 l 358 496 l 358 458 l 188 458 l 188 119 q 218 58 190 79 q 282 38 246 38 q 324 42 304 38 q 360 53 344 47 q 385 65 375 60 q 396 72 394 71 l 414 33 z "},"Ũ":{"ha":1050,"x_min":118,"x_max":932,"o":"m 525 39 q 701 78 631 39 q 811 182 771 118 q 868 327 851 246 q 885 492 885 408 l 885 986 l 932 986 l 932 492 q 911 303 932 393 q 842 144 890 213 q 717 34 794 75 q 526 -7 640 -7 q 331 36 410 -7 q 206 149 253 79 q 138 309 158 219 q 118 492 118 399 l 118 986 l 167 986 l 167 492 q 183 324 167 406 q 242 180 200 243 q 352 78 283 117 q 525 39 421 39 m 611 1172 q 558 1181 581 1172 q 515 1199 535 1189 q 476 1217 494 1208 q 436 1225 458 1225 q 400 1216 414 1225 q 379 1195 386 1207 q 369 1172 372 1183 q 367 1158 367 1161 l 329 1158 q 333 1180 329 1163 q 348 1215 336 1197 q 381 1248 360 1233 q 439 1263 403 1263 q 488 1254 467 1263 q 527 1235 508 1246 q 566 1217 546 1225 q 613 1208 586 1208 q 658 1218 642 1208 q 682 1240 674 1228 q 692 1262 690 1251 q 694 1275 694 1272 l 731 1275 q 726 1253 731 1269 q 710 1218 722 1236 q 674 1186 697 1200 q 611 1172 650 1172 z "},"ũ":{"ha":807,"x_min":106,"x_max":717,"o":"m 336 -14 q 164 68 222 -14 q 106 311 106 150 l 106 722 l 153 722 l 153 317 q 346 31 153 31 q 442 48 394 31 q 528 96 489 65 q 598 169 568 126 q 644 264 628 213 l 644 722 l 692 722 l 692 75 q 717 44 692 44 l 717 0 q 703 -1 711 -1 q 664 16 681 -1 q 647 58 647 33 l 647 178 q 517 38 600 89 q 336 -14 433 -14 m 481 911 q 427 919 450 911 q 384 938 404 928 q 346 956 364 947 q 306 964 328 964 q 269 955 283 964 q 249 934 256 946 q 239 911 242 922 q 236 897 236 900 l 199 897 q 202 919 199 901 q 217 954 206 936 q 251 987 229 972 q 308 1001 272 1001 q 357 993 336 1001 q 397 974 378 985 q 435 956 415 964 q 482 947 456 947 q 527 957 511 947 q 551 978 543 967 q 562 1001 560 990 q 564 1014 564 1011 l 600 1014 q 596 992 600 1008 q 579 957 592 975 q 543 925 567 939 q 481 911 519 911 z "},"Ū":{"ha":1050,"x_min":118,"x_max":932,"o":"m 525 39 q 701 78 631 39 q 811 182 771 118 q 868 327 851 246 q 885 492 885 408 l 885 986 l 932 986 l 932 492 q 911 303 932 393 q 842 144 890 213 q 717 34 794 75 q 526 -7 640 -7 q 331 36 410 -7 q 206 149 253 79 q 138 309 158 219 q 118 492 118 399 l 118 986 l 167 986 l 167 492 q 183 324 167 406 q 242 180 200 243 q 352 78 283 117 q 525 39 421 39 m 329 1204 l 329 1243 l 722 1243 l 722 1204 l 329 1204 z "},"ū":{"ha":807,"x_min":106,"x_max":717,"o":"m 336 -14 q 164 68 222 -14 q 106 311 106 150 l 106 722 l 153 722 l 153 317 q 346 31 153 31 q 442 48 394 31 q 528 96 489 65 q 598 169 568 126 q 644 264 628 213 l 644 722 l 692 722 l 692 75 q 717 44 692 44 l 717 0 q 703 -1 711 -1 q 664 16 681 -1 q 647 58 647 33 l 647 178 q 517 38 600 89 q 336 -14 433 -14 m 199 943 l 199 982 l 592 982 l 592 943 l 199 943 z "},"Ŭ":{"ha":1050,"x_min":118,"x_max":932,"o":"m 525 39 q 701 78 631 39 q 811 182 771 118 q 868 327 851 246 q 885 492 885 408 l 885 986 l 932 986 l 932 492 q 911 303 932 393 q 842 144 890 213 q 717 34 794 75 q 526 -7 640 -7 q 331 36 410 -7 q 206 149 253 79 q 138 309 158 219 q 118 492 118 399 l 118 986 l 167 986 l 167 492 q 183 324 167 406 q 242 180 200 243 q 352 78 283 117 q 525 39 421 39 m 526 1189 q 577 1214 554 1189 q 604 1275 600 1239 l 639 1275 q 630 1230 639 1251 q 605 1192 621 1208 q 569 1167 589 1176 q 526 1158 549 1158 q 483 1167 503 1158 q 447 1192 463 1176 q 423 1230 432 1208 q 414 1275 414 1251 l 450 1275 q 474 1216 450 1243 q 526 1189 497 1189 z "},"ŭ":{"ha":807,"x_min":106,"x_max":717,"o":"m 336 -14 q 164 68 222 -14 q 106 311 106 150 l 106 722 l 153 722 l 153 317 q 346 31 153 31 q 442 48 394 31 q 528 96 489 65 q 598 169 568 126 q 644 264 628 213 l 644 722 l 692 722 l 692 75 q 717 44 692 44 l 717 0 q 703 -1 711 -1 q 664 16 681 -1 q 647 58 647 33 l 647 178 q 517 38 600 89 q 336 -14 433 -14 m 396 928 q 447 953 424 928 q 474 1014 469 978 l 508 1014 q 499 969 508 990 q 474 931 490 947 q 438 906 458 915 q 396 897 418 897 q 352 906 372 897 q 317 931 332 915 q 292 969 301 947 q 283 1014 283 990 l 319 1014 q 343 955 319 982 q 396 928 367 928 z "},"Ů":{"ha":1050,"x_min":118,"x_max":932,"o":"m 440 1193 q 465 1252 440 1229 q 525 1275 489 1275 q 587 1252 563 1275 q 611 1193 611 1229 q 587 1133 611 1157 q 525 1110 563 1110 q 465 1133 489 1110 q 440 1193 440 1157 m 525 1249 q 485 1233 501 1249 q 469 1193 469 1218 q 485 1153 469 1169 q 525 1136 501 1136 q 565 1152 547 1136 q 582 1193 582 1168 q 565 1233 582 1218 q 525 1249 549 1249 m 525 39 q 701 78 631 39 q 811 182 771 118 q 868 327 851 246 q 885 492 885 408 l 885 986 l 932 986 l 932 492 q 911 303 932 393 q 842 144 890 213 q 717 34 794 75 q 526 -7 640 -7 q 331 36 410 -7 q 206 149 253 79 q 138 309 158 219 q 118 492 118 399 l 118 986 l 167 986 l 167 492 q 183 324 167 406 q 242 180 200 243 q 352 78 283 117 q 525 39 421 39 z "},"ů":{"ha":807,"x_min":106,"x_max":717,"o":"m 310 932 q 334 991 310 968 q 394 1014 358 1014 q 456 991 432 1014 q 481 932 481 968 q 456 872 481 896 q 394 849 432 849 q 334 872 358 849 q 310 932 310 896 m 394 988 q 355 972 371 988 q 339 932 339 957 q 355 892 339 908 q 394 875 371 875 q 434 891 417 875 q 451 932 451 907 q 435 972 451 957 q 394 988 418 988 m 336 -14 q 164 68 222 -14 q 106 311 106 150 l 106 722 l 153 722 l 153 317 q 346 31 153 31 q 442 48 394 31 q 528 96 489 65 q 598 169 568 126 q 644 264 628 213 l 644 722 l 692 722 l 692 75 q 717 44 692 44 l 717 0 q 703 -1 711 -1 q 664 16 681 -1 q 647 58 647 33 l 647 178 q 517 38 600 89 q 336 -14 433 -14 z "},"Ű":{"ha":1050,"x_min":118,"x_max":932,"o":"m 525 39 q 701 78 631 39 q 811 182 771 118 q 868 327 851 246 q 885 492 885 408 l 885 986 l 932 986 l 932 492 q 911 303 932 393 q 842 144 890 213 q 717 34 794 75 q 526 -7 640 -7 q 331 36 410 -7 q 206 149 253 79 q 138 309 158 219 q 118 492 118 399 l 118 986 l 167 986 l 167 492 q 183 324 167 406 q 242 180 200 243 q 352 78 283 117 q 525 39 421 39 m 438 1147 l 407 1165 l 493 1275 l 553 1275 l 438 1147 m 588 1147 l 556 1165 l 642 1275 l 701 1275 l 588 1147 z "},"ű":{"ha":807,"x_min":106,"x_max":717,"o":"m 336 -14 q 164 68 222 -14 q 106 311 106 150 l 106 722 l 153 722 l 153 317 q 346 31 153 31 q 442 48 394 31 q 528 96 489 65 q 598 169 568 126 q 644 264 628 213 l 644 722 l 692 722 l 692 75 q 717 44 692 44 l 717 0 q 703 -1 711 -1 q 664 16 681 -1 q 647 58 647 33 l 647 178 q 517 38 600 89 q 336 -14 433 -14 m 307 886 l 276 904 l 363 1014 l 422 1014 l 307 886 m 457 886 l 425 904 l 511 1014 l 571 1014 l 457 886 z "},"Ų":{"ha":1051,"x_min":118,"x_max":932,"o":"m 525 39 q 701 78 631 39 q 811 182 771 118 q 868 327 851 246 q 885 492 885 408 l 885 986 l 932 986 l 932 492 q 912 307 932 396 q 847 150 892 218 q 728 40 801 82 q 546 -6 654 -3 q 458 -76 483 -47 q 433 -136 433 -106 q 499 -201 433 -189 l 479 -233 q 418 -200 439 -224 q 397 -143 397 -176 q 420 -77 397 -110 q 496 -6 443 -44 q 315 44 388 0 q 198 158 242 89 q 136 315 154 228 q 118 492 118 401 l 118 986 l 167 986 l 167 492 q 183 324 167 406 q 242 180 200 243 q 352 78 283 117 q 525 39 421 39 z "},"ų":{"ha":807,"x_min":106,"x_max":717,"o":"m 336 -14 q 164 68 222 -14 q 106 311 106 150 l 106 722 l 153 722 l 153 317 q 346 31 153 31 q 442 48 394 31 q 528 96 489 65 q 598 169 568 126 q 644 264 628 213 l 644 722 l 692 722 l 692 75 q 717 44 692 44 l 717 0 q 628 -71 654 -42 q 603 -131 603 -100 q 668 -196 603 -183 l 649 -228 q 588 -194 608 -218 q 567 -137 567 -171 q 592 -69 567 -103 q 675 6 617 -35 q 647 58 647 24 l 647 178 q 517 38 600 89 q 336 -14 433 -14 z "},"Ŵ":{"ha":1444,"x_min":24,"x_max":1422,"o":"m 572 1168 l 703 1275 l 739 1275 l 871 1168 l 839 1147 l 721 1235 l 603 1147 l 572 1168 m 519 978 l 568 978 l 721 614 l 876 978 l 925 978 l 750 571 l 972 57 l 1369 986 l 1422 986 l 996 0 l 949 0 l 722 525 l 496 0 l 449 0 l 24 986 l 75 986 l 474 57 l 694 571 l 519 978 z "},"ŵ":{"ha":1111,"x_min":31,"x_max":1079,"o":"m 407 907 l 538 1014 l 574 1014 l 706 907 l 674 886 l 556 974 l 438 886 l 407 907 m 1031 722 l 1079 722 l 765 0 l 725 0 l 556 394 l 385 0 l 344 0 l 31 722 l 79 722 l 367 57 l 529 436 l 408 721 l 451 721 l 556 478 l 658 721 l 703 721 l 581 436 l 744 57 l 1031 722 z "},"Ŷ":{"ha":894,"x_min":29,"x_max":865,"o":"m 83 986 l 446 426 l 813 986 l 865 986 l 471 378 l 471 0 l 422 0 l 422 381 l 29 986 l 83 986 m 297 1168 l 428 1275 l 464 1275 l 596 1168 l 564 1147 l 446 1235 l 328 1147 l 297 1168 z "},"ŷ":{"ha":747,"x_min":26,"x_max":714,"o":"m 168 -264 q 233 -254 215 -264 q 248 -240 240 -250 q 268 -202 256 -229 q 301 -127 281 -175 q 356 0 322 -79 l 26 722 l 76 722 l 381 50 l 667 722 l 714 722 l 301 -244 q 225 -304 282 -292 q 197 -308 211 -307 q 168 -308 183 -308 l 168 -264 m 232 907 l 363 1014 l 399 1014 l 531 907 l 499 886 l 381 974 l 263 886 l 232 907 z "},"Ÿ":{"ha":894,"x_min":29,"x_max":865,"o":"m 83 986 l 446 426 l 813 986 l 865 986 l 471 378 l 471 0 l 422 0 l 422 381 l 29 986 l 83 986 m 338 1160 l 338 1274 l 381 1274 l 381 1160 l 338 1160 m 513 1160 l 513 1274 l 556 1274 l 556 1160 l 513 1160 z "},"Ź":{"ha":868,"x_min":40,"x_max":826,"o":"m 447 1147 l 414 1165 l 500 1275 l 563 1275 l 447 1147 m 40 42 l 769 942 l 49 942 l 49 986 l 826 986 l 826 944 l 100 44 l 822 44 l 822 0 l 40 0 l 40 42 z "},"ź":{"ha":679,"x_min":44,"x_max":632,"o":"m 347 886 l 314 904 l 400 1014 l 463 1014 l 347 886 m 44 39 l 578 682 l 53 682 l 53 722 l 632 722 l 632 683 l 101 40 l 628 40 l 628 0 l 44 0 l 44 39 z "},"Ż":{"ha":868,"x_min":40,"x_max":826,"o":"m 40 42 l 769 942 l 49 942 l 49 986 l 826 986 l 826 944 l 100 44 l 822 44 l 822 0 l 40 0 l 40 42 m 436 1160 l 436 1275 l 481 1275 l 481 1160 l 436 1160 z "},"ż":{"ha":679,"x_min":44,"x_max":632,"o":"m 44 39 l 578 682 l 53 682 l 53 722 l 632 722 l 632 683 l 101 40 l 628 40 l 628 0 l 44 0 l 44 39 m 336 899 l 336 1014 l 381 1014 l 381 899 l 336 899 z "},"Ž":{"ha":868,"x_min":40,"x_max":826,"o":"m 340 1275 l 458 1188 l 576 1275 l 608 1256 l 476 1147 l 440 1147 l 310 1256 l 340 1275 m 40 42 l 769 942 l 49 942 l 49 986 l 826 986 l 826 944 l 100 44 l 822 44 l 822 0 l 40 0 l 40 42 z "},"ž":{"ha":679,"x_min":44,"x_max":632,"o":"m 240 1014 l 358 926 l 476 1014 l 508 994 l 376 886 l 340 886 l 210 994 l 240 1014 m 44 39 l 578 682 l 53 682 l 53 722 l 632 722 l 632 683 l 101 40 l 628 40 l 628 0 l 44 0 l 44 39 z "},"Ə":{"ha":1025,"x_min":44,"x_max":961,"o":"m 508 -12 q 325 27 410 -12 q 178 134 240 67 q 80 292 115 201 q 44 488 44 383 l 44 511 l 908 511 q 867 684 901 604 q 776 822 832 764 q 649 913 721 881 q 496 946 576 946 q 390 931 442 946 q 294 888 339 915 q 215 823 249 861 q 163 738 181 785 l 115 758 q 176 851 136 808 q 267 926 215 894 q 378 975 318 957 q 501 993 439 993 q 680 953 596 993 q 826 843 764 913 q 925 681 889 774 q 961 482 961 588 q 926 289 961 379 q 829 132 890 199 q 685 26 768 65 q 508 -12 603 -12 m 506 35 q 659 67 588 35 q 785 158 731 100 q 872 294 839 215 q 910 465 906 372 l 97 465 q 137 292 103 371 q 225 156 171 214 q 351 67 279 99 q 506 35 422 35 z "},"ƒ":{"ha":713,"x_min":42,"x_max":667,"o":"m 186 -240 q 107 -230 144 -240 q 42 -192 69 -219 l 71 -161 q 124 -189 94 -182 q 182 -196 154 -196 q 237 -184 210 -196 q 285 -152 264 -172 q 319 -105 306 -132 q 332 -46 332 -78 l 332 596 l 229 596 l 229 638 l 332 638 l 332 749 q 384 954 332 881 q 529 1028 436 1028 q 607 1015 569 1028 q 667 981 644 1001 l 643 950 q 596 975 625 965 q 535 985 567 985 q 419 924 460 985 q 379 749 379 864 l 379 638 l 590 638 l 590 596 l 379 596 l 379 -46 q 362 -124 379 -89 q 317 -185 344 -160 q 256 -226 290 -211 q 186 -240 221 -240 z "},"Ǆ":{"ha":1857,"x_min":133,"x_max":1815,"o":"m 1329 1275 l 1447 1188 l 1565 1275 l 1597 1256 l 1465 1147 l 1429 1147 l 1299 1256 l 1329 1275 m 1029 42 l 1758 942 l 1038 942 l 1038 986 l 1815 986 l 1815 944 l 1089 44 l 1811 44 l 1811 0 l 1029 0 l 1029 42 m 133 0 l 133 986 l 456 986 q 660 947 572 986 q 805 842 747 908 q 892 685 863 775 q 921 494 921 596 q 888 291 921 382 q 795 135 856 200 q 649 35 735 71 q 456 0 563 0 l 133 0 m 872 494 q 845 674 872 592 q 765 815 818 756 q 633 908 711 875 q 456 942 556 942 l 182 942 l 182 44 l 456 44 q 636 78 558 44 q 767 173 714 113 q 846 316 819 233 q 872 494 872 399 z "},"ǅ":{"ha":1668,"x_min":133,"x_max":1621,"o":"m 1229 1014 l 1347 926 l 1465 1014 l 1497 994 l 1365 886 l 1329 886 l 1199 994 l 1229 1014 m 1033 39 l 1567 682 l 1042 682 l 1042 722 l 1621 722 l 1621 683 l 1090 40 l 1617 40 l 1617 0 l 1033 0 l 1033 39 m 133 0 l 133 986 l 456 986 q 660 947 572 986 q 805 842 747 908 q 892 685 863 775 q 921 494 921 596 q 888 291 921 382 q 795 135 856 200 q 649 35 735 71 q 456 0 563 0 l 133 0 m 872 494 q 845 674 872 592 q 765 815 818 756 q 633 908 711 875 q 456 942 556 942 l 182 942 l 182 44 l 456 44 q 636 78 558 44 q 767 173 714 113 q 846 316 819 233 q 872 494 872 399 z "},"ǆ":{"ha":1525,"x_min":61,"x_max":1478,"o":"m 1086 1014 l 1204 926 l 1322 1014 l 1354 994 l 1222 886 l 1186 886 l 1056 994 l 1086 1014 m 890 39 l 1424 682 l 899 682 l 899 722 l 1478 722 l 1478 683 l 947 40 l 1474 40 l 1474 0 l 890 0 l 890 39 m 408 -14 q 269 18 333 -14 q 159 102 206 50 q 87 221 113 154 q 61 358 61 288 q 86 501 61 433 q 156 621 111 569 q 261 703 200 672 q 394 733 322 733 q 486 719 443 733 q 566 681 529 706 q 633 625 603 657 q 683 558 663 593 l 683 1014 l 731 1014 l 731 75 q 756 44 731 44 l 756 0 q 744 -1 751 -1 q 703 17 719 -1 q 686 60 686 36 l 686 147 q 633 81 664 111 q 565 31 601 51 q 489 -2 529 10 q 408 -14 449 -14 m 414 31 q 500 47 454 31 q 585 92 546 64 q 652 159 625 121 q 683 239 679 197 l 683 488 q 638 566 668 529 q 569 630 608 603 q 487 673 531 657 q 401 689 443 689 q 281 660 335 689 q 189 585 226 632 q 131 480 151 539 q 110 358 110 421 q 133 234 110 293 q 198 130 157 175 q 294 58 239 85 q 414 31 350 31 z "},"Ǉ":{"ha":1465,"x_min":133,"x_max":1344,"o":"m 849 85 q 1044 31 926 31 q 1179 61 1129 31 q 1256 150 1229 92 q 1290 293 1282 208 q 1297 485 1297 378 l 1297 986 l 1344 986 l 1344 485 q 1335 280 1344 372 q 1294 122 1325 188 q 1203 21 1263 57 q 1044 -15 1144 -15 q 831 46 919 -15 l 849 85 m 133 0 l 133 986 l 182 986 l 182 44 l 786 44 l 786 0 l 133 0 z "},"ǈ":{"ha":1089,"x_min":133,"x_max":976,"o":"m 783 -240 q 704 -230 742 -240 q 639 -192 667 -219 l 668 -161 q 722 -189 692 -182 q 779 -196 751 -196 q 834 -184 807 -196 q 882 -152 861 -172 q 916 -105 903 -132 q 929 -46 929 -78 l 929 722 l 976 722 l 976 -44 q 959 -124 976 -87 q 915 -185 942 -160 q 853 -226 888 -211 q 783 -240 818 -240 m 929 897 l 929 1014 l 976 1014 l 976 897 l 929 897 m 133 0 l 133 986 l 182 986 l 182 44 l 786 44 l 786 0 l 133 0 z "},"ǉ":{"ha":628,"x_min":121,"x_max":515,"o":"m 322 -240 q 243 -230 281 -240 q 178 -192 206 -219 l 207 -161 q 260 -189 231 -182 q 318 -196 290 -196 q 373 -184 346 -196 q 421 -152 400 -172 q 455 -105 442 -132 q 468 -46 468 -78 l 468 722 l 515 722 l 515 -44 q 498 -124 515 -87 q 453 -185 481 -160 q 392 -226 426 -211 q 322 -240 357 -240 m 468 897 l 468 1014 l 515 1014 l 515 897 l 468 897 m 121 1014 l 167 1014 l 167 124 q 192 60 167 83 q 257 36 217 36 q 294 40 272 36 q 333 50 315 43 l 344 11 q 292 -1 324 4 q 239 -7 261 -7 q 153 26 186 -7 q 121 114 121 58 l 121 1014 z "},"Ǌ":{"ha":1736,"x_min":133,"x_max":1615,"o":"m 1119 85 q 1315 31 1197 31 q 1450 61 1400 31 q 1526 150 1500 92 q 1560 293 1553 208 q 1568 485 1568 378 l 1568 986 l 1615 986 l 1615 485 q 1606 280 1615 372 q 1565 122 1596 188 q 1474 21 1533 57 q 1315 -15 1415 -15 q 1101 46 1190 -15 l 1119 85 m 182 894 l 182 0 l 133 0 l 133 986 l 169 986 l 894 76 l 894 986 l 943 986 l 943 0 l 896 0 l 182 894 z "},"ǋ":{"ha":1360,"x_min":133,"x_max":1247,"o":"m 1054 -240 q 975 -230 1013 -240 q 910 -192 938 -219 l 939 -161 q 992 -189 963 -182 q 1050 -196 1022 -196 q 1105 -184 1078 -196 q 1153 -152 1132 -172 q 1187 -105 1174 -132 q 1200 -46 1200 -78 l 1200 722 l 1247 722 l 1247 -44 q 1230 -124 1247 -87 q 1185 -185 1213 -160 q 1124 -226 1158 -211 q 1054 -240 1089 -240 m 1200 897 l 1200 1014 l 1247 1014 l 1247 897 l 1200 897 m 182 894 l 182 0 l 133 0 l 133 986 l 169 986 l 894 76 l 894 986 l 943 986 l 943 0 l 896 0 l 182 894 z "},"ǌ":{"ha":1076,"x_min":113,"x_max":963,"o":"m 769 -240 q 690 -230 728 -240 q 625 -192 653 -219 l 654 -161 q 708 -189 678 -182 q 765 -196 738 -196 q 820 -184 793 -196 q 868 -152 847 -172 q 902 -105 889 -132 q 915 -46 915 -78 l 915 722 l 963 722 l 963 -44 q 945 -124 963 -87 q 901 -185 928 -160 q 839 -226 874 -211 q 769 -240 804 -240 m 915 897 l 915 1014 l 963 1014 l 963 897 l 915 897 m 688 0 l 640 0 l 640 403 q 598 620 640 551 q 464 689 556 689 q 367 671 415 689 q 277 621 318 653 q 205 546 236 589 q 160 451 174 503 l 160 0 l 113 0 l 113 722 l 158 722 l 158 542 q 214 620 181 585 q 289 681 247 656 q 377 719 331 706 q 472 733 424 733 q 637 652 586 733 q 688 408 688 571 l 688 0 z "},"Ǫ":{"ha":1049,"x_min":64,"x_max":985,"o":"m 479 -233 q 418 -200 439 -224 q 397 -143 397 -176 q 420 -77 397 -110 q 496 -6 443 -44 q 320 46 400 1 q 183 159 240 90 q 95 315 126 228 q 64 493 64 401 q 99 682 64 592 q 197 842 135 772 q 342 952 258 911 q 525 993 426 993 q 713 949 628 993 q 858 835 797 906 q 951 674 918 764 q 985 493 985 585 q 951 308 985 396 q 859 151 918 219 q 719 41 800 83 q 546 -6 639 -1 q 458 -76 483 -47 q 433 -136 433 -106 q 499 -201 433 -189 l 479 -233 m 113 493 q 143 322 113 404 q 228 177 174 240 q 359 76 283 114 q 525 39 435 39 q 694 78 618 39 q 824 182 769 118 q 907 328 878 246 q 936 493 936 410 q 905 664 936 582 q 819 809 874 746 q 688 910 764 872 q 525 947 613 947 q 356 908 432 947 q 226 804 281 868 q 142 659 172 740 q 113 493 113 578 z "},"ǫ":{"ha":818,"x_min":61,"x_max":757,"o":"m 379 -239 q 318 -206 339 -229 q 297 -149 297 -182 q 319 -84 297 -117 q 393 -14 342 -51 q 262 20 322 -11 q 156 102 201 51 q 86 219 111 153 q 61 358 61 285 q 88 503 61 435 q 163 622 115 571 q 273 703 210 674 q 408 733 336 733 q 544 703 481 733 q 656 622 608 674 q 730 503 703 571 q 757 358 757 435 q 733 224 757 288 q 668 110 710 160 q 569 28 626 60 q 446 -11 513 -4 q 358 -82 383 -53 q 333 -142 333 -111 q 399 -207 333 -194 l 379 -239 m 108 357 q 132 231 108 290 q 196 126 156 171 q 291 56 236 82 q 407 31 346 31 q 524 57 469 31 q 620 128 579 83 q 685 233 661 172 q 708 360 708 293 q 685 487 708 426 q 620 592 661 547 q 524 663 579 636 q 408 689 469 689 q 293 663 347 689 q 198 591 239 636 q 133 485 157 546 q 108 357 108 425 z "},"Ǳ":{"ha":1833,"x_min":133,"x_max":1792,"o":"m 1006 42 l 1735 942 l 1014 942 l 1014 986 l 1792 986 l 1792 944 l 1065 44 l 1788 44 l 1788 0 l 1006 0 l 1006 42 m 133 0 l 133 986 l 456 986 q 660 947 572 986 q 805 842 747 908 q 892 685 863 775 q 921 494 921 596 q 888 291 921 382 q 795 135 856 200 q 649 35 735 71 q 456 0 563 0 l 133 0 m 872 494 q 845 674 872 592 q 765 815 818 756 q 633 908 711 875 q 456 942 556 942 l 182 942 l 182 44 l 456 44 q 636 78 558 44 q 767 173 714 113 q 846 316 819 233 q 872 494 872 399 z "},"ǲ":{"ha":1668,"x_min":133,"x_max":1621,"o":"m 1033 39 l 1567 682 l 1042 682 l 1042 722 l 1621 722 l 1621 683 l 1090 40 l 1617 40 l 1617 0 l 1033 0 l 1033 39 m 133 0 l 133 986 l 456 986 q 660 947 572 986 q 805 842 747 908 q 892 685 863 775 q 921 494 921 596 q 888 291 921 382 q 795 135 856 200 q 649 35 735 71 q 456 0 563 0 l 133 0 m 872 494 q 845 674 872 592 q 765 815 818 756 q 633 908 711 875 q 456 942 556 942 l 182 942 l 182 44 l 456 44 q 636 78 558 44 q 767 173 714 113 q 846 316 819 233 q 872 494 872 399 z "},"ǳ":{"ha":1525,"x_min":61,"x_max":1478,"o":"m 890 39 l 1424 682 l 899 682 l 899 722 l 1478 722 l 1478 683 l 947 40 l 1474 40 l 1474 0 l 890 0 l 890 39 m 408 -14 q 269 18 333 -14 q 159 102 206 50 q 87 221 113 154 q 61 358 61 288 q 86 501 61 433 q 156 621 111 569 q 261 703 200 672 q 394 733 322 733 q 486 719 443 733 q 566 681 529 706 q 633 625 603 657 q 683 558 663 593 l 683 1014 l 731 1014 l 731 75 q 756 44 731 44 l 756 0 q 744 -1 751 -1 q 703 17 719 -1 q 686 60 686 36 l 686 147 q 633 81 664 111 q 565 31 601 51 q 489 -2 529 10 q 408 -14 449 -14 m 414 31 q 500 47 454 31 q 585 92 546 64 q 652 159 625 121 q 683 239 679 197 l 683 488 q 638 566 668 529 q 569 630 608 603 q 487 673 531 657 q 401 689 443 689 q 281 660 335 689 q 189 585 226 632 q 131 480 151 539 q 110 358 110 421 q 133 234 110 293 q 198 130 157 175 q 294 58 239 85 q 414 31 350 31 z "},"Ǵ":{"ha":999,"x_min":64,"x_max":917,"o":"m 503 1147 l 469 1165 l 556 1275 l 618 1275 l 503 1147 m 872 161 q 528 -7 722 -7 q 341 37 426 -7 q 194 151 256 81 q 99 312 133 222 q 64 493 64 401 q 97 681 64 590 q 191 840 131 771 q 334 951 251 910 q 515 993 417 993 q 650 977 590 993 q 756 933 710 961 q 835 865 801 904 q 892 778 868 825 l 851 757 q 711 903 797 858 q 514 947 625 947 q 347 908 421 947 q 220 804 272 868 q 140 659 168 740 q 113 493 113 578 q 145 321 113 403 q 234 176 178 239 q 367 76 290 114 q 531 39 443 39 q 708 82 624 39 q 872 218 792 125 l 872 432 l 644 432 l 644 474 l 917 474 l 917 0 l 872 0 l 872 161 z "},"ǵ":{"ha":843,"x_min":61,"x_max":731,"o":"m 401 886 l 368 904 l 454 1014 l 517 1014 l 401 886 m 407 -12 q 268 19 332 -12 q 158 103 204 51 q 87 222 113 156 q 61 358 61 289 q 85 499 61 432 q 154 619 110 567 q 260 702 199 671 q 397 733 322 733 q 486 719 444 733 q 564 682 528 706 q 631 626 600 658 q 686 558 661 594 l 686 722 l 731 722 l 731 -22 q 703 -149 731 -96 q 631 -239 676 -203 q 526 -292 586 -275 q 401 -310 467 -310 q 288 -297 338 -310 q 201 -262 239 -285 q 135 -209 164 -240 q 86 -140 107 -178 l 121 -121 q 240 -233 165 -199 q 401 -268 315 -268 q 510 -253 460 -268 q 600 -206 561 -237 q 661 -129 639 -175 q 683 -22 683 -83 l 683 147 q 630 82 661 111 q 563 32 599 53 q 487 -1 526 11 q 407 -12 447 -12 m 414 31 q 509 49 463 31 q 593 98 556 68 q 655 165 631 128 q 683 239 679 201 l 683 488 q 637 568 667 531 q 569 632 607 606 q 489 674 532 658 q 401 689 446 689 q 278 660 332 689 q 186 583 224 631 q 129 477 149 536 q 110 358 110 418 q 133 234 110 293 q 198 130 157 175 q 294 58 239 85 q 414 31 350 31 z "},"Ǻ":{"ha":938,"x_min":22,"x_max":913,"o":"m 383 1043 q 408 1102 383 1079 q 468 1125 432 1125 q 530 1102 506 1125 q 554 1043 554 1079 q 539 993 554 1014 q 499 964 524 972 l 913 0 l 861 0 l 715 340 l 221 340 l 75 0 l 22 0 l 438 964 q 398 994 413 972 q 383 1043 383 1015 m 700 382 l 468 925 l 235 382 l 700 382 m 468 1099 q 428 1083 444 1099 q 413 1043 413 1068 q 428 1003 413 1019 q 468 986 444 986 q 508 1002 490 986 q 525 1043 525 1018 q 508 1083 525 1068 q 468 1099 492 1099 m 458 1149 l 425 1167 l 511 1275 l 574 1275 l 458 1149 z "},"ǻ":{"ha":736,"x_min":51,"x_max":657,"o":"m 288 -14 q 194 3 238 -14 q 119 51 151 21 q 69 121 88 81 q 51 208 51 161 q 74 292 51 254 q 135 358 96 331 q 230 401 175 386 q 350 417 285 417 q 473 407 411 417 q 585 378 535 397 l 585 456 q 523 628 585 564 q 357 693 461 693 q 244 670 304 693 q 125 604 185 647 l 103 639 q 360 733 242 733 q 559 658 486 733 q 632 453 632 583 l 632 75 q 657 44 632 44 l 657 0 q 649 -1 653 -1 q 643 -1 646 -1 q 603 16 619 -1 q 588 58 588 33 l 588 122 q 458 22 538 57 q 288 -14 379 -14 m 293 26 q 397 40 344 26 q 490 78 449 54 q 558 135 532 103 q 585 203 585 167 l 585 339 q 354 381 476 381 q 250 368 297 381 q 169 333 203 356 q 116 280 135 311 q 97 210 97 249 q 113 138 97 171 q 154 79 128 104 q 216 40 181 54 q 293 26 251 26 m 349 1079 l 315 1097 l 401 1207 l 464 1207 l 349 1079 m 274 932 q 298 991 274 968 q 358 1014 322 1014 q 420 991 396 1014 q 444 932 444 968 q 420 872 444 896 q 358 849 396 849 q 298 872 322 849 q 274 932 274 896 m 358 988 q 319 972 335 988 q 303 932 303 957 q 319 892 303 908 q 358 875 335 875 q 398 891 381 875 q 415 932 415 907 q 399 972 415 957 q 358 988 382 988 z "},"Ǽ":{"ha":1336,"x_min":-39,"x_max":1268,"o":"m 653 1147 l 619 1165 l 706 1275 l 768 1275 l 653 1147 m 607 986 l 1256 986 l 1256 942 l 667 942 l 667 526 l 1181 526 l 1181 482 l 667 482 l 667 44 l 1268 44 l 1268 0 l 619 0 l 619 340 l 238 340 l 17 0 l -39 0 l 607 986 m 617 385 l 617 921 l 263 385 l 617 385 z "},"ǽ":{"ha":1290,"x_min":51,"x_max":1244,"o":"m 597 886 l 564 904 l 650 1014 l 713 1014 l 597 886 m 286 -14 q 194 3 238 -14 q 119 51 151 21 q 69 121 88 81 q 51 208 51 161 q 74 292 51 254 q 135 358 96 331 q 230 401 175 386 q 350 417 285 417 q 451 409 400 417 q 547 389 503 401 q 576 518 551 457 q 502 646 560 599 q 357 693 444 693 q 244 670 304 693 q 124 604 185 647 l 103 639 q 360 733 242 733 q 515 690 451 733 q 607 569 579 647 q 726 688 651 643 q 893 733 801 733 q 1031 704 967 733 q 1142 624 1094 675 q 1217 506 1189 574 q 1244 360 1244 438 q 1244 350 1244 358 q 1243 340 1243 342 l 593 340 q 624 216 597 274 q 692 117 650 158 q 787 51 733 75 q 901 26 840 26 q 978 37 940 26 q 1050 67 1017 47 q 1108 113 1083 86 q 1149 172 1133 140 l 1192 161 q 1147 91 1176 124 q 1078 35 1117 58 q 993 -1 1039 13 q 899 -14 947 -14 q 731 31 807 -14 q 608 151 656 76 q 549 76 586 107 q 469 25 513 44 q 377 -4 425 6 q 286 -14 329 -14 m 293 26 q 453 59 381 26 q 563 147 526 92 q 585 196 581 172 q 558 271 567 231 q 547 351 549 311 q 354 381 456 381 q 250 368 297 381 q 169 333 203 356 q 116 280 135 311 q 97 210 97 249 q 113 138 97 171 q 154 79 128 104 q 216 40 181 54 q 293 26 251 26 m 1197 378 q 1168 503 1193 446 q 1102 603 1143 561 q 1008 668 1061 644 q 893 692 954 692 q 778 668 832 692 q 685 603 725 644 q 620 503 644 561 q 593 378 596 446 l 1197 378 z "},"Ǿ":{"ha":1049,"x_min":64,"x_max":985,"o":"m 872 986 l 807 886 q 938 708 890 813 q 985 493 985 603 q 949 303 985 393 q 852 144 914 213 q 706 34 790 75 q 525 -7 622 -7 q 392 14 454 -7 q 278 71 329 35 l 232 0 l 176 0 l 240 100 q 110 276 157 171 q 64 493 64 381 q 99 682 64 592 q 197 842 135 772 q 342 952 258 911 q 525 993 426 993 q 656 972 596 993 q 769 915 717 951 l 815 986 l 872 986 m 936 493 q 894 688 936 596 q 781 846 853 781 l 303 110 q 406 58 350 76 q 525 39 463 39 q 694 78 618 39 q 824 182 769 118 q 907 328 878 246 q 936 493 936 410 m 113 493 q 153 297 113 389 q 265 139 193 204 l 744 876 q 642 928 697 910 q 525 947 588 947 q 356 908 432 947 q 226 804 281 868 q 142 659 172 740 q 113 493 113 578 m 514 1147 l 481 1165 l 567 1275 l 629 1275 l 514 1147 z "},"ǿ":{"ha":818,"x_min":61,"x_max":757,"o":"m 158 0 l 200 60 q 99 190 136 113 q 61 358 61 267 q 88 503 61 435 q 163 622 115 571 q 273 703 210 674 q 408 733 336 733 q 503 719 457 733 q 589 678 549 704 l 617 722 l 661 722 l 618 656 q 719 526 681 603 q 757 358 757 449 q 730 215 757 283 q 656 97 703 147 q 546 16 610 46 q 408 -14 482 -14 q 228 40 310 -14 l 201 0 l 158 0 m 108 357 q 140 210 108 278 q 225 99 172 143 l 564 640 q 490 676 529 664 q 408 689 451 689 q 293 663 347 689 q 198 591 239 636 q 133 485 157 546 q 108 357 108 425 m 407 31 q 524 57 469 31 q 620 128 579 83 q 685 233 661 172 q 708 360 708 293 q 677 505 708 438 q 593 617 646 572 l 253 78 q 407 31 321 31 m 397 886 l 364 904 l 450 1014 l 513 1014 l 397 886 z "},"Ȁ":{"ha":938,"x_min":22,"x_max":913,"o":"m 447 986 l 489 986 l 913 0 l 861 0 l 715 340 l 221 340 l 75 0 l 22 0 l 447 986 m 700 382 l 468 925 l 235 382 l 700 382 m 421 1275 l 479 1275 l 565 1165 l 535 1147 l 421 1275 m 271 1275 l 331 1275 l 417 1165 l 386 1147 l 271 1275 z "},"̏":{"ha":425,"x_min":64,"x_max":358,"o":"m 214 1014 l 272 1014 l 358 904 l 328 886 l 214 1014 m 64 1014 l 124 1014 l 210 904 l 179 886 l 64 1014 z "},"ȁ":{"ha":736,"x_min":51,"x_max":657,"o":"m 288 -14 q 194 3 238 -14 q 119 51 151 21 q 69 121 88 81 q 51 208 51 161 q 74 292 51 254 q 135 358 96 331 q 230 401 175 386 q 350 417 285 417 q 473 407 411 417 q 585 378 535 397 l 585 456 q 523 628 585 564 q 357 693 461 693 q 244 670 304 693 q 125 604 185 647 l 103 639 q 360 733 242 733 q 559 658 486 733 q 632 453 632 583 l 632 75 q 657 44 632 44 l 657 0 q 649 -1 653 -1 q 643 -1 646 -1 q 603 16 619 -1 q 588 58 588 33 l 588 122 q 458 22 538 57 q 288 -14 379 -14 m 293 26 q 397 40 344 26 q 490 78 449 54 q 558 135 532 103 q 585 203 585 167 l 585 339 q 354 381 476 381 q 250 368 297 381 q 169 333 203 356 q 116 280 135 311 q 97 210 97 249 q 113 138 97 171 q 154 79 128 104 q 216 40 181 54 q 293 26 251 26 m 324 1014 l 382 1014 l 468 904 l 438 886 l 324 1014 m 174 1014 l 233 1014 l 319 904 l 289 886 l 174 1014 z "},"Ȃ":{"ha":938,"x_min":22,"x_max":913,"o":"m 447 986 l 489 986 l 913 0 l 861 0 l 715 340 l 221 340 l 75 0 l 22 0 l 447 986 m 700 382 l 468 925 l 235 382 l 700 382 m 468 1244 q 415 1217 439 1244 q 392 1158 392 1190 l 356 1158 q 365 1203 356 1182 q 389 1241 374 1225 q 424 1266 404 1257 q 468 1275 444 1275 q 510 1266 490 1275 q 547 1241 531 1257 q 572 1203 563 1225 q 581 1158 581 1182 l 546 1158 q 519 1219 542 1194 q 468 1244 496 1244 z "},"̑":{"ha":358,"x_min":67,"x_max":292,"o":"m 179 983 q 126 956 150 983 q 103 897 103 929 l 67 897 q 76 942 67 921 q 100 980 85 964 q 135 1005 115 996 q 179 1014 156 1014 q 222 1005 201 1014 q 258 980 242 996 q 283 942 274 964 q 292 897 292 921 l 257 897 q 230 958 253 933 q 179 983 207 983 z "},"ȃ":{"ha":736,"x_min":51,"x_max":657,"o":"m 288 -14 q 194 3 238 -14 q 119 51 151 21 q 69 121 88 81 q 51 208 51 161 q 74 292 51 254 q 135 358 96 331 q 230 401 175 386 q 350 417 285 417 q 473 407 411 417 q 585 378 535 397 l 585 456 q 523 628 585 564 q 357 693 461 693 q 244 670 304 693 q 125 604 185 647 l 103 639 q 360 733 242 733 q 559 658 486 733 q 632 453 632 583 l 632 75 q 657 44 632 44 l 657 0 q 649 -1 653 -1 q 643 -1 646 -1 q 603 16 619 -1 q 588 58 588 33 l 588 122 q 458 22 538 57 q 288 -14 379 -14 m 293 26 q 397 40 344 26 q 490 78 449 54 q 558 135 532 103 q 585 203 585 167 l 585 339 q 354 381 476 381 q 250 368 297 381 q 169 333 203 356 q 116 280 135 311 q 97 210 97 249 q 113 138 97 171 q 154 79 128 104 q 216 40 181 54 q 293 26 251 26 m 360 983 q 307 956 331 983 q 283 897 283 929 l 247 897 q 256 942 247 921 q 281 980 265 964 q 316 1005 296 996 q 360 1014 336 1014 q 402 1005 382 1014 q 438 980 422 996 q 463 942 454 964 q 472 897 472 921 l 438 897 q 410 958 433 933 q 360 983 388 983 z "},"Ȅ":{"ha":854,"x_min":133,"x_max":785,"o":"m 424 1275 l 482 1275 l 568 1165 l 538 1147 l 424 1275 m 274 1275 l 333 1275 l 419 1165 l 389 1147 l 274 1275 m 785 44 l 785 0 l 133 0 l 133 986 l 772 986 l 772 942 l 182 942 l 182 526 l 699 526 l 699 482 l 182 482 l 182 44 l 785 44 z "},"ȅ":{"ha":804,"x_min":61,"x_max":758,"o":"m 367 1014 l 425 1014 l 511 904 l 481 886 l 367 1014 m 217 1014 l 276 1014 l 363 904 l 332 886 l 217 1014 m 413 -14 q 275 16 339 -14 q 163 98 211 46 q 88 219 115 150 q 61 365 61 288 q 88 508 61 442 q 161 625 114 575 q 271 704 208 675 q 407 733 333 733 q 546 704 482 733 q 657 624 610 675 q 731 506 704 574 q 758 361 758 438 q 758 350 758 358 q 757 340 758 342 l 110 340 q 141 216 115 274 q 208 117 167 158 q 302 51 249 75 q 415 26 356 26 q 492 37 454 26 q 564 67 531 47 q 622 113 597 86 q 663 172 647 140 l 706 161 q 661 91 690 124 q 592 35 632 58 q 507 -1 553 13 q 413 -14 461 -14 m 711 381 q 682 506 707 449 q 616 604 657 563 q 522 669 575 646 q 408 692 469 692 q 294 668 347 692 q 202 603 242 644 q 138 504 163 561 q 110 381 114 447 l 711 381 z "},"Ȇ":{"ha":854,"x_min":133,"x_max":785,"o":"m 458 1244 q 406 1217 429 1244 q 382 1158 382 1190 l 346 1158 q 355 1203 346 1182 q 379 1241 364 1225 q 415 1266 394 1257 q 458 1275 435 1275 q 501 1266 481 1275 q 537 1241 521 1257 q 562 1203 553 1225 q 571 1158 571 1182 l 536 1158 q 509 1219 532 1194 q 458 1244 486 1244 m 785 44 l 785 0 l 133 0 l 133 986 l 772 986 l 772 942 l 182 942 l 182 526 l 699 526 l 699 482 l 182 482 l 182 44 l 785 44 z "},"ȇ":{"ha":804,"x_min":61,"x_max":758,"o":"m 407 983 q 354 956 378 983 q 331 897 331 929 l 294 897 q 303 942 294 921 q 328 980 313 964 q 363 1005 343 996 q 407 1014 383 1014 q 449 1005 429 1014 q 485 980 469 996 q 510 942 501 964 q 519 897 519 921 l 485 897 q 458 958 481 933 q 407 983 435 983 m 413 -14 q 275 16 339 -14 q 163 98 211 46 q 88 219 115 150 q 61 365 61 288 q 88 508 61 442 q 161 625 114 575 q 271 704 208 675 q 407 733 333 733 q 546 704 482 733 q 657 624 610 675 q 731 506 704 574 q 758 361 758 438 q 758 350 758 358 q 757 340 758 342 l 110 340 q 141 216 115 274 q 208 117 167 158 q 302 51 249 75 q 415 26 356 26 q 492 37 454 26 q 564 67 531 47 q 622 113 597 86 q 663 172 647 140 l 706 161 q 661 91 690 124 q 592 35 632 58 q 507 -1 553 13 q 413 -14 461 -14 m 711 381 q 682 506 707 449 q 616 604 657 563 q 522 669 575 646 q 408 692 469 692 q 294 668 347 692 q 202 603 242 644 q 138 504 163 561 q 110 381 114 447 l 711 381 z "},"Ȉ":{"ha":315,"x_min":-28,"x_max":267,"o":"m 133 0 l 133 986 l 182 986 l 182 0 l 133 0 m 122 1275 l 181 1275 l 267 1165 l 236 1147 l 122 1275 m -28 1275 l 32 1275 l 118 1165 l 88 1147 l -28 1275 z "},"ȉ":{"ha":274,"x_min":-50,"x_max":244,"o":"m 100 1014 l 158 1014 l 244 904 l 214 886 l 100 1014 m -50 1014 l 10 1014 l 96 904 l 65 886 l -50 1014 m 113 0 l 113 722 l 160 722 l 160 0 l 113 0 z "},"Ȋ":{"ha":315,"x_min":44,"x_max":269,"o":"m 133 0 l 133 986 l 182 986 l 182 0 l 133 0 m 157 1244 q 104 1217 128 1244 q 81 1158 81 1190 l 44 1158 q 53 1203 44 1182 q 78 1241 63 1225 q 113 1266 93 1257 q 157 1275 133 1275 q 199 1266 179 1275 q 235 1241 219 1257 q 260 1203 251 1225 q 269 1158 269 1182 l 235 1158 q 208 1219 231 1194 q 157 1244 185 1244 z "},"ȋ":{"ha":274,"x_min":24,"x_max":249,"o":"m 136 983 q 83 956 107 983 q 60 897 60 929 l 24 897 q 33 942 24 921 q 57 980 42 964 q 92 1005 72 996 q 136 1014 113 1014 q 178 1005 158 1014 q 215 980 199 996 q 240 942 231 964 q 249 897 249 921 l 214 897 q 187 958 210 933 q 136 983 164 983 m 113 0 l 113 722 l 160 722 l 160 0 l 113 0 z "},"Ȍ":{"ha":1049,"x_min":64,"x_max":985,"o":"m 486 1275 l 544 1275 l 631 1165 l 600 1147 l 486 1275 m 336 1275 l 396 1275 l 482 1165 l 451 1147 l 336 1275 m 525 -7 q 338 36 422 -7 q 192 149 253 79 q 97 308 131 218 q 64 493 64 399 q 99 682 64 592 q 197 842 135 772 q 342 952 258 911 q 525 993 426 993 q 713 949 628 993 q 858 835 797 906 q 951 674 918 764 q 985 493 985 585 q 949 303 985 393 q 852 144 914 213 q 706 34 790 75 q 525 -7 622 -7 m 113 493 q 143 322 113 404 q 228 177 174 240 q 359 76 283 114 q 525 39 435 39 q 694 78 618 39 q 824 182 769 118 q 907 328 878 246 q 936 493 936 410 q 905 664 936 582 q 819 809 874 746 q 688 910 764 872 q 525 947 613 947 q 356 908 432 947 q 226 804 281 868 q 142 659 172 740 q 113 493 113 578 z "},"ȍ":{"ha":818,"x_min":61,"x_max":757,"o":"m 375 1014 l 433 1014 l 519 904 l 489 886 l 375 1014 m 225 1014 l 285 1014 l 371 904 l 340 886 l 225 1014 m 408 -14 q 272 16 335 -14 q 161 97 208 46 q 88 215 114 147 q 61 358 61 283 q 88 503 61 435 q 163 622 115 571 q 273 703 210 674 q 408 733 336 733 q 544 703 481 733 q 656 622 608 674 q 730 503 703 571 q 757 358 757 435 q 730 215 757 283 q 656 97 703 147 q 546 16 610 46 q 408 -14 482 -14 m 108 357 q 132 231 108 290 q 196 126 156 171 q 291 56 236 82 q 407 31 346 31 q 524 57 469 31 q 620 128 579 83 q 685 233 661 172 q 708 360 708 293 q 685 487 708 426 q 620 592 661 547 q 524 663 579 636 q 408 689 469 689 q 293 663 347 689 q 198 591 239 636 q 133 485 157 546 q 108 357 108 425 z "},"Ȏ":{"ha":1049,"x_min":64,"x_max":985,"o":"m 522 1244 q 469 1217 493 1244 q 446 1158 446 1190 l 410 1158 q 419 1203 410 1182 q 443 1241 428 1225 q 478 1266 458 1257 q 522 1275 499 1275 q 565 1266 544 1275 q 601 1241 585 1257 q 626 1203 617 1225 q 635 1158 635 1182 l 600 1158 q 573 1219 596 1194 q 522 1244 550 1244 m 525 -7 q 338 36 422 -7 q 192 149 253 79 q 97 308 131 218 q 64 493 64 399 q 99 682 64 592 q 197 842 135 772 q 342 952 258 911 q 525 993 426 993 q 713 949 628 993 q 858 835 797 906 q 951 674 918 764 q 985 493 985 585 q 949 303 985 393 q 852 144 914 213 q 706 34 790 75 q 525 -7 622 -7 m 113 493 q 143 322 113 404 q 228 177 174 240 q 359 76 283 114 q 525 39 435 39 q 694 78 618 39 q 824 182 769 118 q 907 328 878 246 q 936 493 936 410 q 905 664 936 582 q 819 809 874 746 q 688 910 764 872 q 525 947 613 947 q 356 908 432 947 q 226 804 281 868 q 142 659 172 740 q 113 493 113 578 z "},"ȏ":{"ha":818,"x_min":61,"x_max":757,"o":"m 404 983 q 351 956 375 983 q 328 897 328 929 l 292 897 q 301 942 292 921 q 325 980 310 964 q 360 1005 340 996 q 404 1014 381 1014 q 447 1005 426 1014 q 483 980 467 996 q 508 942 499 964 q 517 897 517 921 l 482 897 q 455 958 478 933 q 404 983 432 983 m 408 -14 q 272 16 335 -14 q 161 97 208 46 q 88 215 114 147 q 61 358 61 283 q 88 503 61 435 q 163 622 115 571 q 273 703 210 674 q 408 733 336 733 q 544 703 481 733 q 656 622 608 674 q 730 503 703 571 q 757 358 757 435 q 730 215 757 283 q 656 97 703 147 q 546 16 610 46 q 408 -14 482 -14 m 108 357 q 132 231 108 290 q 196 126 156 171 q 291 56 236 82 q 407 31 346 31 q 524 57 469 31 q 620 128 579 83 q 685 233 661 172 q 708 360 708 293 q 685 487 708 426 q 620 592 661 547 q 524 663 579 636 q 408 689 469 689 q 293 663 347 689 q 198 591 239 636 q 133 485 157 546 q 108 357 108 425 z "},"Ȑ":{"ha":896,"x_min":133,"x_max":826,"o":"m 413 1275 l 471 1275 l 557 1165 l 526 1147 l 413 1275 m 263 1275 l 322 1275 l 408 1165 l 378 1147 l 263 1275 m 133 0 l 133 986 l 539 986 q 652 960 600 986 q 742 891 704 933 q 800 794 779 849 q 821 685 821 740 q 803 576 821 628 q 754 485 786 525 q 678 418 722 444 q 579 386 633 392 l 826 0 l 771 0 l 526 381 l 182 381 l 182 0 l 133 0 m 182 425 l 547 425 q 641 447 599 425 q 713 506 683 469 q 758 589 742 542 q 774 685 774 636 q 755 781 774 735 q 704 863 736 828 q 629 920 672 899 q 538 942 586 942 l 182 942 l 182 425 z "},"ȑ":{"ha":460,"x_min":81,"x_max":436,"o":"m 231 1014 l 289 1014 l 375 904 l 344 886 l 231 1014 m 81 1014 l 140 1014 l 226 904 l 196 886 l 81 1014 m 436 678 q 263 615 336 674 q 160 454 189 556 l 160 0 l 113 0 l 113 722 l 158 722 l 158 539 q 258 664 196 615 q 392 721 321 713 q 417 722 406 722 q 436 722 429 722 l 436 678 z "},"Ȓ":{"ha":896,"x_min":133,"x_max":826,"o":"m 446 1244 q 393 1217 417 1244 q 369 1158 369 1190 l 333 1158 q 342 1203 333 1182 q 367 1241 351 1225 q 402 1266 382 1257 q 446 1275 422 1275 q 488 1266 468 1275 q 524 1241 508 1257 q 549 1203 540 1225 q 558 1158 558 1182 l 524 1158 q 497 1219 519 1194 q 446 1244 474 1244 m 133 0 l 133 986 l 539 986 q 652 960 600 986 q 742 891 704 933 q 800 794 779 849 q 821 685 821 740 q 803 576 821 628 q 754 485 786 525 q 678 418 722 444 q 579 386 633 392 l 826 0 l 771 0 l 526 381 l 182 381 l 182 0 l 133 0 m 182 425 l 547 425 q 641 447 599 425 q 713 506 683 469 q 758 589 742 542 q 774 685 774 636 q 755 781 774 735 q 704 863 736 828 q 629 920 672 899 q 538 942 586 942 l 182 942 l 182 425 z "},"ȓ":{"ha":460,"x_min":113,"x_max":436,"o":"m 264 983 q 211 956 235 983 q 188 897 188 929 l 151 897 q 160 942 151 921 q 185 980 169 964 q 220 1005 200 996 q 264 1014 240 1014 q 306 1005 286 1014 q 342 980 326 996 q 367 942 358 964 q 376 897 376 921 l 342 897 q 315 958 338 933 q 264 983 292 983 m 436 678 q 263 615 336 674 q 160 454 189 556 l 160 0 l 113 0 l 113 722 l 158 722 l 158 539 q 258 664 196 615 q 392 721 321 713 q 417 722 406 722 q 436 722 429 722 l 436 678 z "},"Ȕ":{"ha":1050,"x_min":118,"x_max":932,"o":"m 497 1275 l 556 1275 l 642 1165 l 611 1147 l 497 1275 m 347 1275 l 407 1275 l 493 1165 l 463 1147 l 347 1275 m 525 39 q 701 78 631 39 q 811 182 771 118 q 868 327 851 246 q 885 492 885 408 l 885 986 l 932 986 l 932 492 q 911 303 932 393 q 842 144 890 213 q 717 34 794 75 q 526 -7 640 -7 q 331 36 410 -7 q 206 149 253 79 q 138 309 158 219 q 118 492 118 399 l 118 986 l 167 986 l 167 492 q 183 324 167 406 q 242 180 200 243 q 352 78 283 117 q 525 39 421 39 z "},"ȕ":{"ha":807,"x_min":106,"x_max":717,"o":"m 354 1014 l 413 1014 l 499 904 l 468 886 l 354 1014 m 204 1014 l 264 1014 l 350 904 l 319 886 l 204 1014 m 336 -14 q 164 68 222 -14 q 106 311 106 150 l 106 722 l 153 722 l 153 317 q 346 31 153 31 q 442 48 394 31 q 528 96 489 65 q 598 169 568 126 q 644 264 628 213 l 644 722 l 692 722 l 692 75 q 717 44 692 44 l 717 0 q 703 -1 711 -1 q 664 16 681 -1 q 647 58 647 33 l 647 178 q 517 38 600 89 q 336 -14 433 -14 z "},"Ȗ":{"ha":1050,"x_min":118,"x_max":932,"o":"m 525 1244 q 472 1217 496 1244 q 449 1158 449 1190 l 413 1158 q 422 1203 413 1182 q 446 1241 431 1225 q 481 1266 461 1257 q 525 1275 501 1275 q 567 1266 547 1275 q 603 1241 588 1257 q 628 1203 619 1225 q 638 1158 638 1182 l 603 1158 q 576 1219 599 1194 q 525 1244 553 1244 m 525 39 q 701 78 631 39 q 811 182 771 118 q 868 327 851 246 q 885 492 885 408 l 885 986 l 932 986 l 932 492 q 911 303 932 393 q 842 144 890 213 q 717 34 794 75 q 526 -7 640 -7 q 331 36 410 -7 q 206 149 253 79 q 138 309 158 219 q 118 492 118 399 l 118 986 l 167 986 l 167 492 q 183 324 167 406 q 242 180 200 243 q 352 78 283 117 q 525 39 421 39 z "},"ȗ":{"ha":807,"x_min":106,"x_max":717,"o":"m 393 983 q 340 956 364 983 q 317 897 317 929 l 281 897 q 290 942 281 921 q 314 980 299 964 q 349 1005 329 996 q 393 1014 369 1014 q 435 1005 415 1014 q 472 980 456 996 q 497 942 488 964 q 506 897 506 921 l 471 897 q 444 958 467 933 q 393 983 421 983 m 336 -14 q 164 68 222 -14 q 106 311 106 150 l 106 722 l 153 722 l 153 317 q 346 31 153 31 q 442 48 394 31 q 528 96 489 65 q 598 169 568 126 q 644 264 628 213 l 644 722 l 692 722 l 692 75 q 717 44 692 44 l 717 0 q 703 -1 711 -1 q 664 16 681 -1 q 647 58 647 33 l 647 178 q 517 38 600 89 q 336 -14 433 -14 z "},"Ș":{"ha":838,"x_min":51,"x_max":788,"o":"m 411 -244 l 428 -158 l 411 -158 l 411 -69 l 463 -69 l 463 -158 l 439 -244 l 411 -244 m 706 840 q 586 924 651 900 q 433 949 521 949 q 206 889 276 949 q 135 729 135 829 q 152 645 135 679 q 206 588 169 611 q 299 548 242 564 q 435 515 356 532 q 581 479 515 499 q 692 430 646 460 q 763 356 738 400 q 788 246 788 311 q 763 136 788 183 q 693 57 739 89 q 583 9 647 25 q 439 -7 518 -7 q 226 30 321 -7 q 51 143 132 67 l 81 178 q 239 71 150 107 q 440 35 328 35 q 659 85 579 35 q 739 240 739 136 q 719 330 739 293 q 660 392 700 367 q 560 437 621 418 q 418 472 500 456 q 276 507 338 489 q 172 553 214 525 q 108 621 129 581 q 86 722 86 661 q 111 838 86 788 q 181 923 136 889 q 290 975 226 957 q 432 993 354 993 q 600 965 528 993 q 732 876 672 938 l 706 840 z "},"ș":{"ha":661,"x_min":49,"x_max":604,"o":"m 303 -244 l 319 -158 l 303 -158 l 303 -69 l 354 -69 l 354 -158 l 331 -244 l 303 -244 m 332 -14 q 176 14 249 -14 q 49 100 104 42 l 75 132 q 194 53 133 79 q 331 26 256 26 q 494 69 432 26 q 557 190 557 113 q 541 251 557 226 q 494 292 525 275 q 419 323 464 310 q 315 350 374 336 q 212 377 256 364 q 139 408 168 390 q 96 454 110 426 q 82 525 82 482 q 103 618 82 579 q 159 683 124 657 q 241 721 194 708 q 340 733 288 733 q 491 704 428 733 q 583 631 554 675 l 551 607 q 462 671 521 649 q 336 693 403 693 q 256 684 293 693 q 190 655 218 675 q 144 604 161 635 q 128 532 128 574 q 139 476 128 499 q 174 440 150 454 q 235 415 199 425 q 325 392 272 404 q 443 361 392 376 q 531 325 494 346 q 585 274 567 304 q 604 196 604 243 q 585 109 604 147 q 530 43 565 71 q 444 1 494 15 q 332 -14 393 -14 z "},"Ț":{"ha":838,"x_min":25,"x_max":813,"o":"m 390 -244 l 407 -158 l 390 -158 l 390 -69 l 442 -69 l 442 -158 l 418 -244 l 390 -244 m 813 942 l 443 942 l 443 0 l 394 0 l 394 942 l 25 942 l 25 986 l 813 986 l 813 942 z "},"ț":{"ha":426,"x_min":36,"x_max":413,"o":"m 242 -244 l 258 -158 l 242 -158 l 242 -69 l 293 -69 l 293 -158 l 269 -244 l 242 -244 m 413 33 q 399 26 410 32 q 369 12 388 19 q 326 -1 350 4 q 272 -7 301 -7 q 178 24 218 -7 q 139 113 139 56 l 139 681 l 36 681 l 36 722 l 139 722 l 139 971 l 186 971 l 186 722 l 357 722 l 357 681 l 186 681 l 186 119 q 217 58 189 79 q 281 38 244 38 q 323 42 303 38 q 358 53 343 47 q 383 65 374 60 q 394 72 393 71 l 413 33 z "},"ə":{"ha":804,"x_min":46,"x_max":743,"o":"m 397 -14 q 260 15 324 -14 q 149 95 196 44 q 74 213 101 146 q 46 358 46 281 q 47 369 46 361 q 47 379 47 378 l 694 379 q 664 503 690 446 q 597 602 638 560 q 502 668 556 644 q 389 692 449 692 q 311 681 349 692 q 240 651 274 671 q 181 606 207 632 q 142 547 156 579 l 99 558 q 144 628 114 596 q 213 683 174 660 q 297 720 251 707 q 392 733 343 733 q 529 703 465 733 q 641 622 593 674 q 716 501 689 569 q 743 354 743 432 q 717 211 743 278 q 644 94 690 144 q 534 15 597 44 q 397 -14 471 -14 m 397 26 q 511 50 458 26 q 603 116 564 74 q 667 216 643 158 q 696 342 692 274 l 94 342 q 124 215 99 272 q 189 115 149 157 q 283 50 229 74 q 397 26 336 26 z "},"ˉ":{"ha":535,"x_min":71,"x_max":464,"o":"m 71 943 l 71 982 l 464 982 l 464 943 l 71 943 z "},"Δ":{"ha":899,"x_min":33,"x_max":865,"o":"m 865 42 l 865 0 l 33 0 l 33 42 l 429 986 l 471 986 l 865 42 m 813 44 l 450 925 l 86 44 l 813 44 z "},"Ω":{"ha":1067,"x_min":67,"x_max":1000,"o":"m 67 46 l 360 46 q 240 125 293 76 q 151 234 188 174 q 94 364 114 294 q 75 507 75 433 q 110 691 75 603 q 206 846 144 779 q 351 953 267 913 q 533 993 435 993 q 716 953 632 993 q 861 846 800 913 q 957 691 922 779 q 992 507 992 603 q 972 364 992 433 q 916 234 953 294 q 826 125 879 174 q 707 46 774 76 l 1000 46 l 1000 0 l 599 0 l 599 46 q 746 111 682 64 q 853 222 810 158 q 920 360 897 286 q 943 507 943 435 q 915 667 943 589 q 833 808 886 746 q 703 908 779 869 q 533 946 628 946 q 363 908 439 946 q 233 808 286 869 q 152 667 181 746 q 124 507 124 589 q 146 360 124 435 q 212 222 168 286 q 320 111 256 158 q 468 46 385 64 l 468 0 l 67 0 l 67 46 z "},"μ":{"ha":815,"x_min":113,"x_max":725,"o":"m 113 722 l 160 722 l 160 317 q 354 31 160 31 q 450 48 403 31 q 537 96 497 65 q 606 169 576 126 q 653 264 636 213 l 653 722 l 700 722 l 700 75 q 725 44 700 44 l 725 0 q 711 -1 719 -1 q 672 17 688 -1 q 656 60 656 36 l 656 178 q 601 99 633 135 q 528 39 568 64 q 444 0 489 14 q 353 -14 400 -14 q 231 21 279 -14 q 158 122 182 56 l 158 -294 l 113 -294 l 113 722 z "},"π":{"ha":771,"x_min":35,"x_max":739,"o":"m 192 676 l 192 0 l 146 0 l 146 676 l 35 676 l 35 722 l 714 722 l 714 676 l 561 676 l 561 124 q 586 60 561 83 q 651 36 611 36 q 688 40 667 36 q 728 50 710 43 l 739 11 q 686 -1 718 4 q 633 -7 654 -7 q 548 26 581 -7 q 515 114 515 58 l 515 676 l 192 676 z "},"Ḍ":{"ha":989,"x_min":133,"x_max":921,"o":"m 447 -192 l 447 -76 l 492 -76 l 492 -192 l 447 -192 m 133 0 l 133 986 l 456 986 q 660 947 572 986 q 805 842 747 908 q 892 685 863 775 q 921 494 921 596 q 888 291 921 382 q 795 135 856 200 q 649 35 735 71 q 456 0 563 0 l 133 0 m 872 494 q 845 674 872 592 q 765 815 818 756 q 633 908 711 875 q 456 942 556 942 l 182 942 l 182 44 l 456 44 q 636 78 558 44 q 767 173 714 113 q 846 316 819 233 q 872 494 872 399 z "},"ḍ":{"ha":846,"x_min":61,"x_max":756,"o":"m 386 -192 l 386 -76 l 431 -76 l 431 -192 l 386 -192 m 408 -14 q 269 18 333 -14 q 159 102 206 50 q 87 221 113 154 q 61 358 61 288 q 86 501 61 433 q 156 621 111 569 q 261 703 200 672 q 394 733 322 733 q 486 719 443 733 q 566 681 529 706 q 633 625 603 657 q 683 558 663 593 l 683 1014 l 731 1014 l 731 75 q 756 44 731 44 l 756 0 q 744 -1 751 -1 q 703 17 719 -1 q 686 60 686 36 l 686 147 q 633 81 664 111 q 565 31 601 51 q 489 -2 529 10 q 408 -14 449 -14 m 414 31 q 500 47 454 31 q 585 92 546 64 q 652 159 625 121 q 683 239 679 197 l 683 488 q 638 566 668 529 q 569 630 608 603 q 487 673 531 657 q 401 689 443 689 q 281 660 335 689 q 189 585 226 632 q 131 480 151 539 q 110 358 110 421 q 133 234 110 293 q 198 130 157 175 q 294 58 239 85 q 414 31 350 31 z "},"Ḥ":{"ha":1018,"x_min":133,"x_max":885,"o":"m 885 986 l 885 0 l 838 0 l 838 482 l 182 482 l 182 0 l 133 0 l 133 986 l 182 986 l 182 526 l 838 526 l 838 986 l 885 986 m 493 -192 l 493 -76 l 538 -76 l 538 -192 l 493 -192 z "},"ḥ":{"ha":792,"x_min":113,"x_max":688,"o":"m 688 0 l 640 0 l 640 403 q 450 689 640 689 q 356 671 401 689 q 271 621 310 653 q 203 545 232 589 q 160 451 174 501 l 160 0 l 113 0 l 113 1014 l 160 1014 l 160 542 q 215 620 182 585 q 286 681 247 656 q 369 719 325 706 q 458 733 413 733 q 631 649 575 733 q 688 408 688 564 l 688 0 m 382 -192 l 382 -76 l 426 -76 l 426 -192 l 382 -192 z "},"Ṅ":{"ha":1076,"x_min":133,"x_max":943,"o":"m 522 1160 l 522 1275 l 567 1275 l 567 1160 l 522 1160 m 182 894 l 182 0 l 133 0 l 133 986 l 169 986 l 894 76 l 894 986 l 943 986 l 943 0 l 896 0 l 182 894 z "},"ṅ":{"ha":792,"x_min":113,"x_max":688,"o":"m 374 899 l 374 1014 l 418 1014 l 418 899 l 374 899 m 688 0 l 640 0 l 640 403 q 598 620 640 551 q 464 689 556 689 q 367 671 415 689 q 277 621 318 653 q 205 546 236 589 q 160 451 174 503 l 160 0 l 113 0 l 113 722 l 158 722 l 158 542 q 214 620 181 585 q 289 681 247 656 q 377 719 331 706 q 472 733 424 733 q 637 652 586 733 q 688 408 688 571 l 688 0 z "},"Ṛ":{"ha":896,"x_min":133,"x_max":826,"o":"m 133 0 l 133 986 l 539 986 q 652 960 600 986 q 742 891 704 933 q 800 794 779 849 q 821 685 821 740 q 803 576 821 628 q 754 485 786 525 q 678 418 722 444 q 579 386 633 392 l 826 0 l 771 0 l 526 381 l 182 381 l 182 0 l 133 0 m 182 425 l 547 425 q 641 447 599 425 q 713 506 683 469 q 758 589 742 542 q 774 685 774 636 q 755 781 774 735 q 704 863 736 828 q 629 920 672 899 q 538 942 586 942 l 182 942 l 182 425 m 429 -192 l 429 -76 l 474 -76 l 474 -192 l 429 -192 z "},"ṛ":{"ha":460,"x_min":113,"x_max":436,"o":"m 436 678 q 263 615 336 674 q 160 454 189 556 l 160 0 l 113 0 l 113 722 l 158 722 l 158 539 q 258 664 196 615 q 392 721 321 713 q 417 722 406 722 q 436 722 429 722 l 436 678 m 114 -192 l 114 -76 l 158 -76 l 158 -192 l 114 -192 z "},"Ṣ":{"ha":838,"x_min":51,"x_max":788,"o":"m 706 840 q 586 924 651 900 q 433 949 521 949 q 206 889 276 949 q 135 729 135 829 q 152 645 135 679 q 206 588 169 611 q 299 548 242 564 q 435 515 356 532 q 581 479 515 499 q 692 430 646 460 q 763 356 738 400 q 788 246 788 311 q 763 136 788 183 q 693 57 739 89 q 583 9 647 25 q 439 -7 518 -7 q 226 30 321 -7 q 51 143 132 67 l 81 178 q 239 71 150 107 q 440 35 328 35 q 659 85 579 35 q 739 240 739 136 q 719 330 739 293 q 660 392 700 367 q 560 437 621 418 q 418 472 500 456 q 276 507 338 489 q 172 553 214 525 q 108 621 129 581 q 86 722 86 661 q 111 838 86 788 q 181 923 136 889 q 290 975 226 957 q 432 993 354 993 q 600 965 528 993 q 732 876 672 938 l 706 840 m 411 -192 l 411 -76 l 456 -76 l 456 -192 l 411 -192 z "},"ṣ":{"ha":661,"x_min":49,"x_max":604,"o":"m 332 -14 q 176 14 249 -14 q 49 100 104 42 l 75 132 q 194 53 133 79 q 331 26 256 26 q 494 69 432 26 q 557 190 557 113 q 541 251 557 226 q 494 292 525 275 q 419 323 464 310 q 315 350 374 336 q 212 377 256 364 q 139 408 168 390 q 96 454 110 426 q 82 525 82 482 q 103 618 82 579 q 159 683 124 657 q 241 721 194 708 q 340 733 288 733 q 491 704 428 733 q 583 631 554 675 l 551 607 q 462 671 521 649 q 336 693 403 693 q 256 684 293 693 q 190 655 218 675 q 144 604 161 635 q 128 532 128 574 q 139 476 128 499 q 174 440 150 454 q 235 415 199 425 q 325 392 272 404 q 443 361 392 376 q 531 325 494 346 q 585 274 567 304 q 604 196 604 243 q 585 109 604 147 q 530 43 565 71 q 444 1 494 15 q 332 -14 393 -14 m 307 -192 l 307 -76 l 351 -76 l 351 -192 l 307 -192 z "},"Ṭ":{"ha":838,"x_min":25,"x_max":813,"o":"m 396 -192 l 396 -76 l 440 -76 l 440 -192 l 396 -192 m 813 942 l 443 942 l 443 0 l 394 0 l 394 942 l 25 942 l 25 986 l 813 986 l 813 942 z "},"ṭ":{"ha":426,"x_min":36,"x_max":413,"o":"m 240 -192 l 240 -76 l 285 -76 l 285 -192 l 240 -192 m 413 33 q 399 26 410 32 q 369 12 388 19 q 326 -1 350 4 q 272 -7 301 -7 q 178 24 218 -7 q 139 113 139 56 l 139 681 l 36 681 l 36 722 l 139 722 l 139 971 l 186 971 l 186 722 l 357 722 l 357 681 l 186 681 l 186 119 q 217 58 189 79 q 281 38 244 38 q 323 42 303 38 q 358 53 343 47 q 383 65 374 60 q 394 72 393 71 l 413 33 z "},"Ẁ":{"ha":1444,"x_min":24,"x_max":1422,"o":"m 519 978 l 568 978 l 721 614 l 876 978 l 925 978 l 750 571 l 972 57 l 1369 986 l 1422 986 l 996 0 l 949 0 l 722 525 l 496 0 l 449 0 l 24 986 l 75 986 l 474 57 l 694 571 l 519 978 m 617 1275 l 678 1275 l 765 1165 l 732 1147 l 617 1275 z "},"ẁ":{"ha":1111,"x_min":31,"x_max":1079,"o":"m 1031 722 l 1079 722 l 765 0 l 725 0 l 556 394 l 385 0 l 344 0 l 31 722 l 79 722 l 367 57 l 529 436 l 408 721 l 451 721 l 556 478 l 658 721 l 703 721 l 581 436 l 744 57 l 1031 722 m 451 1014 l 513 1014 l 600 904 l 567 886 l 451 1014 z "},"Ẃ":{"ha":1444,"x_min":24,"x_max":1422,"o":"m 710 1147 l 676 1165 l 763 1275 l 825 1275 l 710 1147 m 519 978 l 568 978 l 721 614 l 876 978 l 925 978 l 750 571 l 972 57 l 1369 986 l 1422 986 l 996 0 l 949 0 l 722 525 l 496 0 l 449 0 l 24 986 l 75 986 l 474 57 l 694 571 l 519 978 z "},"ẃ":{"ha":1111,"x_min":31,"x_max":1079,"o":"m 543 886 l 510 904 l 596 1014 l 658 1014 l 543 886 m 1031 722 l 1079 722 l 765 0 l 725 0 l 556 394 l 385 0 l 344 0 l 31 722 l 79 722 l 367 57 l 529 436 l 408 721 l 451 721 l 556 478 l 658 721 l 703 721 l 581 436 l 744 57 l 1031 722 z "},"Ẅ":{"ha":1444,"x_min":24,"x_max":1422,"o":"m 613 1160 l 613 1274 l 656 1274 l 656 1160 l 613 1160 m 788 1160 l 788 1274 l 831 1274 l 831 1160 l 788 1160 m 519 978 l 568 978 l 721 614 l 876 978 l 925 978 l 750 571 l 972 57 l 1369 986 l 1422 986 l 996 0 l 949 0 l 722 525 l 496 0 l 449 0 l 24 986 l 75 986 l 474 57 l 694 571 l 519 978 z "},"ẅ":{"ha":1111,"x_min":31,"x_max":1079,"o":"m 446 899 l 446 1013 l 489 1013 l 489 899 l 446 899 m 621 899 l 621 1013 l 664 1013 l 664 899 l 621 899 m 1031 722 l 1079 722 l 765 0 l 725 0 l 556 394 l 385 0 l 344 0 l 31 722 l 79 722 l 367 57 l 529 436 l 408 721 l 451 721 l 556 478 l 658 721 l 703 721 l 581 436 l 744 57 l 1031 722 z "},"Ẓ":{"ha":868,"x_min":40,"x_max":826,"o":"m 40 42 l 769 942 l 49 942 l 49 986 l 826 986 l 826 944 l 100 44 l 822 44 l 822 0 l 40 0 l 40 42 m 421 -192 l 421 -76 l 465 -76 l 465 -192 l 421 -192 z "},"ẓ":{"ha":679,"x_min":44,"x_max":632,"o":"m 44 39 l 578 682 l 53 682 l 53 722 l 632 722 l 632 683 l 101 40 l 628 40 l 628 0 l 44 0 l 44 39 m 319 -192 l 319 -76 l 364 -76 l 364 -192 l 319 -192 z "},"Ẹ":{"ha":854,"x_min":133,"x_max":785,"o":"m 785 44 l 785 0 l 133 0 l 133 986 l 772 986 l 772 942 l 182 942 l 182 526 l 699 526 l 699 482 l 182 482 l 182 44 l 785 44 m 443 -192 l 443 -76 l 488 -76 l 488 -192 l 443 -192 z "},"ẹ":{"ha":804,"x_min":61,"x_max":758,"o":"m 413 -14 q 275 16 339 -14 q 163 98 211 46 q 88 219 115 150 q 61 365 61 288 q 88 508 61 442 q 161 625 114 575 q 271 704 208 675 q 407 733 333 733 q 546 704 482 733 q 657 624 610 675 q 731 506 704 574 q 758 361 758 438 q 758 350 758 358 q 757 340 758 342 l 110 340 q 141 216 115 274 q 208 117 167 158 q 302 51 249 75 q 415 26 356 26 q 492 37 454 26 q 564 67 531 47 q 622 113 597 86 q 663 172 647 140 l 706 161 q 661 91 690 124 q 592 35 632 58 q 507 -1 553 13 q 413 -14 461 -14 m 711 381 q 682 506 707 449 q 616 604 657 563 q 522 669 575 646 q 408 692 469 692 q 294 668 347 692 q 202 603 242 644 q 138 504 163 561 q 110 381 114 447 l 711 381 m 389 -192 l 389 -76 l 433 -76 l 433 -192 l 389 -192 z "},"Ẽ":{"ha":854,"x_min":133,"x_max":785,"o":"m 785 44 l 785 0 l 133 0 l 133 986 l 772 986 l 772 942 l 182 942 l 182 526 l 699 526 l 699 482 l 182 482 l 182 44 l 785 44 m 560 1172 q 506 1181 529 1172 q 463 1199 483 1189 q 425 1217 443 1208 q 385 1225 407 1225 q 349 1216 363 1225 q 328 1195 335 1207 q 318 1172 321 1183 q 315 1158 315 1161 l 278 1158 q 281 1180 278 1163 q 297 1215 285 1197 q 330 1248 308 1233 q 388 1263 351 1263 q 436 1254 415 1263 q 476 1235 457 1246 q 515 1217 494 1225 q 561 1208 535 1208 q 606 1218 590 1208 q 631 1240 622 1228 q 641 1262 639 1251 q 643 1275 643 1272 l 679 1275 q 675 1253 679 1269 q 658 1218 671 1236 q 622 1186 646 1200 q 560 1172 599 1172 z "},"ẽ":{"ha":804,"x_min":61,"x_max":758,"o":"m 413 -14 q 275 16 339 -14 q 163 98 211 46 q 88 219 115 150 q 61 365 61 288 q 88 508 61 442 q 161 625 114 575 q 271 704 208 675 q 407 733 333 733 q 546 704 482 733 q 657 624 610 675 q 731 506 704 574 q 758 361 758 438 q 758 350 758 358 q 757 340 758 342 l 110 340 q 141 216 115 274 q 208 117 167 158 q 302 51 249 75 q 415 26 356 26 q 492 37 454 26 q 564 67 531 47 q 622 113 597 86 q 663 172 647 140 l 706 161 q 661 91 690 124 q 592 35 632 58 q 507 -1 553 13 q 413 -14 461 -14 m 711 381 q 682 506 707 449 q 616 604 657 563 q 522 669 575 646 q 408 692 469 692 q 294 668 347 692 q 202 603 242 644 q 138 504 163 561 q 110 381 114 447 l 711 381 m 492 911 q 438 919 461 911 q 395 938 415 928 q 357 956 375 947 q 317 964 339 964 q 281 955 294 964 q 260 934 267 946 q 250 911 253 922 q 247 897 247 900 l 210 897 q 213 919 210 901 q 228 954 217 936 q 262 987 240 972 q 319 1001 283 1001 q 368 993 347 1001 q 408 974 389 985 q 447 956 426 964 q 493 947 467 947 q 538 957 522 947 q 563 978 554 967 q 573 1001 571 990 q 575 1014 575 1011 l 611 1014 q 607 992 611 1008 q 590 957 603 975 q 554 925 578 939 q 492 911 531 911 z "},"Ị":{"ha":315,"x_min":133,"x_max":182,"o":"m 133 0 l 133 986 l 182 986 l 182 0 l 133 0 m 135 -192 l 135 -76 l 179 -76 l 179 -192 l 135 -192 z "},"ị":{"ha":274,"x_min":113,"x_max":160,"o":"m 113 0 l 113 722 l 160 722 l 160 0 l 113 0 m 113 897 l 113 1014 l 160 1014 l 160 897 l 113 897 m 114 -192 l 114 -76 l 158 -76 l 158 -192 l 114 -192 z "},"Ọ":{"ha":1049,"x_min":64,"x_max":985,"o":"m 501 -192 l 501 -76 l 546 -76 l 546 -192 l 501 -192 m 525 -7 q 338 36 422 -7 q 192 149 253 79 q 97 308 131 218 q 64 493 64 399 q 99 682 64 592 q 197 842 135 772 q 342 952 258 911 q 525 993 426 993 q 713 949 628 993 q 858 835 797 906 q 951 674 918 764 q 985 493 985 585 q 949 303 985 393 q 852 144 914 213 q 706 34 790 75 q 525 -7 622 -7 m 113 493 q 143 322 113 404 q 228 177 174 240 q 359 76 283 114 q 525 39 435 39 q 694 78 618 39 q 824 182 769 118 q 907 328 878 246 q 936 493 936 410 q 905 664 936 582 q 819 809 874 746 q 688 910 764 872 q 525 947 613 947 q 356 908 432 947 q 226 804 281 868 q 142 659 172 740 q 113 493 113 578 z "}}}
